<mxfile host="app.diagrams.net" agent="Mozilla/5.0 (Windows NT 10.0; Win64; x64) AppleWebKit/537.36 (KHTML, like Gecko) Chrome/127.0.0.0 Safari/537.36" version="24.7.6">
  <diagram name="PÃ¡gina-1" id="f7D6FJEXcx3t-e59_dPV">
    <mxGraphModel dx="989" dy="509" grid="1" gridSize="10" guides="1" tooltips="1" connect="1" arrows="1" fold="1" page="1" pageScale="1" pageWidth="827" pageHeight="1169" math="0" shadow="0">
      <root>
        <mxCell id="0" />
        <mxCell id="1" parent="0" />
        <mxCell id="vKeBIrEPphhN4ZtW6vs6-19" value="" style="edgeStyle=orthogonalEdgeStyle;rounded=0;orthogonalLoop=1;jettySize=auto;html=1;" edge="1" parent="1" source="vKeBIrEPphhN4ZtW6vs6-7" target="vKeBIrEPphhN4ZtW6vs6-13">
          <mxGeometry relative="1" as="geometry" />
        </mxCell>
        <mxCell id="vKeBIrEPphhN4ZtW6vs6-7" value="getURLList.js" style="shape=image;verticalLabelPosition=top;labelBackgroundColor=default;verticalAlign=bottom;aspect=fixed;imageAspect=0;image=https://upload.wikimedia.org/wikipedia/commons/thumb/9/99/Unofficial_JavaScript_logo_2.svg/1200px-Unofficial_JavaScript_logo_2.svg.png;fontStyle=1;labelPosition=center;align=center;" vertex="1" parent="1">
          <mxGeometry x="370" y="75" width="70" height="70" as="geometry" />
        </mxCell>
        <mxCell id="vKeBIrEPphhN4ZtW6vs6-41" value="" style="edgeStyle=orthogonalEdgeStyle;rounded=0;orthogonalLoop=1;jettySize=auto;html=1;" edge="1" parent="1" source="vKeBIrEPphhN4ZtW6vs6-10" target="vKeBIrEPphhN4ZtW6vs6-16">
          <mxGeometry relative="1" as="geometry" />
        </mxCell>
        <mxCell id="vKeBIrEPphhN4ZtW6vs6-10" value="consolidateItemUrlList.js" style="shape=image;verticalLabelPosition=top;labelBackgroundColor=default;verticalAlign=bottom;aspect=fixed;imageAspect=0;image=https://upload.wikimedia.org/wikipedia/commons/thumb/9/99/Unofficial_JavaScript_logo_2.svg/1200px-Unofficial_JavaScript_logo_2.svg.png;fontStyle=1;labelPosition=center;align=center;" vertex="1" parent="1">
          <mxGeometry x="610" y="75" width="70" height="70" as="geometry" />
        </mxCell>
        <mxCell id="vKeBIrEPphhN4ZtW6vs6-20" value="" style="edgeStyle=orthogonalEdgeStyle;rounded=0;orthogonalLoop=1;jettySize=auto;html=1;" edge="1" parent="1" source="vKeBIrEPphhN4ZtW6vs6-13" target="vKeBIrEPphhN4ZtW6vs6-10">
          <mxGeometry relative="1" as="geometry" />
        </mxCell>
        <mxCell id="vKeBIrEPphhN4ZtW6vs6-13" value="data/Items_urlList/base" style="sketch=0;pointerEvents=1;shadow=0;dashed=0;html=1;strokeColor=none;fillColor=#505050;labelPosition=center;verticalLabelPosition=bottom;verticalAlign=top;outlineConnect=0;align=center;shape=mxgraph.office.concepts.folder;fontColor=#0000FF;" vertex="1" parent="1">
          <mxGeometry x="480" y="80" width="80" height="60" as="geometry" />
        </mxCell>
        <mxCell id="vKeBIrEPphhN4ZtW6vs6-42" value="" style="edgeStyle=orthogonalEdgeStyle;rounded=0;orthogonalLoop=1;jettySize=auto;html=1;" edge="1" parent="1" source="vKeBIrEPphhN4ZtW6vs6-16" target="vKeBIrEPphhN4ZtW6vs6-17">
          <mxGeometry relative="1" as="geometry" />
        </mxCell>
        <mxCell id="vKeBIrEPphhN4ZtW6vs6-16" value="data/Items_urlList" style="sketch=0;pointerEvents=1;shadow=0;dashed=0;html=1;strokeColor=none;fillColor=#505050;labelPosition=center;verticalLabelPosition=bottom;verticalAlign=top;outlineConnect=0;align=center;shape=mxgraph.office.concepts.folder;fontColor=#0000FF;" vertex="1" parent="1">
          <mxGeometry x="713" y="271.5" width="80" height="60" as="geometry" />
        </mxCell>
        <mxCell id="vKeBIrEPphhN4ZtW6vs6-43" value="" style="edgeStyle=orthogonalEdgeStyle;rounded=0;orthogonalLoop=1;jettySize=auto;html=1;" edge="1" parent="1" source="vKeBIrEPphhN4ZtW6vs6-17" target="vKeBIrEPphhN4ZtW6vs6-23">
          <mxGeometry relative="1" as="geometry" />
        </mxCell>
        <mxCell id="vKeBIrEPphhN4ZtW6vs6-17" value="scrapItemsInfo.js" style="shape=image;verticalLabelPosition=top;labelBackgroundColor=default;verticalAlign=bottom;aspect=fixed;imageAspect=0;image=https://upload.wikimedia.org/wikipedia/commons/thumb/9/99/Unofficial_JavaScript_logo_2.svg/1200px-Unofficial_JavaScript_logo_2.svg.png;fontStyle=1;labelPosition=center;align=center;" vertex="1" parent="1">
          <mxGeometry x="598" y="266.5" width="70" height="70" as="geometry" />
        </mxCell>
        <mxCell id="vKeBIrEPphhN4ZtW6vs6-29" value="" style="edgeStyle=orthogonalEdgeStyle;rounded=0;orthogonalLoop=1;jettySize=auto;html=1;" edge="1" parent="1" source="vKeBIrEPphhN4ZtW6vs6-23" target="vKeBIrEPphhN4ZtW6vs6-28">
          <mxGeometry relative="1" as="geometry" />
        </mxCell>
        <mxCell id="vKeBIrEPphhN4ZtW6vs6-23" value="data/ItemsDB" style="sketch=0;pointerEvents=1;shadow=0;dashed=0;html=1;strokeColor=none;fillColor=#505050;labelPosition=center;verticalLabelPosition=bottom;verticalAlign=top;outlineConnect=0;align=center;shape=mxgraph.office.concepts.folder;fontColor=#0000FF;" vertex="1" parent="1">
          <mxGeometry x="466" y="271.5" width="80" height="60" as="geometry" />
        </mxCell>
        <mxCell id="vKeBIrEPphhN4ZtW6vs6-48" style="edgeStyle=orthogonalEdgeStyle;rounded=0;orthogonalLoop=1;jettySize=auto;html=1;exitX=0;exitY=0.5;exitDx=0;exitDy=0;entryX=1;entryY=0.5;entryDx=0;entryDy=0;" edge="1" parent="1" source="vKeBIrEPphhN4ZtW6vs6-28" target="vKeBIrEPphhN4ZtW6vs6-46">
          <mxGeometry relative="1" as="geometry" />
        </mxCell>
        <mxCell id="vKeBIrEPphhN4ZtW6vs6-28" value="postProcRegisters.py" style="shape=image;verticalLabelPosition=top;labelBackgroundColor=default;verticalAlign=bottom;aspect=fixed;imageAspect=0;image=data:image/png,iVBORw0KGgoAAAANSUhEUgAAAWUAAAGbCAYAAAAcHYHSAAAAAXNSR0IArs4c6QAAAARnQU1BAACxjwv8YQUAAAAJcEhZcwAADsMAAA7DAcdvqGQAAP+lSURBVHhe7P33tiTJdeYLWsgjU1RmlhZAFQoACygQGiRBgCCHqznoNatn3Znb8z73NWbmFeaPWavvNMnmpWg2mxKyABSBEiiRVan10SHn+22zHWHh4X5UVZ6MzPTvnB1utk24uYnPt5ubuzfGQijBaDSybaPRsK1Hw497MBiYu9VqhWazORNeo8ajDPo+44O+jwD86IfDoY0FxgHC2HBx3X4grY+lIg6TvsbDj1JSRkXn8o5Hh3LQKQh30gbuJ8w7aY0ajzLo80603v/Z5nACRY/b4xdRTFcGj0P6sjxqPDqoJOV+v2/E3Ol0QrvdnuhB3tmcvNnS6SDlutPUeJSRkytjwAkZPeJA5+GgbGwQXkRZHJcqYq/x6OBQpExn8o5Hh3DxuC7FsBo1HkXk/b3oz/u+k7Hrc8IGng5xeNw8H+Bxivoajx5me0kB3gHyzuPkDLzz0Nl8mqPuNDUedeTjwccCwO3jIxfGBeJ+j+vb/cThY63Go485SznvEIgTbR7NOwg6twZw152mxuOAvJ+728dCPmYcPla48sTt0xjoiuLxPb273V/j0cecpeydg05A53Kd+4sdDngalxo1HnU4UfpYyLcuPl5A2fjI4zoIh9z9Xk1ZuhqPNuYs5Xy5Dx0KP1FyQi52orrD1Hic4GPA+773fx8XxXC/mnS9E7Ujz4e4Hh94/LKxV+PRRCUp0wnY3r17N2xtbVmHyYG/rJMU49Wo8ajB+z3jg/7ufd4NGfyEYe0C4i4tLYXV1dWwvLw8uXnuY4et51G0kJ2Qa1J+fFA6p0ynQDY3N8Ovf/3r8MEHH4R79+6FnZ2dSadB6CAsl6s7So3HCU6QPhZwo4Ns2bJyqdfrhd3dXSPfU6dOhSeffDI8//zz4emnnw7nz58PKysrNnaccIETcT4GPdz3UePRR+WSOCzmW7duhX/+538Ov/rVr8LNmzeNpL0jsqWj0BHZlmRTo8YjCSdJJ04nTDdQGDtVpPzyyy+HL3zhC+Hs2bOh2+3OWc0+jnJSJsylxqOPSlKGdCHlv//7vw9vvPFGuHPnjlnKdBIPp5PQqdxfklWNGo8knCDZQp5533eL1vXEgbCZwoCQ//AP/zA8++yzNpWBjm2RcItjqRhe49FF6fUQHcCFzuFnbe8o6H3+rAxVaRDSuOCvUWNRUOy39E/I1Pu691ff5v2Y+Bgmbpyg97Totre3zci5ePGiXXm+8847dvXpU4I+ThzkmctBIH2Z1Hj4UGopAzomnejv/u7vws9+9jO74UcHyjuJu8mC+A46GZdwhHnHRXIiJyzvxA7Pu0aN+4lit/c+TH/0fosVi7gewe192fsqOvo7Qj4+JeFhTGWgz8n91VdfDb/3e78XPvOZz4RnnnnGpjI87DhgP8VjIi/P77j51jh5VN458AbNGxbQ8Hnjl/kBHcw7L1vgnRt4vnlHzPdTo8b9hPc/F++rbt0i6L1/I3l87+e4Qd6Pi/E9X5/q29jYCJcvX7ab6O+9997EYvZ0SBFV+hqPHipJ+TjwTkMHpRNy9kfolABCxmrAooCgvcPmHbpGjfsN+hp9DnE//RDS9HleJ9C9vT0TVlTQZ0mD3q1mt1BzwnQ/4mOB/JC1tbXw1FNP2Rj4+c9/Hn7xi1/YlAZXop6Hpy2iSu/Ix1A9nh5efKqkTEdw8U7vfkCHcmvZO7Xr3F2jxkkg76u5P++39EnI0/uqx3Ogy/sx6SB3xOPlfdrdxCMN88yXLl2yOeZ33303XL9+3XTHge+PbV5GUPTXWGy0/jchuefAJdX7778frly5Yst76KDAG76s8b1D+xbxzsgW8XTud5L2+DVq3G/QP4H3zWK/Q++kDAgnDeJpPI77IWOf/vB4Hge4mzxxE5dxxVQG+vX1dbPS2Xr5ijjKGPF4h41fYzHwqVvK3iG98/l0BUDvVoR3ZE9DByUcfy213G9xuDvvrz5VUeyjwC1jxEG8MnGQHj9p2YeTMnmyxfj5+OOP7Yb622+/PZljLiIvd458X0VUpamxuKhcfYE6X33h65QBDe0CiIvQyZg3o/MxD0fnw+3zy54Gneu9swPPp0aN+w23ROlvEKz3SYQw+qb3R9yI92dAP3Yjwkna+3cuHpdwyJ78PH+ftyZfL8O3vvWt8L3vfc/WMTP3DIgDPD/guoOQp6nxcOBTJWX83tnpZG4VoIN8Pb5bz+hcj5CmRo2TBP3O+y/9j62TMCRJP/Ub1u4nDoBU6b/oc7J2cT9xfDyQ1vu8jxV0hDEu/Km/1157LfzO7/yO3RjkkWzPj7i+f4eHFVGlr7HY+FRJGaHz0encYqaj+S48nHk09DlZ4/Z4NWqcFPK+TB9EIGRImKs9+jwrMiBG+i5Cv2aLnnj+lR7vv54ffs8POHHT5wmDiH2/+BF/b8Yf/MEfhO9///v2rgzE4WUgHaja1nh48amSsoMXrjz33HPWab1DAk9DZ0TonEiNGg8C9FkIzuH92a3Wq1ev2lwvpImR4eFOjG5QQLbE4QYdb4Kjz5OHP3DFfohHfOKBfMwQ5mVhvwgPlXzuc58LX/rSl8xi9jfM+QnBy8I2lxoPPz5VUqbD0fF4WulrX/uazYmdOXNmQrx0VsR36Zd/3snrTlXjJAHB+U094P2QNyLS91mqxntffC6Y/kr/9XgQr1vIrJp44YUXwoULF4w8GSu8XZFlbrgZG0xF0N9JR1/3sUBe5OOE6yAO1vJ3v/tde6HRuXPnJvv08YeQt7trPPz4VEnZO+rrr78e/uiP/shuVvA2LDoN4XRIxDufp3c/ndQJvEaN+wX6HX2SPgfhug6hn96+fTvcuHEj/PjHPw7/+q//OiFun1v2foseof8yvfHFL37RLFwnT95v8dFHH1leTIW4tU1e7B8/+yM98RH0CCDsxRdfNMFi/vznPy/y581y05vmHt/9NR5+xNb/lEAH5fWedC6sBSwDv6TDjzVBp4Z86UB0Ri7V/Kkp/HTEWmq5nwIgMjcSIEf6J8Tq/ZW+ShyfTkDo3/Rt8nDihGARdKTHov3sZz9rBMoNOwyT06dP2z6IR3rv5znwez6UiTHCWPnwww/tTY3//u//Hq5duxa2t6ePYx8Fx0lT48HgUyVliJbO5IKfjkBnhnTdqvCO7PF9MOCuUeN+w/uk98dcIE36JoB4IVMEgvSrOOLQnwmn76InLV/oYeoDcIXInPCXv/xlI2hu1hGPvMkvJ3zSEkZejAH8PmZ8H0yF/MM//INZ3k6uTrTur/Fo4FMlZToQnYoOhkC6dELvxHQ0J2Q6EuHEwyrBOqGz1qhxv0H/ywnYBR3iJJeTMkJfBTlhYmGjJz2kzJUi6bGOfWkbpIzF7P3bjQ+3vknreRVJmbwhZd6P8Y//+I+2JZ2XvSbkRw+fKikDOgniHQbxzs0Wv5MxW+CdkDToaqnlfgt9kT6IeL900A8hPfokBEgY8YD3Z/yE+7sqnLTJmzjelzE2uAEIMbOKgtd0kieECwGTztOwT7auxzr3svn2l7/8ZfjLv/xLm87gPo+Xz6UIdDV5P1z41EnZ4Z3EOycdLe/8uBHCiOOkXKPG/QZ9jr7npOyk6H2TLQTpQr/0vkqYpyWMNffoclImvvdlrFysZKYyuBGImzgYIoyJfP/oALqcsMnL4/AYNnPMvPbTX2Dk+yMccbg/lxqLj/tGyjVqPOqAKF0ApAc5Qq4QtpMs5MocM6soIOavfvWr9uQeVi6kSlwAGQP3Q8zkSTxAPgj7YGUHK0OYa/ab63k5QF42yoLUxLz4qEm5Ro1jAsJzC9oB6Tk5IwAi5eOpbjFz8++ll14y0vV4OVl6OvLG7aTsljU6bvjxLmZeku9roctINyfqYliNxURNyjVqHBE5uUGcPp3hUw6IE64TJeFMZfC0K2uZ+YAq5IzFTFwsXeaZiY+fND6llxM/4U7SpGEa45/+6Z/Cb3/7W5tjJk0O8iEteSI1Fh81KdeocQw42TkpF8nZpyIgVQSgZ+knN/tYmcEDIRA0VjTxIVRIl3zJP5/WcFL2/PATzjpmLGbmmnlhPlMZhJPeBZBHTu41Fhc1KdeocUw4wUF8ToQAvQs6LFtuCLolDEFiMbMagyVzr7zyij2eDWmTD/EgXNKi82V37vcHW5ygIWIeCf+3f/s3WzLHNwCd0HOCBu52f43FQ03KNWp8AkC8EB8kCOHidj3ECQjDCvbpCMKwmJljxlLmXTFMY/iTf8T3fNz69rxwE8cJH0DizDG/9dZb9lkpt5id2F08T0dNzIuJmpRr1DgmIEYAGUO4WMSIT0E4MecCIEMIEzJl6oIVGQgW8xNPPGFxAPHJizwh1JycnWTZB9YzRM3NPl6gxKoMSJqHWZx4fWqkSMQ1MS8ealKuUeMTwIkZcoP0cuIrI2V0kKnHZWoCi5n3ZUDKWMwsn0NPXMjUl83hJ2/Ss83zxw3J86pR5pdZMocbYs4t5jJU6Ws8GNSkXKPGEeHE6KSIpYpgyaJDcjhxIgAy9vQ+HcGb5ZjGwGJmnpk5ZuJh/fJeZl9x4YTuaXOd65lT/vnPfx5+8pOfmMUMqefxy1AT8+KgJuUaNY6InMAguzJiLgPpXIDHhUxZLpevysBi5i2L5AnpFgU4yZNfrsdiZl4Zi/k3v/mNrdDwJ//y/RdRpa9xsqhJuUaNY8IJLifl/CYc4mSZi6chLsAaRu+PZEPKPGTC13uwmLkpCIH7DUDyd+L3LXk6fL+8x5n5ZSxmXvvJfjxeHj9Hlb7GyaEm5Ro1jggnRSc/F0dOlDnJ4SYMgnUrN0+LDusYImZVBtMYbPmCD3PMWNRF0vQTAgTv0xOeJyQMMb///vu2lpktVrSjmJejSl/jZFCTco0aRwREiEBe+aoLt2Sd1HwLEXsaiNO/XgJBQrRuXfuSOeJhJX/rW9+aecCEuJ6/Ey+EDGH7hyQIoxzEJR/0POnHF4R+9KMf2Y2/HF7GIqr0Ne4/alKuUeMTwknSiYxtTmpuOfvWwyFOALFCoOQBoULwECwvxoeQee0nr//kgRMInTjkRTqQ78tBOHmyhfyxmHkUm0+7sWWO2ffv+2Wbg3A/UdQ4OdSkXKPGMZETH+LTEk66Hu5AB8FBdJAgIDyfzsiXwEG6EDPWMk//sWSO6Q1Im/g82UeekC46SNTLgeD2/WAx8+KiP//zP7d3ZWA9O7mTjicO3Y8A/G7N1zg51KRco8anACcy34Lc7XDSK4bhd2KGBJ3YufnHHDNvleMlRrz+E4sZ0oUwIXnSkQYSJQ0gPz8J4GaKhPCbN2+apczNP57+80eyyQ/gdhL2MpGPl6nG/UdNyjVqnCCcIH3KAkB26N1izokQN1MZrMrAWmYdMw+aEJf1y8QjP7ZY2U6ckDHifuIz9UFeV69eDX/9139tX+uGpEmH1U0Z3OImLWVED+ppjJNDTco1ajxgQIZOyi7ALV+IGYuZB0wgZF/HzM0/wrGYSQOBQpxOoOTpxJ9bwMS/ffu2rcb46U9/ai/KZ/qCNL7vnMz9REF+Ne4/alKuUeMEAdm5JQqc6JxAIUEsVOJBrrnVyrwwN/6+8pWv2NN/zDcTjxUVWMGEE9+nNXJSJq98hQj6y5cvh//5P/+nfe8Pq5sw8qEMTsoAP9a451Xj/qKu5Ro1ThA5KUNyTnSuB65HiOeEyhZy5KVFTGN84xvfmLzEiLRYu5AqVjVp0TmxO0EjTrLkzZwyXy/5l3/5l8k6ZuLn+6ZstZV8cqhJuUaNEwQEl09LQHYIBAgZur5oMUO4/uQfFjGk/Pu///v29RIezyZPCJYpDKY1yMPJnDD8Po/NFvLGTf5MX/zt3/6tfcUEq9tJma3PMdc4OdSkXKPGCQPCQyBetk7IbtV6HMgT8XiQtxMl/jNnztiKjK997Ws218zb5QD5EJd0bD2vnPwRCBkdpA3hsxrjf/yP/2FvmHNyJh3xiEPaGvcfNSnXqHGCcJKEMJ00IT0IsIqUEaYbiA85YjUTD6uYuWWe/OMBE5bOAcLJl3Tkk5My6ZGclBHANMZf/dVf2RzzvXv3jISxqAEngpqUTwY1KdeoccJwEoTknOicRHOiLpInxOzkDIH7C4Z4YRHvyWCOmXXMWNDEg4w9L/LxfbmfLSAO4oSPxfyP//iPRtI+ZeL51bj/qGu5Ro0ThBMghAjZsUXcmi0jZQSdW8xssVx58g9y5sYepIzF7NMYWLi+L0Be7M/9uJ2kHeyTfUHGTGP449joa1I+OdS1XKPGCQKCc0J0axWihIwRiM/jQKROzGzz6Q2mLngQBD3zv6yawP/6668bOWMx+ys/Aftw4nfxfbkQBz1b9sP7mP/7f//vE4uZfdW4/6hJuUaNE4QTrouTIQTpVjJw0nbJCZo0WMJOylizTspYzF//+tdnpjFAvg8XdE7IiIcD8uWGH+uY/XFsTgo17j9qUq5R4wTh5OiSk3BOvOghXixixC1YyNNJmi2kyxI5n14gnJcW8Uj27/7u79rDJkxnoIe4/cGSnJgduHNSJh7TJL/85S/tsWw+LVXj/qMm5Rr3BZBAjXlAfEVCBk7KEC0CIGLIFskt25zACcNCdlImjDlmVmXwODafl+IFRuRFvli7xPEyFOH7IC5b4r/11lt244+HS3we+zDtW/eB42HhSNkbki2dxzsHnSXvMIQBdHkHJ7yWkxfgbeTtlrcTwJ232+OIYp2BYv05Web1CDwceJindb9buJAw78pgqRxWMxYzftJ7Ok/L/ogPsIwJ93Kg54TAqgxeYPQXf/EXNp3hy/LIg627HZTBTxy5vsbBWGhLmYYta1B0SN5JHa47itQ4PortQ32iY5Dm7ed6dLjzE2mNCOrDBVBXLnl/R3K9Az8kSN1TvzzZBxljNWMx+2elytITH7eTKP5csI554u8f/uEfbK751q1bRsyej+flgt/7QI2jYeFIOe94SBHFMBo9vyTzubKjiFsDtRxNigMX8bYpC0PytN6GNQ4P6qxY/7i9DwPI0B/2YF76ySeftMeysZh9yRxjBvH4ECxk6nPYTIdA0KzscD37YBXGr371K3tRPnPMns737YQMvI3RITUOh4W0lH1guxSR652U6YS+PY58krSPq1BnDFy2uZTp8vgIRFAP1KPDiZj+n7udqIGPCeoYHasw3GJGIGnSOVkSn7iA+J4vetoK+H5oR5bIvfHGG7blM1PoHJ4n4vnUOBoaqrzSkYGaSxQ+uMh3vfh8DGdJ4KSIAG8EGpC7u9/85jfDD3/4Q3tRCneCAQ3saYq79PTe8J6vD1z8VY1Lh+DmA2ds9l3M+7A4brrHGcVB524nXW9P36Jji9XFZTQ3pLDIHgS8j3nfQ/x46Pe81vLf/u3fzCJER5npw96PHaTjuAjHCvV3UbAkjTDi5/sAefqjgrIA6pi8qT+3kvEzDghjX8T1G4D4eXT62rVr9hg171HmncqMHcpOWzCWGENePs8XPXmiR8iPFR+80xmS/+pXv2rfEGRfhFMOQDzPy7c1DsbCkXLekDkpA0/vfsLoVHQ21lEipDkuiuWqsT8YsIjD285JGbfrEPoAfkiABxu48QQ5PwjkfcjF+9+ikzLpnZTx5+3gVyNeTg8jHuUknNUUfA7q4sWL4cqVKzbFAckyljY3Ny0f0kLUHBc6xj7xyMuPAz/EzNvqmB7x9iSc9F7WGkfDQl5b0JC5OLwz0NgIoPNxIuBsTqfDf1zxgVPL4YT6hgAY6EVxPe1S1Od1XeNo8HpjXPgYoB2oZ4QwiBOr1QkUvS9lQ88J47vf/a6tY+YzUxAv4bQN1jFxENrJ54zxEw/SJV9AfD4nBcFzAuMzU+wLeNm8vEiNw2GhSLlIwlXweAgdp2yw13L/hfqm3l1y4kWctD0Mv584SV/j6PC6h/QgRx8DXs+40eWGC/Gpd7aEcaOPaQesW5bMYeESDrB+IWDImfjkCfCTX543+/KX5DMlwrsymB7BSPI2zvdd43BYKFJ2eGM66AigqAf4fbB7eC0nIww8r/tc0HsYWwa2h5EOeJvWOBq87iFFn/PFjc7r2OvZ40C0TEXgduLGzdTDd77zHft6CXFc3BL2feH3tFjOAD9tSF6Q8PXr122e+uc///nkY6wgLxfuGgdjYUi5OEjLGtA7SR6Gm47hujzOYaXG8UG7lRFsUe/1jM4trbJ0NT5dUMeQKmQLkQLv98zrM5UBKTMXzqoM4jjJI4wt/OSBG7JF7+3IFj9L55ijZr6aFxldunTJpkRqMj46FtpSLjZmUU+HcHH4gD+K5PnUcnhxC4qtu11cl4uHQRBcIlP3NY4G76+MAQjPDRL0Xr+40eXGCjoX9Fi8ECxuSPk//sf/aOuYCXcQllvdwPeLUA72R1vixmKGjP/5n//Z5plZLod1TRzanzg1DsbCjArvPN6Z8g7l8DC2CI1clE+CsvxqqZYc3iaOPLyod3KocTxQh06YOWlCfF63Xv+E5eSa693POmae+GOemTlm3pVRbCfi+snV8yOO63BDwHwVG4uZR7F58o9VLH7zr8bhsHAjo9iJvOPkYQhu4B0n7zzHkU+S9nEWJ4Yy8XZEfF7Z2w6pcTx4vXud4ncSdWL2MUN9Ew9i9KkHj+cCyIclfX/2Z39m5IweC5irGvIiHyxeVmDgz/fr+0THPhBu+GEtcwOQm4GUoW7zw2GhSNkbja1LDtflpOydgq2H13Jy4sjdtMV+IPygODXKQd/P+39OwKA4NghHHIShL04pkI45Zm7+MZ3BVAbPGXCDkDiQOsQKfMoC5CcHJ3vAfDJroFmR8eabb4aPP/54kr7G/lg4SxnQcbxzubg+FzqLdzy23mGPK8X8a9lfgA96F28Pt55c53oPywmhxuFBvUOAwOsRkvT+D/E5+VHXbu36HL63G2nwA3T5GGAq44//+I9tKoOXGgEeHkEgZ/LKyTrXs46ZfCkjc8wffvhh+Pu//3t7J7Ov3KixPxaGlPNB65KDcBo971x+o8IJAN0nEe+YtRxOqDNHkWDxu+TtSToGJwPZyeVhQ37cjqLO+1TR/Wkgr1uXInyf+b49Ln7GDvWftyVbdBCxr8pgKuPpp5+2J/5I62MO5PnmJ1nfEs6qDG7+sSqDJXOQtJ80PD1gv3neDuLk8R4HLJSlzMD1M7+f/b1RcDOfhRAGOBPTwPmg9/hHFe+ctRxdqD9vK/cjAL23D27ayx+L98H5MCI/xnyb60GV+7jwusz7O3UO8roG6CE7J1/iEoabEyPWbd5enhfji9cjYDHzaSnI+cKFC2ZxQ5yk87Tkh3VMGOnZF1svC3E4AXPT7y//8i/tRUbkke8T0Bd8POcg3Mv4uGBh3n0B3Ar2joQAdH6p5ulpWPblQtkQ9lPjZEBb0DZl8L7hKPq5/OVJMrYPAl4e77sIx4Ic9O6LHKSjnxJ+mHdfsF+Xk4bvl3EKqboB5HqOgzC/IoW4sXR9JQVP7lEvXgeHOQbiki/7oY6oH/9MFXVE3ZKPEz37daPL4eU7zP4eBSwUKdMYNJITct74RVL2juVnbkDaGicHb/8iivqyeLQl1hXbBwEvk/ddhP6D3G9SJr+qurufYL/Ut48d/G4IUR43cIjjY5Eys8yNJ/Z4Wo9pCJ7Ygws4ZtJB3hwneZGWdOwDPX4saSd6D//+978f/sN/+A+mA8RHivVCOUjzOGGhSNkbzAnZBwBp0COenjBvSIQwGtDLVOPBotgOZX6XBwHfr/ddxPvYUUgZ0F85wRxEyuBBHrePEcaLk7KTL+Kk7H7CEHRYzHyjD2vZn9jjuDkujsWPFZQdGzrGtx877934yle+YnWGUCby83CvL9I8bqS8MKald1zvxIDGcXhYMZwGY0DUcvKCleMDN5dc7xZSHo74AH2YUSz/w3I8lNPLWjaeQE6wWLpPPPGEnXCYY+aEg7FFHMidExY3AsnHiR0Qh37ipM69BCd9CP7P//zPw29+85u5/dM/iOO6xw0Ldb3vxMvWJdfngs7P5gz6x+1s+rAgb8dHGTl5VLlzeL2cpDBusEjZernQY6H6zTf0jCvGk4d5GsiXp/2wcpkX5koYwiaM9KT1Ey5pIWDXO9niJk/WMXP1zcMlf/M3f2MkTRqQlwG4/nHBwpGySw7X0fiIh+eN7Q3ocWq5/+Ltchgpi/+wgn6HlMH1eZzcXayDkxTaAJL0aQKAzqcz0DsZMqaAhyHoeST7tddesylKLGYsZPJk/pi0WMakZX/oCCOdX12xX3TkB2nzMdb/8l/+i81VezmBl4P4uf5xwEKSssM7To48DuEIDVgWt8b9hdf9ceRRaS/vg+7eDx7uffikxa1eJ2XaocyY8fgex6egSAeZ4uaNcljLTGewXI58iOv7cSEPJ2TSESfX42Z5JPPUzN/zMVYvI+LlQB4XLBQplyFvEBrI4Xoa2cV1tZyc5PV/VCH9w4zjlp9+nJPgSQkkh5WKm7I7keLO47B1MiROTspYt+hYzsi3+bCYnZSJ76TsUx7oSOukjJ8wtkyHEJ8FBJAyT/598MEHFu7pAXEfJywcKdMAVY2wX+M8qI5ey+GkrH3QPawo9sXcv18/dRDnQQmg/p2A0THl4NOA+L2NiOPtxBaB2BHc3AD89re/HX7v937P3JC850U+xIFgfQqEPJ2cyZv9cUOQOKx6gZx58o/XfpIX6fMyPA5YKFL2DgNyN3A/2zyMxnLxjlTLg5GqdqjSPYrYr98+aFAGiA44IdMO6J2QEUBYHseBGwKFlAGflvrGN75hxIzFDOFiAbN1UvX4kDJ+J370uJmXZl+QMg+q8NQfa6FrUl4Q0FjegfMtQiPl4TQU4h2H8FpOVrw9vE1y/2H0jwPyY8Xt5HfSAvFClriBjx3g7UmYuwGE6IRK2UmPuCXsYDqDj7EiTz31lD2piRDPxynx2TrJsg+2kDMgLm6Wz/lNQkCZ8n096lg4S9krv7gFHp7r6FROyui9Q9Vy/yVvDxfHQfpHHVXHia6sLk9CnJjLSM7jePk83EkTQeeE7OTt8bCYmV/GYub1n7zUCAuYuD5GiQ/y8ZqTMuG4mWPmJAB5g5qUHyCoeJccuT4XQKN6I4OyeLXcH8nrvij76fP2etjhdeHu/eBxIZ8HJU7MbvEi6GgTt4pxE5cwpiIQbtSh8+PI8/R8cDOvzKqM119/3axn0uZxEfYHnHSduNk3/QK/l5H4jxsW7oi947o4yvT5QGebx69xMvA2OI4sKsrKVlbmYp+EZLDweDCCZV4Il+Kbm5u2RQh70IIlyvSACzrKyBN3CG50hHE8CKsuSOfH4ceS54UfEsVSfuGFF8xariJz4KRc5ndi9rDHCQvz7gskv0wpximDx2Hr6WqcHLzdwHHq/0G2mfdDJwLghEG/56sZ/u4L4kIQfqweD70fA1bd6dOn7TKeNbwQUjGex/Xtg0ReBo7LDRuEsOLxAQ8nLiAOYza3fOEAtrzEiDqkLm/fvm064gPPB6FeSQ/xYynzcArvb/7TP/3T8J3vfMfig0Wos5PCQpGyd+IqlKWr8WBx3DbwvvMg4P2QPumkjN+JiDv/EMqPfvQj+zIzxwh5eLw8rvdZxAkGyd0eTnxAfg9b3/VjBRAodccx+nFyPIx/H+f4qVssaggatx+/gzjkSXpPC1/wKDffCmSZnaOY9lHGQ0PKxTQg1+XlqXEyKGuTo+CTpj8unAgA/RLk/ZLXVPKWuB//+MfhX//1Xy0MS9j7GGlyknE9+ebbMmEffiJ42ECdcQyMcY7B69FPWOh8nAO2zgkcd3Fsu64m5Vk8FKRcjO/I9Xl5apwcqtrmMPgkaT8JnAjyvuhuiMVJma8xM4VBfOZGvX/Rz49LrOyDsfCgjv244NipB7ZYytSBj1dIGT11wnEhHh9wvB7X6xAQD11NyrMoN0sXCGWd1xs+h+tqOTlxcjmuPChQbr955XOZkIKTLeH5seEmzNPgd5IpCuRRlBz4iQcRPUzix0Z94PYVF4hPY7ib+MSlnqhPr9Mah8NCk/JRB64PolpORj5JnT9IeBkgiqJ42XIy9biQi1t0RwF55eIE/jBJXh+QbpGAAfGcoHMiz9PWOBgLR8o+YHxw5Cjqi3G9A9Sy+PIgAVkwHYHk5MEWP5KTC2H0MSduJ2e3Al2c1L0/gvyYEeBxHiZx5MSLmzDqwtc3Awg7X9+MEN+Pv8b+WPjpi8Oi2IlqORl5GAE5QCgI4DjKCBW4ztOUkbTHyd2Ipy8ij/MwiteFk2xV3QHieLwah8PCT1/k4ij6Af6i5VLL/RUnpePKgwJ9hf1j4RXFjy3XER9icQvQrb4ywvF+ydaleNxluodBvF68jjgOjt+vNgDxiMP8u4tb0cSvcTAeGUsZ5AOllvsvn7TOHyScICiHW8A5uRDu5IMch1SIXxTg+3yYJG8vJ2lAWD6dAfJ645i9vfM8alRjoUi5rAPn2E/vHd0HVy2LLT6AHxToLxAJ851Yv3xrzudBsYi9fG4t55YfZJMTTVH2A+EPcz+l7Pk4xE995fPGOWmThnC2NQ6HhSLl4yAn6Xxg1PJwyIOCE0uxLE4o3q8gEw+DnFkSV1xCVxTPo0qI4+kfFqHMgLrgGKgDhJMUdeKCzuvV687rusbh8FCQclWjVulqORn5JPX9IMH+IRoIJCdT/BALREM4hIKVhwUIwUBGucXspORupEhkSE7I6HMSe1iEY+RYqDu2+HkBES9d4jFqBDcvJuI4qS+3nL1eHnS7PyxYqCf68jxzFOODoo5901HK4ta4Pyhrq8OCQetL0h4EvJ/4MbB1AoVc6O98moivLXOJTlkhHPo3/mJfzfPJtyB3s18nt4cJHINbvow16oljcHFAxEwFAciYt87xaSeO2evNQTp05Ot51k/06VhVMaW9A/WDJuViPEeZntcNUkbKUONkkLfVUcHA5d27PoBPEnk/c3JhC9DjhkSuXbsWLl26ZC9r561v9H8kJ5fj1IHv62GCj9F8HHs9+EkGN6TMvDwnMPjj/fffD7/5zW/Mqi7WFWlqUp7HwpGyI4+X76cIzsbs060bOkiNk0PebmwR2trbysMRH4BMCdAveM3lgyJlB+VzAV5WwImefgXJ8Gkj+hpXY3mc48D39TCBMnu7cuy0JeJhfkzevk7Kv/rVr8K//Mu/WF06iTtIU5PyPBaKlB2eL8BNwxFOHsA7A+DVgLyvlcGD2+PUuP/wQQq8nRBOjG49Adcz+CA4rE5kfX3dpgUWFRyf91vKX+ynjxvyts7HqINw9LSzG0q81Omv/uqvbBqDts7TEd/7RU3KUyzcjT6vfLZ5QxT17qch/UaCk0EtJyPUfdl2PyHOw0JsEIbf5KO/OYHUMivUkdcT4vWErj6ZHR0LRcpF4nV4o5aFM8hzUqjlZMXbBnF/Mcz9RalRo8Y8FtJSPqwABj2EzJazci0nK24Z7afPLai87WrUqDGPhSNlUCTeHD7QPaxIyk4AtTwYydsgv6x1vbddWdvWqFFjAacvioPVdXlY7gYQMlJ2iVzL/ZPD1Lm3DeLzyj7/j65GjRqzeOgs5VzP1gc22zJSqOX+i5MtkvuL8TwMUkZqUq5RYx4LScqAAVs2aHM9Wy6HXZywazk5Kav/XJeHeZvlbVijRo1ZLCQpHzRg80HNYC/OVdZycpKTLuJtkod5uMPbribmGjXmsbCkzKVukXxd75fG6CBkf22gh9dyMpLXd9V0RVHq6YsaNfbHwpKyD/jiwC3qc1LOLbZaTkaq6rxoJbOtUaPGwVjIFxK5H+CHcNnm1hV+Bro/zsm2fkvcycLby61gJ+Dcn5MxVjLhvEcC4UU/vCehxsOBfOwhDnf7GKfNGYu87+JHP/pR+Iu/+At7zJpH7PN05EdcDCvGNunrx6x1rKqYUhZD/aBeSERcj0OD+cAlfwY2YTQmeh6x5g1UefoaJwNvT2+voj8nZfy0H35eQuQn2hoPD2hD4O3scLePcdq4JuXjYyFJuWzOGJC/N57rics+gRNAjZMB7UOd0x55++KmPWkjb1PvH/ghZcL8BFvj4YC3lbezw93eB2pS/mRYOBYrG6SuK4bhp7GwuhAs51oWQzhhVukYhAzGx2mg1ahxWCwcKfuZFpJ1Syu3xDyMrZM0bqTGyYL6d6vYCbbozgW9tyeWEbrjoph3lVTBy/KwySdFWZ4HSY2TxcKSsgt+BhcDGRT1SN15HhyqiM/bw9sIeDv5SbYq7WHheX/SfB4XeP1XSY3FQG1e1ngoUUYqRxGQk/rDIg+y3DVOBjUp13hoUSRZkOv20z+sJHM/yl1FulX6GvcXNSnXeGhRJFrkMHp3P25wkj2u1DgZ1KRco8ZjiiqyrUn4waIm5RoPLZw8jiqe9nFEsR4ch9EXw2rcH9SkXOOhRJEsXIphOXK9T2U8TALK9IeVGg8HalKu8dAiJ9kyqYrjKCOuRRZfCvppS1VdlOlr3H/UpFzjoUWRMJw0crejKs7jJJ+U1GucDGpSrvFQoow09pNimvtldd5v+aTlLktflWdRX+NkUJNyjYcSThqHFX/fxuMuOcnmUhVe1NW4/6hJucZDCSeMohTJF3+ZLvc/TlJVb0gxzInY3TVOBjUp13goAUk44eaSk0qVONk8buL1Vib7heVS4/6jJuUaDyUgiDLCLUqRVFweZpQdzyeRw+ZZ42SwUKRMw+cDiuVL/sL7fClT7vc0dac5eeTt5fXvy85cqtAI49AcDUJr2A+t0TC0x6PQlq6lbFrk2yDPKM2GrOBmfGd2uxWlIf9A2Q+VF+8PRNjbzB7lGdN/eE2oJAwl6W2D/JK2KJ6Xi+mUDzJMglv/x5aR6mWkTExwW12Vxy0V/VTFL5bdy6wjlzRCX0O+J+nLPaQVVN+qYtWx2sNkNHGjVwMQyCeAQjNdjQB/058L8CsV19En0BVftev9JtcjeRrvT48jFoaUvaGKjeWk7A2fNyDI09U4WeRt5YMobx93A8JnRPomhCxpjyRjEbNoRXQb2mKDlpEx7cpA593akHJ6Yb62yiSSMqL86Q3sycUdIyPlvqQnghY1aT/oSdNPEgkr6uZEcS2MNNoJEnve8UB10HWHcpgYOUsnPWH63xcexyS5KU9RvMx+bNRVT9s9NRPf6dkTG0PSY9WjNiJgSFikOBGIWQEQMmNL0uKkKAGMSxdv4yIpe//IxzOg/YlLW+bxyQs4KefyOGGhmMwbzZH792sY4iGPW+M9aDCQeFm9Sz5Anai9TdD74LP2EhOMRLbDZicMG0g7jCRj6UKrExqSpokGdAtS4M1uiRjFNjLkAl9uhCLacjc1nsdingZhbsrqp6VyIFjcY+mHvX4Y7O2KpYY6IShc+SHkYXkVpKM8OiLy1nigODqJmJiNeSxRKXTCmRezUFN4WTqXpuqvoXpuInKLP1WeqdhxSLqIyr/k7kzXVZN0tc+27VP5cKLSVYsqSKG0FyKypM4kHC10SQloTydUF9oaeBsDb3f8fEfT+4a3P1t07gfeZ0Ae93HDwpmXNII3RD6oHe7PGy9vOE9Ty/0XH3BOyvgRbwcfZLSPh3l7iVpEyt0wbC2FgYi5L2IeiJAharGUiFidE1EPFS8Y4NqhWLmnfTWY+miIUKAMEWZztBcaA8hW9qBbxKIRMmgYsbfMgtzt9cLe7rZMxc3Q6m+ENjLYEkHviOh2la/yGWci+zJe9EeBlNmfEdhxhCM3EnahriLhElaaZiKQJ8e5o62OVe4w1lbljNtyaYx1bKNtnVz2gmo7LKvelsXmHerPjkUy4qxGGRhXIuTQMhLWXieWNvUPsHz5tBff3GMLSQMnWe8frqOPIJO2Vxz0+Ymc+G4hA4/naR4nLMyHUwGD2AUdH1+k0Xxwu97zohHxe3rPv8bJwNuiWP/54ALEQcCkjcS0g1G0C/HTtoxtv1qGo8jWxfQS3OQlClekvuVjCcifXRiDJxa3MGWqdEbo+hnIQsbua+vynPlr4nh55IhiiP2U/Q3UBzkZjESMbPcGnBh03Irl/W8iHGvmngkjvnRDysoetC8/djt+tqoE37qeaYQYrxFWOq2wLKGYJhycFdlyj5v4E7fa72RrCVLdWJwsDLG6gmDNfrbq5NTGlphY2S2OLx0XZaNcM8eYBBKGC3784x+H//pf/2u4ffu2WdV+zA6PD9CfPn06XLhwIfzgBz8I3/rWt6wvOek/LlhIUvY4NGyejjDfV+5nv+5nW+NkUWw/F28r2hABtA+DjEG/O2Dwa6CLJ5B2ImVakCzNMIQARIptBXbbEKdlIz5WX8RilBVsbG4BiOKMRbsiYC7OG20RgVROLEBeWYgpK/2g9zB3I0ZK+umJ+/t9WXYqR1+Ku5s74d727uzxST+UtckcNvHYGpHbsctPXE4KsuLp1+yAaRnqwm5edto2V97pTufNO9LZPC6WvuqTOrhwdi08saqCCX7EdhxpO+tPR2JWdrLGZZXHo0McKZURNrFon2gl5/XGdFFL+fi4pOyUizZFrK1SnRBnd3c3/PSnPw3/7b/9N+MS4jq83tztfWZ9fd1I+Y/+6I+MR6iLmpQTUJ8kKSPeyA5v/LzhPS5u9FjSWNSk9TNxjZOBtwU4qN69/XzwjWWR7Skpw9KsYOLgTlu4w2iB/G0ftHnsR5Bdl5tRRJqZ40AglHi5PVR88bPZ1BDrnsQIVlauXVarvyJ7Uu7s7oWdvV7Ylez1B4oHuUK03JCLVnYshfLpDS0Obsrm9VC0kCd+iX5ievcLdpypXhqpj5tVTB25XsfVUAV53KX2OHR1yDZXLlO/I6LuiLiXuu2wLEJfXuqGFWS5K39X+kjuHZ0A1jrNcFrmrp/boF8j6ngg7CDXTsRhbaOyO/laean7BNezhQc2NzfDT37yk/AXf/EX4d69ezbV4WPZ4/nW+0VOyljKNSlnQH3SpOwN43HIz/W+L4DO8yIOZ2QajjmuPF6N+wvaodiurkMAetoGYS6SrcWVQJb0BGsxOTDomNu0GU0p1ewxlAjJAh2IDPuDvohnKbS7S+xAAsnHy23yNFJO0le+e3LIuA1bkk1ZuNtSbCsAEqZPb2xuhTv3NsLde5vhzsZm2CKOSJopioHI2C7pRf7WPxNBQFxV2K8PkgeESrmtvqirbOt15+J16nF7ve0w7O+mKwcRMQS8shROra6GU+sr4eyp9XDm9Fo4e/pUOCP3KY2/1ZVli3d+tRme1XBc5nBURISjsSqkbOjwJ4mtA6LPQVlAfpzo8jJvb2+Hu3fvhh/96EdGyltbW2FVZaT9qYM8PkJe6J2UffqiJuUMqB8UKbvObwKgy/flbvTsjw7g+dc4WXh70BY+wOgHfi8AIuZk6YLf2gkSTc1lLQ73iZXHI52IdYmvYWsWojKJonBI2yxXiLKtE3B7eond14+R724IGzt9ket2uCPPxrYstl2Rr8zkvYFIXWl3FXlLkfe0pZxYxNw87MnfUxymKHoyj9kP8Udj9qN+m8ipweoLO4NMwTHF7jc7NnwLcMb1ydwQy8cA/T+5ksO3DsXgR2VR2qw0RqzKuIPVLGt4qSPjxKxmrOeO/O3QlbRFbGeWmuHJ5RDWRdCry0si7vXwxNlT4Zy2Z083bFUGK06o0LFOfKzKaOo4W5jWzC+N4kqMfDwCyurigCsgZeaU/+qv/sr4w0/OTrJ5OoQ8T506ZaT8x3/8xzUpF4H6QZBynidpgOvd7/kgWMkbGxu2X/ZfzLvG/YW3GwLB0UZMO+H2u/T0AWRlZcX8sY0l8V9CmyFqX1ZOsIKCdmRKggGpfKJNl+Y6FURP3NXWpimUbEdJtkTIt+7thpt37oVL126Gqzduhxt3ZAHLTO4xFSFybbY7IvCxrOa+CFd9S/mz7K4lPWEsw5MjjGUZsx8EYiauP+zRHO6F5qivEkR4X9TPxG3H5foYyXRY+z31Ve/Lpk9hHsfSZO5JHkAkRZ2MVE/IUH1+RH3bOuy+ndCYjOek4acSiJvc1lrjcFpVeWZtWRb1qfDcMxfCC889HV585snwwjPrYVVhZkXrYFtDWePKp60a7zJfIst8PGrp6iPOg9PePtbYutvLy3hkyuLnP/95+Nu//dtw/fp1m2YkzPsLbk/r6SHlJ5980kj529/+tvWhmpQTUJ80KZfliZ8GBEWSBpSJsnF5hEw6e437Dm8vbw/q3oW2wzKGiLmjzmWpkzKw9pVVbKRB+9oNKGM+BTIBQftK3+yIIEWkCu4pqCfO2RMTX7q7Fy7f2RW5SrZ3w+b2TtiUe3u3H7ZlFUcZhF0lYLWEkSp5si/lNZ4sAcMrvcqvktg0CPPd0Y0uCzO3OHEAKfMIxhQpK4OOjB9z2e8kzB3KJMaaqgxTT0xTjK+tThxjnUTGWOo6SXAcdixsIeNUf9GSV4pk0VsOtEt/YFMZp9ZWwtrKUlhf7kra4dRSK1w4sxqelLz41BMm69Ktd0Wg5EfbsF9OlORF+0ny9nfghgsg4Q8++CD84he/CO+//364ePGiGVGcsB2e3setk/Kf/MmfmKVMmOef7+NRxkKSsoe7zs+U3ph5I3EzgeU2lI/LJW/cGvcf3gbeHt6OgDaDhGn/M2fO2GDDz+UogEiw7pgJbsoKM9YwEkLwQNRYZu3Qk2pLhumWeHBTpIu8c/lOePfy7XBXV0n37kk2dVIWOXNTjlUXzbYschEYVq9NlShPSA3hYY0lHpyw8sabeVjB8Qm7RN46HiuH0jbMMmQunDIpvazI5ojn4wTy4M+KHo/fT0q5xKjxZvZkCifpTKJn6s912XYsS5613Kr5WDxpraQKj24dAERsohTakhfY1Vltc3doc9pMbQRZ1sM+6551idHfDc9dOBNeeOps+MoXXg6vf/4z4SkR9PlTK7o+GUhGNi3Sak2viHxM06b0gTIwNi9duhR+/etfhzfeeMP8TDeSB+WiPhCvM07gTspYyiDvY48DWv+bkNxzgIQ5w125csXOcJAuoHJcclCxVPZzzz0XXn31VbOOcsuoLE2OPNw7Ut4YZTpOAljIbG2pkeD51HJ/BdAmPkC9jRmky8vL1v4IxIwfMvLBS2pbVYBwI80sMGnNzdN9rERuhntq0hvbIbx/fTP8+8Xr4VfvXQk/f/uj8PalW+HjWxs2b7zVG4q4Zcm2uqHVFYlImp0lm4pgJYN2kPKOTrMeefTarMtIduh5rBvSabcaoa1yMY3KdCrzqv7UW2PUD41hekBFxwyFY7HG6QJySjY1+ZGHHC3LS3kqQ3t0mXiUgfRsiU/dsZVPUWN6c5OHBqqOg/xYVjfWmYN57Vgu7Y+t75dTCnkpHnlzsrGbiJJWW1cu62dCS3Vjc/NjdiRS7CyHpdV1I/xtXVkw5fPBR1fC1Vv3wm2dCQfNpbCkNqT8XRWm2A/KxqgDPW0PKANgnBIPPiEt/cLaQcLVFf3lc5/7XHjhhRdm9uP7eNSxcKQMvIE8vg9kdKBIyljL/qAJ8HS13F/xdnJSRkfbuIXshOwWsrdjhNoPL5ao0plfBCHqCH0R7I7G76aa8+rGKFy8tR3eEgm/+cH18JuPboRfi5yv3dsJd3d6YWcwtvg8nt3sdM1CRsTIsYy2L8GmR9hLJCuIzW62sW8rg0hPpGNLzUR+kVApovohxJmmCOLjyJHMLe0E6RjsOGL9+PI23A3Kw/HLjXVOckqEFBFziXlMJOXDemjWbRvxuhA+yUipLW/2o62I1/hZW8h3efUUA0jEqGNQOq4kWktqn+U1mxba2NkL10TGFy9fD/d2dFWyJ6u4vaoT3anQGfd1hTH7TEDu9vHpW3QQLu3v8eAQLGWImTGLLreUi6Ts+eTbRx1q01SDBaB+ENMXRb83GvCTAn6Py82Ea9euGTFz4ijmXeP+wcmYkyEC8XISZrrCpyxof7eQ87bBpWFIZ4qDGjIRmDfe6Y/CjY3dcPXOdvjw+r3w/rW74dKdHZtD3h40TGzaQ+SGZWtTC5aj+g2D28gzWaDK1i1P9hD7Fqnj/Kj1Sek9nK0ikJPyIC5kQZ7RyrN+aQTrUy4oU77mJo25pluLYM4YL+nLkMedgZVL/6pnI2UUlN0KzjYeCxD/xrjEYX/Ra25qncwyuzq1IccYbx52xPBcITDXvLbckXTDhfWl8Psvr4evvhjnfJlmoN2QmPX0uKxOk5A345axCX8wjcHNv8uXL9u4ZSzTP4iDkO9TTz0V/vRP/zT83u/9nuVHvn5sjwNy02XhUWx4h+uAx6nl/gvWZLvDfGtsCy7/efpseRlLeT2saNuV9cpyLLMaoQYjOZGmCW5WNIiMJdvii1s74/DR7d3wzuW74RfvXQ2/fP+aLOMb4cNr90TUPZtbHreWZFR37Gk3e2GREYNyV/r4JB1L8lhap8gSphzsNaH2UiHmR7UzTvTKAwsbGWGlq/yQFJQ3HMW3qMVV01EGYjvEXpzU6iodwhxvEul5sZIJK0WUJ3sbjNOWPHJ9iZCuTB/ziOXQGcFOKFi6XjaW7Q11srHyKq6VEVEZA6LyQsf93Z0w6vdseobpiLbYl9HTV71xbBxP6K6G5srpsDVshyt3d8Ob710O//TG2+FH//5++Pm7l8LbH98Ml29v2VrvkcpAeqt8m9KJpfThSdtyk3VpedXI9vnnnw8vvvhiOH/+vE1ruMEFfEzTJ3I8ToQMFmr6Ij/z5iCNDd5krRDH88Iyp5xcCiHEIW4t918gZG7+YElyWd3tLomIV8O5J86HJ86c06DviNZk1aY2n3kRjwZuq4G9qrEsMsH6vbUbwrvXd8NPf3sjvPHBrfDmx/fC9e1x6DdXjCzask67zXHojHqhA31xs05WcSNNLUChTDnENbtR7B0Xog3eiCbq1Tb2Q14SqkMwMvF1xy52siA/Iig/mwKQw9Yv9yEdjkHxmMpQf2ffNt+cTjZxfjnlB01qG6mT49b+zR/t1GmYi4eXiOVHOuoyWlSREhHKrf1rf0aQVpZIkljA/tIhS2snUaWR31bAcKKifqTuWH1Rdo6J+Coz400nvzv9Rvjw7jBc3hiEu3vjsH76iXBmXZauCtMc68THDVBt9WP1Rgn9RNTgBKB4PF149uxZm77gph98wRimP9Eu8AXTHa+88ooROED/OGFhLGUnWZccRTJAHFVpapwArB0iSUC8WMWQMrKky15ItCHCjdfTAm2EU8QYJaoHGv/3tofhoxuykC/dCb/88GZ46/JG+PBWL9zcZj2yLNoG74No2ysnl0Lf5jd5w5m9sS0RopGedhcfQeauPlY0L8R3CuTkjmCdQ1qReHQmV/qM8CTR+Fdfk6lnLyJSHJubxULluLEKk2VoFjnERzkgMuXrMk+6UYx4S8LicZTr4xF4OWPdI/EEkB9PLIuVjfXUCFcM5K0D49DiUjqOIT4kwpRFpwkxs790TOQncEXSaHfD1e1m+OW1fvjJB7fDT357Lbx96Xa4fHdsKzqoJy9PLAMrNKRHpTax4SlhSuull14yaxnSxV80pKr8jwsWhpSLyEk2b5Ai+eakXMvJCldO21vxpg3+5aUlG2R+daSrdO632WCMP5kQKKLty2LdHTXCzbtb4Z33PgzvfXAx3Lh1x56w47Fc5huxpBC/EmKahIc4eOMbW+08zvEyDZEu9ftjltJ1Qq+5HPaaq2FXsh2Ww71RN2wMW3Htsqw061pKz5QAebBio9XhfRFd80PGHOdwoJLK2luzm5bY99UgzyoSmernww9OUwGFl+Rm+qMDIkzODJD58vKSPbJNvV+7cSv87Fe/Dv/28zfDR9fvhE1eLtVaCaG9rCxka6t+bZWFiNkfCATed5i++OIXv2jz04B29XsTTsLEw0/9H1gHjxAWhpQP0yFpJAd6D/NpD2/wWk5GGDwMPDWEWabLIqz19TW74WeguehhiYcj3KNBLFLeGrTCjXu7Gti3w28vXgofX71h76dgyRZvTmM/fV5Mz8BMgxWwkVdb5TWZYxUZyDLnkeueiH5v1JS0ApMdvcaSCHol9FqrYSCihryZTOCsQVoMPRPLHYKGeOMx2pIykQOrMmytLub4vohlrEJVXy/DgXEVXhpDyoP3Mh9jv935y4/6IuVbdzbCW+9dDG/85r3w9sXr4dLt7bChthw0RNpqV+bGAVcD9IbJuZmt2pQbwZ/5zGfC008/bTf3OJFT107ILiB3Pw5YGFLOQaMdFsSFEJyUa5wcqG/qnc80sZRpdTUuhWOueWa8T5oFh0RhWLM8E3drdxx+e/lWeOfilfDh5Rvh1r0tDWjFEcEyELkEHnLprUS+ztcui5WWR6EhZBcu7Hl4hMeisYR3+8Ow0x/bK0IHoRvG7bXQWjkT2qunQ7u7rHLGm4WsXOBxbV5AZG+IE+nEd15IaYQA+8dpA6Y12DpRHIYsjhI3x4HxyTM5p0hlTr55xHCLUx1pihQXcOxMBEHK93b2wqWb98JbF6+Fn7190W7IXtschi3VTp8bi+0l1W/X5vW5wWrrvDPQTyBkv/FXnMZwgqaP+eqdxwUL+/AI8E6Z64pxKJOvUSY+DYilVssJiOq6qy130bk5c/bsE2b1AKzO2FbyTJpLdMYYlwsrlhtHF2/uhV+/93H47aXr4crtrbAnsm4tr9taYyxZa1ezUnmQQ/nZ/KkGrZEwSyMZrGmGlbz1Y/1GJGoPWqhPEkARbO2xMsJG5ssllAQ90Y0QENJLB7h5ydyz3fCTtsM8tcjBTgrkewhY0kPA+7qj6J/HtJwzkLI6JXWTnKUoBk73YU2ouqZcA10dMe6YxuBlTqyu4JTVXV4Nne6qxnxT/YObrDKUuPFo89PKS+l97GJI0YeYlqLuWdrK+zHoSxD0yy+/HJ599lkjY+LmY/5Rx0KtU6YBEPeTBvhZMvd7XpwseCERxGyX0jVODFChiaxaBs65cxfsstTmejVY48t+aCv6jMammp12xX23F8IHG43w7x9eDz95483w8bVbYaOndu9oYK+dFem2Ql8JmDbghlR8Yxn38VlJMQ49uewpPvpEsmLpjbb0Tg5bGoeVrbKwX272sXwO641+Q7gSEmAb62/0OzuueGxmIdNv04mA9xdHUo5xHdE59TvIswyuPyg8h2nQ65+ylMUozy6mSa55ZIlmwkv2Yd/s0zbeJKROmKQY2oqYp59YD6+98mL43c+/GL72hefDM6dC4Dm+5kDXQ71tXdW01bYrqu5IsBwjAsfcvHnTXlr0D//wD+pD54w3vve974Wvf/3rdgXmht3jgoUlZYCVBJyU83Tkg579+YuInKxrnAyMBKNTnvgu3JWVVesHPIxgT6FpEEJmRJZKbUh7hnBVl7o/+WhLl71Xw1vvvhdub+wEvtkXeEx6aVU02LQpBCNcybC3Fwa9ndBtx88h9WRp97ihhBUm0oaou7KEV5Y7YaUrC17xeFwaK5uvffR6fCdO1p38PXUrbi4y9zyIjG0nEOaRec8FpEPfcwuZ4nOzCj3lSaeieNxCsT+DqCrTR11ZGnCgnm1ZFOnL1eX5RTDuknMG83pyt5OR3D7lQx3ZSXPYs5cXPXtuXYT8Uvg/fed3w8tPtcMp1VmX7x4OdpRa7dlkfXn8ujXlQhi/yF/+5V8aMXOlxas7v/vd74avfe1rRspY1I8TFo6U8zg+JVEkW3T40WMhUy670aRLnzxejfsLCJmVbbH9NACXurZyIc4Di0jRi7yYc4aIJ6Tc4l0WvfCXb3wUfnXxerh9d8PmgBs84GAPYUCQWNnMTSsP5be7vRm2Nzfim81Wl0WsanteyCxCaIiYl9shrOmS+fzZtXDhjOTsqXB6bcXIdKg+cufObVsXe+uWttv9cGvQDZu86H5XJruIoqMTQWdpWccQVxfs6SSgA9ER8qUPXY4ro2G/J8u7F28qTk9Hc6A+chzkdxwqHroZdaz7KabhM+oJDghXZjP6lDm/XHmAzrIs3lYn7NoNWFbDqArH/dAe7oTXX34u/Kc/+U740kvnwoWlUVhv9rmmUV2GsMOTmOoLbvn6lS/H+dd//dfh7//+742wObl///vfD9/4xjceu/lksJBzyh7HO2VRD/I47Nfnkv2mXy0nICKnVpq64EsYzNeqYWK7aOPTAfYYtILM8JWf7eXbu+FH71wOF29spCfJZD0pkqjZ0pELg52n/7DGRrKG0dk+5GJekxexn1nthqeeOBU+8/S58LnnnwyvPHsufPapM+HFJ0+H559YDc+cXglPneqGc6vtcGGtE86vd+y1la1lGQtYe33IN1rAtr45WXFMvwAOx5580zH6O4yNkLO+mCN12QmK/ip4X3cU/ZUoRpO/OmWRwIsoEPKMn4y5BasrB96+p3a3DwEQJDdTPf29XV3FNMPZ9dWwpquV0ytd+9Ar51bqmqsff4cHx+djmr6E0YdBB39gaDGnzA1AH+e+fRywkKRMIwHyIx1+D0O8w7rb43g619VyfwUrGbH3T4jMjEWlULNo6ySs9mRUym9ELa7rqxt9fHNLpHwlXL6zbfO8mM98O8/mKi2y9iGy5PNPA3ssuGnrZLmE5jt6w93t0OhthReffiK89vLz4atf+Ez4+mtPh1efPxs+8+Sp8PT6cnhiuRnOrbXC+bVuePrsSnjhwpnwmWfOhfPnzoXW6ikrW0/5YAH3ZRlrj+pDIl/tgx5mh6GDsb4lD49uQ8oWwlmmAOokR9FfRFX4vukUVB5OmyTnDKr0szhM2ScP2KiOqDumfmz2h4pSnTHHzBOBPNW3InJ+5skndGXTkU4RVIctWdcAjvB6BewLHVzB1Qw3/OAPlsx5uI/9xwHzPWtBkDeAd5Bio3hjuXXsulpOUGBZmsfbJo1l2sW/1mzsZkqWq4Wwsbln38Nj+Zl9conBrUHpc7Y88suTeswjY8ny4Ab58Rg3hAB5X5AF/OWXLoTXXjgfvvDc2fDZJ5fCC2dCeEYG8IWVEM4uN8KZpUY41WmE1W7TXqpzyr64sR6eufBEePWFp8MXP/Ns+PwLT9l7hE8tt+1LG30j6Wg9c0j2Xg8dZyxfNBLKUFRXRJugOp99EiqoMrQ0gDZKzn1RjFSVSHq1z0jGGRIfmxfJ6qqFExYnNJbLXb56PXx85Vq4dW87bO2NbP6fh7exkoEbWz6ecTOXzPI4pjs93FEc9486FoqU9+2QAo2DEM/j4s9JucbJgTaYGUBsaRv7g9DilAZjyltWY9Y+UoqwnIpArsCwiG2VhS5yZWTZC4SGvV0jSLNOlYdb1NwAfEkW7/d+95Xw9c89HT7/9KnwzGoI68p/VTvqiDg6jX5oNckfYe8IUyM8mdYNn3l2Kbz22WfDa6+8ED773IXwxKmV0G3pBLG3HQbaL/PituJCrMOlOWVknpxs/Fi8H8bjd23U5/4c0/jzKNOj8jT8zefrYUWgT84yeJ4mSScU/TMgAFIe9k2wl/lgwEBthNDW1NH1GzfD5Ws3wo0798LdbV6v2gh91btn6/t14OaqmnXLbHMDi/GN/3Ei5oVkMiffKniYN+xB8WvcHzDNYPPFXMrTFGqPopVTBDNgd+9uSO6Z9emvnGy2GrbuOVpeexr7uhRuN+2jn6yF5lt0d+6RZhRW12TtnjsdvvDs2fDC2eVwXpbxKRnkHSuDdsBLcWT1yiazMrFhTXOfOWT20Y7fojt3KoSXnn1SpPx0eOFpEfPpNXvYwS7R7RjicXA83PwDtkpD5d3nED9lHGdH+xCrQeHJdWgoAUPMqFXEzLcAR3xLUVtuhCL4ezqhcQLjSzAXP74Srt68Y69j1b+1HXVZdvMOw4p7QpAyLyzyF+M/jlhIUt4PRfK1Af2YnUkXBVyO8tIfvyxlwE1J2WUWTD1ArndEyhAdbcc0B6/8hIAhZW4YYTXzySLep8E35ViDfvPmLbs8PqVL3aefOBU+e0HW1Xo7nG6LGGQZB76bByGnaRAVxjb9UcOIoae8ByJj3pGkTTilcf/C08vhM88/E14UMV84e8a+/hxX8MWycygck70KlJMQx2t9bf7YDsJ+J6siiHqU+FMcQMgKPHq2JODoRRjUjdWtSJmT57AXlrst+4r2oLcXers7yn8Utrd3wgcffWwfsOW1rEPqXidhAPlCzEVQr5AyS+J4GOlxxcKRsg9spEi4hHlHRYfkuhonC7VUGMoyha5YncbqCXsLGW1CGyZqY/hxu5dtXxbs5V4nfNxbCrsjkbri86QcD31Mng5rLYVhcynsBT6YyktpRqE97oX1sB1ePtsK3/ns2fDShbXJEjzei8yyNntvsNIFpfctHxnltZH6t3cwUA6FmDDs15TsyTMr4XMvPhsuiOiHezuy1Ht2olAHs5Ug9iSa9mFfuNaQifR0DKR+zG9RqKgyfVEOBuMiOcugMOaCbYeHFtJoLKoGm+NlaXhftPZjJ9OG2oarFFnL7RU1wVrY7ayE6/1RePv6rfCBLOV7u+PQNz6OYxbkY5Yx7uOYp/lYSoulbPP4WbzHBQtHyqCKlHO964A3aI2TBY8gD2SZ9lX3WKFjrF5ImdULsmjVVDakecl8GO3IOh3Jah2GS/3l8NFgNeyOIWORdTtOCdh7JzR4Rxrcg9aySLsd9uTn4Y+uSPlcay988Xw7fO9VkfL5VZuGwOQVt4e+0kdpSmS1iUCHEpny+hfxN8eypkfKZyQCGdrL7pdU7hXt//ypEF558XR48uy6rPTtOD9q/Y4HWJQ/66Z57LvR1gmIE83xrsxIMUlFxWRi+oJfNVmqPxgp3RzIJAFiLortoEIE2cM68hW1YtfqtmEP6OiEp/Zui5SXRcitldNhR9urg3F46+bt8MGtu+HuTmxXn6ry8YrgZ4wDxjY3/CBlLOWalGvUOCo0oBhUPn0ReUo/zggaT3FM8RM9DDKWUUF2FiQwGLnkJZnlR0YSLFKIPc5FEhjC8spSeOLsGZvS8AxIRwksPYoE0uQy3aEYQsQ7GuwZ3/By964Ifn1tLVw4fz6sr66apW9L4LQlTy63kThdE4nlODhyqmPtRvWcXPM4RoYpyTTXQh6TCgaqLdpOQtv1B4Owu7enrQelPiMpAh1zyyyNK5t3flxQk3KNY0NDywjKBlnSTR0FZCTmJAxQ24t/EvmZpW35xYyMxGWJ2bsmZGktLS2HU6fbGrgKl94XV1haCVsz7Mgeiz2ljXuf5sn8J9MUcYWFSFdG9fraanj6qQuB14/aU4my9uPNyPimspZZhtGqPw6MyGNBDgXiHyF6gtLsk4igY+VqZY+pqcZYBexrVkCsH06q8YTKQyEDnmlPYbkATwcJ+w0/X1HlcR4n1KRc49hgwMSBkxQJcUjq1/UMujTwGID+GDYaG7jyGymnJDFZDIVQCRO3SpRrqxNYGcd9IpZj2SehFM+FG3iIf3bK2Jn0Rs7kGKcleFczqzvip6mUnxFzfHKP/bM2mhMH5EDBYjlE5nZCId9yFMPwu+yPQnhF/Fk1+SbnJwF5WD4pM/cX9Nqb9sfJM/oB+/e6seOUzqcp8PC+ke2tHSPmLNkMSOckDSH7+y5qUq5R44hgwMS516SYQIr4H8HIZUAyaCUQcpySYBogWlORlEXyEhv0xLUkTsraKsReaKOMkQZmspnEQ0Wciih0QtJ20zFJJGWBuWZj9UjAkDg3AXk1KDceSc/DEcSGlE2jMmA1x7JaLnNgHzmK/irE8iWPYP7kLkOMP5umEpO4UaSI+gIUOhMS/f6XIEKmFbgUmba5wo2Q08lK/9QXtwVJyaqZ7e1tkXLPYhdJdlquGAYZc5PPpy9qUq5R4whgvESrKCkc6PnBOQmLA48BCLlBcmgQc0uij0EOuYqCEdJrH1CszUWLyKFLYkdIqXgTsRBEeqWFZLnRxwDnrqKSx0JZxjEtewUDWcdbmxuhJ6uOaRmsZr62QZyeSIX3bdjSONvPLJxYHEX/DCyIH5cMpekq4k4wDZ9NDi3uA0/msYr+Aiy3tANfwWFkrPqekDJxVLdGprTVYBi2kqXMtw7LkJMyZIylbFcojylqUq5xbDCIbE45+WfgvGfu5NDgm0xHFEgZvT2wweCeIWn2YTavSDm+b0EXwvFFOOzEMtEP8SFztjb4U3rtG0KOc9Upelbi6bQGl9rRqutpSxqIgafUII1+X6Qs65lXgcaPhE5xJELWnuyPfSZxkG4+ZTFuMUZ5Xnhm/I6Cjj3OJCv4pyA/wlSvE0s5xU6EHGXa3LTPoD+0Nct7uz0L3w9uKUPKkPPjipqUa3xCTAmuDHmoDVoIOAljFILkTn0E0xmQNqsesJalEZnywAZrhPnO853NnfDRlRDubhE9kjUczM1Cbszx5jgxAXMiRhaWyeQ3wjjVFlY37VWh3IPaUpLd3sBWhZAvb0KDJMjXThAqF9MqCLlNSSjPmWizfmApPH5UFSBtSbqoT86EGI2fKKXJ0CdXhMdPmHiTruh3uF4y2a8cVgdUn1vIBBmSyy5H4tQD7ewfoCgvq7KasridCH0+2VFWp48yalKucWJgaDHAJqSM0gakizQa5Pbi9ESoTI/YW+ZEyswU39vcFinfDnc39+wBBnRsmdogzzjvO4ClI/sWBjQ+co7TIMpTI4C10Hc3Q9jcUZ5Gytz5580OisdUi8rC5fqUlMtRSR65HmchGsHzKSPhzutT/CRzkHJGn/xRIOv8j3CLNet3sY2H6NfSU0Egjxgj+35oS7uKUttwPuMDA/aYegzcF5ByvhzucSNkUJNyjWPDhosN1AMA8dogjWni4I6woasBiEVMqA1CSZzKSERIWpEzxHxvaztcvHQl3N7cDTJuw0BpR+1uaHSWQ7MrMQuX9/uSXSR2hNwnkGfcXgqjVsfmp+9sjcO7H1wJl6/fthfn84AI7wru6dKbqQzA+zeYn7YbiZbvLHLysD3K71KOWK5Y0CLQJ6chxZ1VlqDYFkV/AZPA5JiLXFTgn0psq9iG1saplu2QdNKzNpPOpogKUz6O2LZRHNYfkr8Y9jigJuUax8e+pFMAAysbXEZYOEytQYjDBjlrLGxUJ0kDU4TM55o2tnfDpSvXws27W2GTKQfx40BJRy3lATmLaInLviJpRGHPvndyZfaCpxB3lP6G8vrtR5fDlRuJlMdNe0dHX2ZzfBERH01txndiTIh+irk6KPpnwHFTbzHafMwUlnwTf5I8ZBYx3gTyzPgd6Fxsw98U0e9/ppjEdU8MmSitrq39hOk+U5vRDqqySXuXICfdx5GEi6hJucaxYUMzG/y25ac4+tIg43d2wMnN9ITfhEsZcWPP4pGVBCMLXVvW6p4uhW/evmsvunn/8ka4dnsQNnbjFITRZ1OkzFN3EH3J4EbDXrCQN3shXLo5Ch9evRUuXrlp5GyPdYtEIGSz7lI50sEl6sHLcUc5CESZxE+6chAxOQ3Tui0HgVFm4h24H8cBsbLg6XHmVx3Ssc5bikldS+Vx+TJNUydSf5MgMQiL9xNiHNK5FDHd5+OFmpRrHB8aNAwcxg7Dx4YQ/uiaBYOOwZe8E7/JlECJwTQB65XJ0f6UJ3F4+RAW7L2NTSPltz+4FD66fjvc2uiHbd4iSQqSYSmLxMm/DMw/byvy9Xvj8N7HV8MHl66J3DfCxk7f5pq5ochKD+gnlgsiYeaap//QxXwOj6w+SqomguOcDcZfjRQ/yRTUWDUIszq1vwwViWZictwmHjluc1K12BRIXqYh4lREbF9ix/6S4iR42hwensd7XFCTco1jYzrI2EpkWdogcinCBvR0AEZXJDkfmGx4IMVu9OBRPlhWuPkAK8YrqyQ+unwtvPHmW+Ht335gbr6GbdYyu1ae0Z6zjC3fHHwr9dqtQXjn/Y/CT954U9uLoSfLuMF8dKtjqz34Vh83GFsieFZf8DpRcl3utu3TVGWIh11y3AfCCn0oxOxjnR8N+yRIQco1Og6FLK7qOCfWWDZ0akeEkyRtoQDqxy3l/erK4z2OWDhS9sbKG44G90bPwxwer8bx4PWby2EAWQ1Yu5sGT2oh+1UmcTsD5W2DlV+BNhvTlsmJlnQp3GwrDyS6uutIg5xVE7c2d8P7V26Fdz++Ed66eDW889GN8N7ljXDxxna4cm8v3Noehbu9RtiQyBtubA3C1bu98PHNnfDelTvhNx9ek1wNb390LVy5tRF2Bw17G1ycTpFVLos4Wuxx/04Qk6mVIqyIsZwzKFEdNlolKiNXBSS9joMbqBxSLtOwon6qiz7TmCPq9SPhbyQF76m2JiSWzp4N6owopoyWco2DsVCk7OTKsiYGO8JgYBAwUPIwtj44iOODpsbREC8vE1FmUqXPhXbY45t2w77NKyIKMeLCQmLMYtnG0ZgGpgTiM4wGMm35tBDf6lMbMm2AqClZhtYcD1m0FtoNEbfC7Zt+DVmwy6fCoHMqbDXXw/u3e+FH71wNf/vTd8L//o+/Cv/Hz94L//TWtfCLK7vhnbvN8O69dvjN7RB+9tFW+J9vXQ3/7afvhb/80Tvh7954P/zi4u1wd7gU9lprYXfUsnf+0segD/bJ/hsqI8fF1Anl2xvw/guYpiBQj20KepNMX0pN1GdyHgCLpx2VvxMZVOkjIpkWBAKd00undsh1TOAMaLuRTlhqupbqi7RD1Uy/OQzDltqpOQotpW2yZnyvr+aN79sequD0GTvh6QrE+1cVPO5+cR5VqO6tp8wB9a1bt8Lf/d3fhZ/97Gf2CXC+bg2oKBdAXMQG6d5e+OY3vxl++MMf2ntR+RAicHJFirv09O52kiUuDehfxM6JmgZDj5vF6aTz8tQ4PLxNchTbx1HUj3hpj0h16dQTYWl1JbRpg1GPTBXaCj2j1BCWbfGaRnBzKfzy8nb4f//NO+HH790IyxrEnUKTTfcgV7Y7rLHcH8PVV7R/Pkm03A72gdQLZ0+F82dPhwvnnginTq3bFERfbHv33r1w++69cOv23XBnazfc2RXJc7dvNtMJquoA2BN9peH04+TMIWV1bo75tOVlmF4lzuWavKV7Q6V00bqNqhxl+4qqqZ6TEr7mmEWDrCWXiK3HusIYMc3TbOtkqvEtg6k52Aut3k546alz4fXPfzb8/msvhu+//nxYX4lftK5RjYUjZVAkZZ7wAeSPhUxcSJlF5uh2d3eNmHEX866xP6rqq0xf1PHpJBOR8vJaTsqypiS9cQkpX9oO/6+/fTv85Lci5fa4gpT1W9i9EU2mYxrDXj4vUsaa5Xk/voex3Gnap4mW7S1wcWkcqyj2ZLn1euqf/b5Zu3z2k5t5Vdi3XggqDacfJ6chxi2LOYtiuojyNqBGRczRO4uktLrK4V7ld1hSLtt3Tcong4UiZc+PuB7HyZcw8icM4Iew2d/W1paVDXL28BqHQ7EtHGVtVMSp9dVwZn1NpHyunJSxlJWsjJR/LFJeyUh5mrtc2a6q9INmx6YyGqyKgCSMnCNBN0QWzFVPH/JQn1M/itMmIhZtTaQvw4F1wrYsivQz6qK/FPT95JxBmT6OE10fJH+GSdy0z0JatDYNQYOUID/mmH4+Xikp8ydChpRHImWSjYeKWZPysbGQpJyHo4N82bqV7PHY8gKZu3fvhs3NTSPnmpSPBq/LHMX2AWW680+cNVk+jaW8OkfKZo0q3jIfM81I+f/5N7KU37seVmTIyrA1xNz1W9gNgz45ZtBrdsOgsWQEbCTMNIZImXdfMKXB15aNmBXX5rhbHVtRgUijoNiXiijqyuJIOVcedFMV/Tk5SzFNXxptJq8pYlmwkguhk7wmjoTocG8ZKcdyTnWlx5swT8oykgioSflTRRoSiwWsY5/kL5IGfg8HEDVTF7UcXXhJDMLJFCn6c31Rh9hJkmFaPY5LbFEiT0mL9JFMZvNJmogU5HFjfBBdWLzR+hUp8ERfqxsabRG2JLjwUiMus22eW/FjBjM4FCGXQfFmYu6bTHEVTpTyaIW8JqjIdKJOjsnG6+YgTGPsF3eSl0fimJNiki6rBw8z5O4aB2LhSNmJuEjIDBDXOWGjgxicTPDXcjRx5O4c++knknSHRZ7WErvMICkn+uRIaqYmmkjS87AJr9nk/kN3eSUsr66FlbV1kyX5W3yuRMRNf4lXXJZsAitLhqJ/Dlb24vEX/Y4YN8ZPqjIUwydpKtIlHXs0Z+YvhdSExPyiOMxdspNJvJjQ8o5/GTzc3Hijh1+P68E1DsZCWspOvi45ino6AFZbPtdcy+EF+CAq4iC9DTjcFfHKYDH5KaQxlYkP46hwnfsdzCU3h7uhOeqF9rhvn4XiayS8nwKJM8aSNLccCTzayUVbuXicVcftsENmG71TVCSrjD+DyVEmRH+ZbjYgOYp+4PGSlOUI5jURldWQ65ObvKPTA7XFaV7X1TgMFpKUgRNGGYqEEi2fuCKjlsNLXsfUX1H20xvkNF3yzqGiCUmRcrffKcgwbqZByTHxR3BTrznYCW0Rc2fc46P3trbYCHc0CONBLwx7u5KdMJIE5jhF3h0j70jYc8cjFP0Oj1sensKSb4qq+AlZnnm0ot9hOolCs7+oi5vkLyCLOQcrX8nOYrnL00wxn+tBKWocjIUl5dgpImInjbIfDgqvUY6qettPP5HKNbs6cfI7+UkgqiUhPc74F5UWwxA1SVGi52ZTS1ZyS+Tckhu/PezhN/4mEqc4+DAqNxWXZE53ZEqXnS/2O95ZFPzlyar1hsnRFXBQZoXwiTc52LjYZhIhIvMWQiYoqwbysbw8UNv5aiE8bfIw3Lm/xr5YSFLOB0FxQMTBHMWRW81MY9RyePF6zOvV5dB60xwepIjplJLELjNIijK9/pmSsGkLSVMSl8PFJXGQMZYwnduexoOQRcRLYmakKyleiflxOfLjK0MePh+jqM/iTiQFZSjqD4rvO1BodM74J9op5EXjeZZlavos3TQunrRBZ6FVmA3dP26NIhaKlL0D5OLIdTmZMLj8UjyPU8vhxevxOFAONE7lwJvPdbrPMhAyyS2LNqMX7MaeT8FIzTf+hrLaeUSbh0J4XJuHS7CT8fMqTh7T3tnbC3xZmT7k2K88c1DU/aMTITkNHG9y7otDRYog6iT6Puk8XpJYf0g5iuWc9Velm7ZK3E7jEVIMrXEwFs5SzskiF0dRx6D0dczociuwlv0lr1dAHbo4cl1Rb1AWag13TqHgaewE4nokHDMJHEk5F5biJz1fKvF2ZwYFMuZbewO54+s3WSMdb+vh31Pg9m4/bG7vastnn+J9iGIdlMGKmuLGY61KQ5w8NPoPQsw7eQ5AzD//OxgzMSsSxHqYBhb9+8LKr7jxPyH3TLU1DsZCTl+A2FFnG9P9eRiDMr9xVcvhBXhd5uKEfSh9PuAOHHsxfkw3C/wTbSHL+dg8jAQJj+2F9JN3IEt44HowRpIbcm60Ax9IDaxhTl8n2a/rU76jQ2mOk6wyUZl+nx2koPKa3R/HOlzHTNqSjD5J3o8pFn76AslRDINcsJhqUj6eUIe59ezEW9SV6fHrh/9DIMWrjJsC5sKlKEk3VGa8w6KXSBkSdut42Ihk3E/EPBIpQ8jBvuO3GpqdJXvKrwx2TEdGPLajpmRfZbsr17uuLIFvSsIOQDzeo6cD7O94KWvsh4V7IZHnmSPfD8jjsD/KxSPWPGrNfh4lFOuqCOqCE5IiSnTsEntpjaVDVFfUlz3xxjqElrbRTzjrdy1dCcr2nevOnjptsrp+OqysrU5XPdg7PJW/yHEoJ684J92OPL/5+Hb4//z3n4U33r8Rht21MG7FNwBG0A+Sc4IyHbvpq9h9O7a4wC2+azm62V+MNw21qMkK0ckly3RCLYX9VOlb+muK8HnlqPXrFIH4HCc+hFptyGBod7ryN0Jf42Msie/noJ1INYvq9iZvNvopjZPCZxDLEn+oC6EkbVTN6svKwZUIWk51rHTxd1/wmLU9LWlz+KqNoX5ZgjjYCS8+dS58+dXPhj/48gvhj77yXFhfbitF7G+UR71Xoh5iL2MW5ndrEXXeTamOjrifDNrHjH8Cdu4FSG46Tew9KE8EC/fuC8/zqOAdGBsbG7Zm+WFD1TF7PZXVl4OXNSFjVh2IJHing22dbCFsDRYGjb3FS5fxZjkaKSt9YPXCtLsX9+Uo068vrYVTy+thaaktC1SWqO+T5Q5GzIiGsDa8/WKrF8IHl26E//E//zm8+dGNcKvzZNhtrsbMEmwv2b6KfsfISMHevWmIUebjlevVBwtVHqOVpLefqV49NHQb3dAZd0K/txcGfdVfk74b+/hQx09t8mFWbjI2u92wvLpuZLW1uxdGe7v2TggefkmUOQupSvVAanvLW+H9FaD6+Od1ZdivjwF8Q7UlxxaXIKalh5TW+1ciZTOMRMqsI3/x6XPhS0bKz4mUxQdLEDvvzqAukY5qqaP6oP9YdlG8fVLEkbrUtLWPBqdU3v3hmHGnre2Yl0jHFjSNobH/dNenjUeGlHnMmvc5FPN+VDE5TrNIVWeQoeqYJ9s0PEwFL2IjYhkz92rfneOlMenjoraCgQEmG8hRXX3zAV1ZuUuSNiSMeGdm5zSj9sfiNIagEbOyuL0xCO+892G4fXdDhMU0Ai8IKkPcX1VxsNLygVNe7qrUKYRygpLEpsn07iJFCyIZ6yrAXn4k+1GHHusaGzBS6kh52woQaldtdHdjK1y6ciVcvrUVrtwbhV1VRoxZgFRVemAvFCorr6lm9VE1H7eI0rSFdPiKpBzXgSskWcr7kvKXPhN+8PpLYX2FfuJtR2xZyrKSo7UsFWBrTUM8TufEhRi55jo6xhoTQyNb8YudjbW1HbjkrhJUBtwfPDKkDD5J2kXGfsfFqgP7EgY9WcTcbcmSE0E27VljBoC2CuoPhrYsjJf28HKeVlvDQUF0c2IdB1aqtOsIOTITZDRUn5DX5nu1M3bNMNtUN2qrzE92sTIZLMfAxKK5Tyj00amfo061xlUJBERd00b2GrYUh5Ol4gx0Ntzc6YWPL18J//6b34Q3Lt4LP7nWDLf3LOI8lEUlWTNG2EWxbEJUTfXFMVaFqnhFPb45UubqDByClL/7pc+FH3z5BV1ZKb4OPc9djJBcuL1d+8pPEno6XuU6WpEaYj4G1Mf6LfJUH7RpknQSoCDW+/FHX2mrlCrvH447Hmt8imAAFMXhhOwnLMRXmyBMXfAFFmRpaUl+dVzImCwYHOSlLLgZyst6Oh1tRSI0fGUnrIKyIruJoFIG9qJz0e1wxIuh9nRugHoVil6Dd2iPPPNgB9MlIax1Q1juavg15BgvlQj6goyKongjjfA5kX44L2OTronFC0yb7CMNGRNlwnRLczmMW8qvvRLGHUlTbl3ijlXOsco/DsuilRV7tehAcZorZyTnxClnwrCl+CKvOVhluiNtcnF9JabhWffZF1Xx8v53HJSml2pyvsatzVTo19rSQZLQp2IIU23q059Iuurvy8pL7S53w3RqA04kjATrw+oW2qMLe3c5adSkvADIydg7NNuckH3rq0yclCPZNkNXZNvtyAL2tbuKnz8CTdyOCLwjK5pHji3H1ONwF8XSFYUETJMk4WKdv2FjGAb664uUe7qkH2JF2aCKwnw3N+YYbxoOYVnjYUkO5l37Gg1F6Y2a8yILZ09bl96oJV17XmRN7Y3nxfQic6Q34gsZdP0jSBrEWMl91eWe6phtX1cdvaby1pHtIuxPcXocm2JzjMYBy2fDqH1Kfk4I5DkP1ZTVmCP6/a8csWmmodFdFTuGu5TFy/OagUUvC5vVuW8+ZtR4/6J7uDv+AOL40aKkntpy6cRKz7F7IccQpWXuGoI3kp9cH2of+o97lchNe7k/J+eTRHnveEiRd7iHRbjUy7cufjwOiLZMmNfjjj6X0lwG8kFN9EbezE8ALGZuLHED0ESkSRq22T5yzOwjw6xeZU1d1/aFBQ7jp/2ia7dbYXmpG1YkXYLYHYa0dm9DTj+5MDXNV5zKROediZiukNakEC+Pn7tnj2oWVEmV2EzREEesb2VlLzhq68A6LQlloCqkdzEaIL7qnht8lpEDp3mTruifw1QfXZm/KknCweHlESb9MfudboU83PPQ1vty1OjYG6yWkdNlBp6f+q1Org1dcTTGrOg5pbrWFYpqEdI8lpCruikzGAh90MT25qI+rL7MnYDQ0BjJJOZwcqA8jwwmneAhEi93vq1CTogTIY1Zoeo8WKh0IHVEExGzgThm3YqYIX+IgfgS5usszT6i3UyyzEVHoL+0T4F57IbNr0YN5eNRaCz45W7bSJPB0NAJAYKidHafMhOKXCliuImUhe8juoCYCH4ro8pSJiAeW+FPgaxqYdWHLcfjnRsiG1shrcsAJ2eqQLtJgz0KpNyEmDlBKi/+TWzDnzkME78jiwsmfccLK0RnFinB41r8knBHDJ9iNh0p01abqDevAafFy5U5iK96GusaYnrjLoOnRbw76kooDFVzdC/p2PTlPY7Y3vhJYjMk2gcSyXlKyC5mNZiQiAKdHFTkRwdzhPUQCPCpiMNIno6tVMnyU+fhk0gDBIK2nPUPC8lWS2KrLpB21z6NZFml6Yh9xTrqrIyHvdDvbcsQ72lPrDMQ+VA+7Txa0Ek4WYjI2EJgS7IouyrWWCOCVRm59PcRpgRc8BfTHkVGDFaVoUrGYtZy4Uh5x8Yok6EMZ9VHIiVlH6FDt/Mfh6+fDlcOSj8JN6QBPxn3BQIoeOf8QtztfEAqzoHwcjuK/irQymVRS9PzEV3m9QcddR1V/rQbpUZRZfVF2v1tNfBW3PbVZ+BwbdRl7IrjONKi/3IS5VNlY+1jvCNR/iMJW/kbY+/DGlOy1Fuy1NvjZbm7aJTLyeGRWn3xsMOP3esBcSLO9TMwC1mdDf5TtVKz3LyAfFll4dPKPCzBV53ji3tGGiAiExEJKzLyByn2RSHa7mAn7PZ3Qre7FDodDbi0HzpxQ2YvJbVfdBLcptMxMBb31NdZLjcLCjy3K2FW3xTBsY95zKecg6JES+kQcQsgxYAbl7L0W9o/x2Iv0Ze+pRNgUzp7SEfXzcOxhjmi0Os3boe33n4nvPnRzfCL63vh7h41kJCKAcklxwxyfbHc0Tn1O4pjrIiq8DK972KoY2Wpn78q1c42BLDMkptmErM3mRbTCbs12A4vPn0+Lon7nZfCD157IZxe4aab4M1umYsoRxuqqw35+YIQV3AdCYS4orgi8q76eEv7PA7U322qDrBfxpBtdfalNJO55662Eru5LC+weElOCI8MKRfzfJgA8YL82HHneg/L3WAkghjJwojWb8cIgCfb6IJIXz9Irz9S2/TC1tZ22NzatKcfb2z2wgebrXAHdsxQWZO0U3KCnvbd48kt7RurGyIy6oUsKb96MiXlyTesbS4V2zbPzADghLClEwSmUI60B21myzGrt3qoGCmz6RLy/qGTk82rFyMWjm8Ghf6VjswIMooGvsWhfXTk1nYtjftOaOuEtbWzF65euxHubu+GTe2apYKGSbZp37O7cW2EnEbInIAnKCQQYlGn+ujPMZ8G5GNoNg2lENmqzlHzEHtcEidBAyEnYp6Qcr4k7vMvh+++9mT4wetPiJSXdOISydpB0AZ35bytE9h19YVr6iZbkm0dp+pOFmtzvKIc6S+72lOxrxwOjXBKclbtAvnSNiJjc0PCSxKI31fewFdsuVyyxOaMZ5KTwSNDyqCY78MAjje3hoG78/oo0wH7PmFPVoms1XaHFQgiS/X3bRkf2/Js7fbl7oW9Xj/s7O7ZU4/37t2z9rx0dy/8+m43XN+l1+WgPZIzgxFEph+IbIdMmWBxGBFHK7GBH0uWHq2M+Lo0A5gnB5neYI650eCDrLKOuKQsQXFfjqmeOpjWg6OqD+R65tXtcpktfvtNME/UlOt1VFjE+rMHWOyYGLPq/3wnUnnSnnZCVT20dKLsLK1wHgjbIuamTN2VJZ3EVD8OOyaHnEV/jqqHRxzF4z/smDgoHb79nuhjmownRUc6MY8g6+I65S9fCD/4yplwRpZyJFmsXq7wriuLa+pLF9UkF9VN7qgO7+o4Vc8j6nlF+1J/Ge5pf8cj5dA8J3lKlccKDlYnddQ+uBMZN9aTnFZk5JREelnr1sU4hxSHyH3EI0PKx033oEG5/YVKRZQdU1HHU3K8slKGhUE8G+5shfDx1Vvh42s3w407G+H2xrY6PdMWcfpiMBiKpPfCTm8Y7vUbYY8XVBRBmyTnDHK92jS2XbxNYhaIWUzKD5IGIi0GKcviGtyQVEwIaSTpKc789IWDfJNzBlGPYZo4tYCydFHhevbIHOVcRHlTTPudINOTxN5MJ97BbmS1SLyJqXrc2wlDEbM3kU0LcZLiZUiqG6xNbMlOg7l1h/JMLoPtK9MUArlJVXKAhrJxdRAsRkm8ubwkBz48orbnnMFYn3945KXwx19+KZxeZmmag5P1FcmlMBz8VnX6nkj5hq5ibquvKNtEyq0g65rLLOZujoX4VCXbeBWjkwJPtZqVzNplcZSRMmSMyD3GWlZ4U8S9dEaXeCxlPBk8UqR83LQPEpSZy/kyUq5CXn/bItQtdeBtGR076uPXbm+Ga3c2w4dXboaLV2+Gm3e3wp3NXZvKYGrDpjkgT8FIxbSl7GYothUwDe1lIxAKwU5UZ5dViNiKMWmYw2a1AkRsN/vMYoaGR2GoMvTV0UcMkCKUPu41/k5g+qjDGOMkM8GMs0w/1aqkstXUX/RXdnwWt0yd9Lvat85npDbLf03WHw/k7Oxs6qpl10469ETeg2Ev3qeudJztblf1rZqiHjir5Mj2Vyz/xK9N1Vx48TjKj2seVfHm8pN8oif6Xvtc+JPXIWXF96zZjm5IPg7jwTvij3e1vSa5aZZyc8QNt1XlqEQs3eEMeByMd3U8OypfHG/6UZkhaCxhpjAgZqxmuArBSpafOebW2RBWXpG1fIGcTgT19MUDBmTMk3ZYy0WUHU9Rd3VjED6+15dlfDNcunYjXLpxL1y5dS9sy8rYHbbCoNkNA3W+vpgSgSC4xGS/LOFaavSNmMsRSWgKeeJ/9PUGYSRhLttWc/Aui/ZS6NEPJPQHViZ02iyN07Fyc0iD2axm7ZtpjmJ7z+5u6ivqOYac12LUmViGMj2UiaVse55PIpWUFXry61OfXKrbXPkwrC51bAXM9ta9MOjvhqWu2hOF4veHw7CrMcHVQ3dp2U4IvEUtPzZD8tq+c8g70WlTRsqH6SdFWGhpOvs1dw40hyVl5pQbw15h+uKl8CdfeUGkLOuTzEyUx/iy8pGIlMf934qQr8t9Wycu1R+PVbNGGcKkOueHyOFgKy92caQK1JaFy3CR+uVYp2h7/YBIeGyiMkLIPHDSeiq01r4r7hYxnxCOeeq5P9iPkJ2wXQAdbxHkqKD8kCLCocSbRCIr+7OuY5atTQNIY3N3GgDc8ecGEZf9N3bG4e1rW+HfL90Jv/rwZvjVB9fCL967En5z8Vp499KtcOX2dri3Nwp7Yw2WljqaiaxYdT5bmKYBZKIOGbdlQtyCP4trL5AnL7YqE24ru8poqzxcNFC5a8+cY3xTnURpOLqmwhGIBmnq5D2RffQsc2rZNrktRyz/JKTJ9ZO4CHmIPkzi3OisVOs5QtYkd3Q57V/Ppm3siUXCdVAI88ys0bYbmxLKYPOwih+JtSCqC1DUz+hwR9Unh+qhiKiq0JtkYbhdlyRuXO/l9TGr426KHHkYA9ZpsuV+AvHFttR52LH6Zb6eaTATW1iunIw8j/cX4ayeapGOSns4YdsNxntS3VYHvq7tFcllnXgvhmHv7TDae1tnY04e3JhUuTlOspDYVaFtoz8CF6MY7dGwUKQMctJ1uG5KZDGcDoAFzpnZLpkEj3vSgqVbFC+rC3708R0USZi64KaHLAs6ELYHXZWtHZGNRgihLytsL+zq1L6lw//1nRD+f7+6Ef7br66Gf3pLZHxtJ9zodcNe53RYOnMhdFdPhbbyN4tmsBva6niyYcOaLOP11kDbni4KsZLJW8Rnnci7VhIbKAV9FpdZkNaSyLVNGXlj2nYY9DbU0bdkY+yF5VY/rLaHZo231fnjB06hcDqecpG1a9/TkzATAZm7/yC96VSGKAyKWSnq8E/jj3TkI53g2HJP36Woj/4ZvcRuTupYmzxQbce9p6uCPZGO+oGtgGnEK5MBcblKwJLuqp413IbqCyp7mTBtSr0YbWS6PE4Z6FuHhXGmfqbbqUgzp3P9BPhdGHO85ArBbZJOpIrKkdibCHXC1ohQ28c7ZpYbEWCf8bLI7ox1+PFokx8pZRk3pe8goum2dE3102OKVSKXahp7zCVPpiyYohivKXg1tEYr6qNLkrZEV6/aZUd9tT24FYZb/yP0N/5LGG/9awh776usGzpOM5vU1oxZ9Q3b0k+l5QA5DlsTjfZoWDhSBtPOcDgcpVPeT+QEfJD4CYZOG6EGVkNDQtamErqnzcuqs7OiYk+D+uqd7fDG+zvh57+9En710Z3w7tWN8PGtrXBraxB2dMk3bDKNoE7W7ip/rFENEFnYPE3WFkF3ZLF0sfRETUbIvjcGkjY28F3K9IakU+/hCb4GnZ7uqQ44hrAgYHVRLEksSqxJLCCzQEmr2NSBZ2mpRbQ0ea6Lem2Rgv5g4a/cT55O1GxziZa9+xlkSZfp46oLLGPqTxptmabhwFgKZzc+lTiuC0fHCVqEID0HY8e/n5CmTJ/kk4EayLeHg9Ue5SKZjmFO6KcTf4zn5YVk1Ev0F10zwEoWGcakzLWjjDfisJR5u+BQfSi+oOiY4rtlrFmnRYFpoP2Mc9Ep0URlVTI7uciYafQviV/fDePeBzqBXBIp31KZOYGovNYj5CxI/DkeKN3CwQm5jJjRYRV7WE5wAP1Ji6NMnxOxgzCOwQQFA5bL/4EGd7+XLCaLaCsrtgeNsCUrY6e5Gt7++Eb43//qv4cf/fQXYWNz0+ZtPxm0s+khZCjTo6iKn0LTcefI66MMMaw8XRn2z2v/8GpQxuQ8EpQuL3tyFrQTfUT5jo5b9qOmOVb9HCPJ4kCFjywbJffbgSGMxEyfJJ5KlkThvAVwW0bHTUVlxQjbHYVidLBKhJikgaR1+rbhzty0yP6IWDhS9g7D1sWR61yfk3JOgCcpoFg2Lx/weF5GMBOvoUs6WQWEtdQR4jwoiMvVbu2Mw4e3dsKbF2+Ff794M7x3+Va4eute2NrasXXK2a4+JSjDLE+cE+9++zpGQaqS5PWXw/VV4QpJ2ylKo87oaIfknEHVPoQUVMgmoZBuEregn8N8eLFcxeOurod5EHe/+FUh0ySH39dCgWKb6Kd4/DYcCzqPZ3EZk51Iu+NNkfI1GVMfh9Hwstysp96zLCBSuxo0QtYVo+Ubja2jYqFI2TuMd55iJyrTG5Gl+dsHRcyA8kys32TJexlBXrYcROEGGXeumV9earMqgst9naUVdWfYDFc2R+FXF2+Hv/nxW+FXH9wIvfZ6GLWWws7urpGycomZ3TeQv2Sf3eTH6kBVpgdTbVm6ijQVelC1r6irSBcT2WYO++jJz/8mSM6CdkZfBcp4lLJ7/LI0oDyv5KiApckize7jgMQPBY57DBqzspLFLiJlHna6oqvTD8Nw+FEYD2UtD7d0Zcs0FjGxtrGUuQKWT8rj7HUhLeXZDjGPPMyJ7kERMgLyMiNOzCCPWzx5yCNCpjnlxo+oKZmj3OqNw5Xbm+HND67ZCot3rm+Hm3u6WFo7F9orp0JTJyPL4xOCUkaJfw7XTTwJk7ge5I45VOmFVE9FVOVVvQ9HWV7JMQcrvaWo2Nu++rl8J/5CQPLO5VZMX4IDD7cCx2mLYshx97244IAKwkG6FPW53wSIcMes0rgrMpa1PLgSxhKmMRqjTREpLzSK0x3QKq40IXJkLBwpO7xzsc07WtEPcmJysjtJAcXy5gKI54RclHh+VVoa1OKPQ68/CLc3dmyq4ke/fj/88sPr4dpuK+x1T4fumQth+dTZsLy8kt4j8cmJmX1aD3IxJMfE75DCg9Lx5UBVrp+tkyKOo6/KL+qm+jxueW4JFie5hZl0ZQmTjlxngjN9EWjyfIuIuql+v7g58nCch0lnYVl4jFsd/0HBSuRlPaoY2CYxnY86p85cn/wTQcdLknhx0pZI+bYR83hwWZbyVUW5I2F+mZEog8vmkR9BUnayc3jHKhJhLg8KTrhF4s3LWkQeNmn2ccNu7PUG43Dj7lZ4890Pw68/uBSub/bD1rAdeq2V0G90Q2/YsCfFPOfyPRwG2rNVm28jcKpGJx73+98UuTvHvP6g5qlqv+O0azHJXBaVWc4e3T4RY9AkODlcl+tzHd4DjufAsldgPt/5hHN5p61jv30VW/7hgpecrUsRRX3y2xI9pgjj2uS4Zr4fGsMNBbGW+WMRMw/AQMwDESqkHO8IMYnBZMZRsbCkDKpIbYbQVEm+Thn3gxCQk3EuXlaPVwZCWPXIOxX2BvFT/B/f2Ag/+uVb4VfvfhS2RjrzLp8OjaU1na9b9qn63b34+kh7ab3lcjzoCGIByjDRJwcblxJwiPlxztbRbCKLa9tpHTpm002R6wtBM2Ex54iifw5ZOouaUPQ7TD/3R4AFTzTxb4pZzWzG0/2jn4YV/UXMpouwFJnf4XnNpMnieXgR07hJ8TDCDi0dQ9lxFI/PjjmqYwBPDkDMGsvjVrCHmkbbIuSrYTT8SANXwvwyr9CVYWUrRIW42p2RfTQsJCk7kTnx5kDnZAcgY252sTQsdqyTB/stziHnxOzI4+VlxcX5mBev39kdhV/89lJ4491L4cq9aCEPxm3F0TGThjez9XbVIVgLrAZUNczX0tHA/lWiyZ9p4n/yR9UcMl10ThXZ4VVAEUoi5fWSY14/9Vftq7oMCrCwydEVUJUw6YvBE38WgHMSfTZBXq7ZkCmqjykGVNXTPgddiU8xq/uHT6Uw5HGwTMaACSMTYmXLGgxu+rVCi5t7rFUWGY8HV0XMPB5+T9F2NU41JhGliKvxj4aFI2Un49zKzJETHsBK7vV6E1J+UFJ8qrC4IoQ4hLtM0iq+Nibcrb21PQg/evP98OO3LoZbvVYYtNfUJVqyiEXLvMhmsBdGfJVBbnvxTaF+PhGsMEkMyTHxz8KipuOwA0gwf0miyTFncXMcRx/DyvdVpY8hpI26HDHP5BF8H0X9BEmnUHfOoFw7zbcsU9OXpIv66TaHpcj0OPG7VCGG5enyNNXpHggo03Ek1k652PTE1M8LtHJ/lKTjBUahK0uY9zyPRMpbGo+3RcrXIikPb0mkU1QzmLCsj2EyLRwpg5zMnNAQ93s4gAx5CRIvS9re3n4gsrW1ZUIZKEtutXuZkTKgxdrdE99+dH0vvHvpZri8OQx3Bt2w3VgJ/WbXugSPYTf6W6Ez3AkrjWFYbqt7dHhs+9NoQpU1FteAUzU+9SS43v/KkA57Dl4fVagKL9Pvn9Mh8qrM4KCcC5hEL6Sb7CbT45QcXA/JUcBB6eYTHhBfOCjLHFXtfZKgBMeRasyGlh0jd254YREvJ7LRyjhmPGMv21SFrGgR8VjkHPrJYh5uhIZ4qTWKBH5ULCQpF4kX0Cld71YoOreUIUSIkS9qPAjh5fEQ9O7urpFybjXnpEyZXYCRsqTXG4T3P74a3r54LdzYbYat5nrYba6Gns7O9l5eXvLdEynr8mi1NQorbV4W37Jvvlkmx4QVY64vJkWZ3uNb2GyEeEyzOuDHWoWq8DJ93AX1F/1FHCWvHIQfEKUUDOSZZMlT0Ca4rnxHsYzzYYcp+2FAtCgcK2kOTjeNiyduHmrECkiSdIIdY+afQqSsMYjER7SJ5MQsi5lxPtw2UmY1RpzK4H3Qw2Cv7CjNc38sFCnnBJaLh/nW3QBSZk4ZQrx9+7a9bvSkhdea8jUPyJmTAycJyjXpzIKX2082fsLh3Qj9wVhpt8KV67fC5Vv3wsagaSstBpIR7wBQb+F9bSvNQVgK/dAe9+0TULs76eGRYzT8gcjyxFlOMgcjr4MyVIWX6aPK9WXhh89rFlXhZfqks00hfBKU6XFO9NWoKuJx668cxK2Of6SsHipwYBhJiNfB4ST+yjBq8EpPoDwa5CMO4sskfEuQ937IWh4Mr2vc35RBxpvkNC59d0fEQpEycPLKZT9gkWKZPkhSZr+Qsk9hOCkXrWWIOD8uhNUT/d6eEfrVGzw+vRE2IWVZycPWcjxDq2F52eVKkzeu8XIhvsu3K1LeVlru8B6j5Y8E5c8ujrib/QiDoKrgsnRRs19+5WEHkpbCy6KQbl4fdRZmfxmSp6BNmIs9g1jG+fCDyl4W7uUr4nB57R/n4UY6vslduEzK9B7fLeXQjU/o8UkUu/EHL3WlSKQ82tGYvxGGoxtyQ8qDGC1SwJGwcKRM54Bk/eYdxAZ5AaxC5mwJI56//tIJLrdCT1JUGPs+G9Mqa+unQ3dlNTQ7S/bEnTWsNVD8xhhvHebmgn1RXaF3+s3wxuVe+NHHvXCth3XMqwRHoatLoqXBprY79nY3xgyPXG8PWiY9dYhGeyXYV6vZhSKMlI56iW51lCTunxXFxUyXu/gX/zN/Aq5cr6STfSAWx3RRnyOPF8OiFPUxLAKnCz/RHePQI2aFv4JO8Uv1ad8mUvDC/Yk/CV1uXo/ONrPqGKSNHHP6WG73x/Kjj8jdOfJ6yOH6svCoqtITkv6sn8xKTDcr/E38isPbBhsD9VrVwbjTCkOEp0ptNQKv5eF7LrypsKF+rC7fVt1reGBjtq0QLoCxweeYNB6a9+RW3iz9tHcrS+wF96x06KnON5Rvn91mEmd750T7KYoOMKYaV4jC4pvhMpn8kR6+2bZXtI7ESUa2Gov2ZrmGyqrjbfKeaL5uMtxQvDsqu4jZkYpgxXDZBwtHymCwDymjZ0unhJB5os3DnZxPWigLHxDlU0sr66fC0vJaaHGysNc10ho0JGsYtU2kzMMfkZRD+MWVXvjxx3vhen9JHZkPRY5Ce7AbuoMtkfKuLp4iKe9BysNIyn1pG3w3rNm2/dvgsjM2+4sS9VO/i+shZ/4mHcWjFHTunThcktZh+5oGThD1s7D9lOhn4XlZiZI7wzRYg8eGlm0nemE/vUZflNydS5k+ZVL2l2OiNfXEZ2HmV8C0viJc5/WS+4t6386GsS3XG8w5T8hVQtyUyKSh8djs89UY+JL3HEtarDGQcZKIma/JDGWoDFoNhanKxDAdlYFFneSRSiKQCfSj8dAS6RqpieQgZhImUm6IEJuNLYUzWqZlMXBsc5LKPSNEpsXZH9uCTMLnJZLynrLZFdnGZwNGvDTZyq6ykqf+dRpSWXek39Qwx1KWkC/J03YiIHcXQM4LByc7dztcb9ap4J3O5289/KSFE8Py0nLoioj52gS6Wchvb4uKDR3fCtewFRdb24Nw9949m/7Y2eatb3HlhufN+5abSstn/OOVQXtyIuKEZe9bLmndqJNkQVEzr3dE1XxAlT5HHPzzqNLvlx9JqtPtBxIm5wzoJ8mZA92++kJgWdwcKbysPQ7CYQ/X6+W49XOcVA71SNuyb3toKc8MXZIJ5MRPPzVjwVAcG4CwJH7is3wQnO4+hGQnzhlhE38OB08mmVrPeelThLS/eFWlE4DIOTR42IRP5/EJqgLKDr+AhSJlJzMjo4zc8m0uYNLo1nDzcU5CjJSXRcrdrqxllZs1bg6cJvrxrY5NbRx21Xb3NrenpLy7Y1cHtDVkbPkrL16cnn+xhO+/ETa0406DIx6+YeIs04EZT0RUpYC5dPrFkelzzAzEDEfVT1ESflASRSDb+WhRX4SrFGp/RZRro74USV0Zvg9ifRw+3cH1Nw/SHD1VAXRh9Turm5Iyx77oOrMxzU8/ZbosDoAiPL62Tqi2jc4JyNfGj3miFP2ewPWTcJDCiqhQR1QFSk8ZvbwmvFKMt8Vh0e9JIOUtCQR9NCycpUyj5/O1+B15mOujtfhgBaI8depUWF1dNXfbluxRXiuiIId5otCEfV213by7Ea5cvxnu3BUh77iVHKdrnNhjH+dMDJdz7LpMtHm8OG0yHQTViDH4lZREn4ZPN2BGXwJ2XbX/o+pBVX5RV53OwkqDqZ/kLKIsAJWpC2FVekdSz9DeJM18qnzXVeUrr4fkqEAMP3q6wyD2xgisXvo9sHGof3Zh02eFneGP46SkLch0hojJk+kGtimybdLeyeAwB+PxJvErxMJ8X8nPvm3/U320ksU58jF67VVDFo/JZY+LiJRlJTfCtsI2JLckELMQE0e42/0FLAwpO8kaIUly4vWGLoahnzZ6PEs/COl0RcqnT4eV1ZXQaTOFESvWSk/RrQH0Y8cT3wrHJ+pv3d20ZXAbm1thz99lofhmHVvceOwI+cRjl9h6ST9+i5a6T5QcM/7ME536NUcKyDbRqd+pZ+LMVKWw8pagSj/FfHhlkok+1kFJyuq0CYqRXEJyoptJtp/exTYzoQlZqmJ8FS7WR1JkqK6nKj1p7NfcwPOv2sdxADWBab6xT5pWfrtHMdHbJsZNY7Mc0k8ImW0uQBm5cy7cxVHld13uP6wAHWOavpicRCivEzjHpm20lEXKY0iZR65vK57ck3wOh4Uh5Rw58ebI9R6WN7brT1q6nW5YXz9lr9JU8aRLBTLQ2QDKSNWcX/fMUt4K127dDb3B0KZATMzKZnqCh2No65F9JmrAOy9YZjfUCciO2eed5TRE3UTi/4zfMdHbfwrIwiPmFAnoXeZRNfj207sUEXVTfR6XPwubTyYQJzlnENPMhU38hYAKfdz3FDN+nMlrm8wPJuWuQFk9gCo9iEHT8H2ifjKor9HnKItbyjOQ3stpm+T2cRLHQBHEEWnbOHHLs3gAns4yjULeLkV97jcpgamzsKI/g5c8CuOOMiZJxDwpP6/3DHy/jxUY17WV25bRkXd5/kUsDCnnnW7aiLNwvYcV0zwo8NXoldXV0O0uqRxJCbzTUEzTc+HTtFmn3YEs5Y1ts5YHIlq7gddq2zK64lUCc3JDxYGUfR4Z+LzzBOwnCZsJkt/FMXEnxzRcv/zHzZx+qohaR94eOcr06Krig2JQeR6S5J6CfJMzh5QW38IiNdpPiotmRrefXhL1KTQPS5joDVncfVA8Rq+jXF+Ikvx5OO5CJEeF+nBQX4udeFImdhV1SW9hbM2VyiJDyvt0ijcL4kSCi8SGoHOUpQFxH/uLo+C3cu3jz5GC/Cgh5ahUOSdWMqo0rSFLeTzeUpBImTfH8dKiyXFJjND3x8JayjnZeKcs6gH+/LHrByHAOl2qTW9AO4NiUaQ4aGmSngh5a3cU7m33wiZLMGQZQ+hYypGQUx7pJx5ytE7si9d2J5vO7uQtv+9iAhRRH4OS3yUqS1AMyNIUwGEV68FRpsdZFtcxmyZPVx5/HqRNToPnI735M8xETO75SDObw8L2lqXZLznFiDIbq+yYoyoeowt+R0kSwzTupwOvzdg/zWlI3dWKFPc5Vn9uhKVu16b1UkfOQD5YkW4hI+imQh6eV3JEKcL0yQ2K8U0Yi4V9FP0S+2PspjBOJsxasMLCVllg+UKulp/83LUnKT9jlsbxhZKNSMpYyhwf8fOpj8mxzmOhSDk2QHlBc+TxIDG7uZYu/yHoByF2wrASTavayjkhZYUqDk2xKx7e1M+WCHmHt9rzfT5ZypFkY3RLIQ+dmqkM0sf8YocBzC0bKaf4uRiSfoK5CEKKE1XR4/t3v4vrXapQ3Yb7pSpHVVbzeuolOQ3R71IGxUh/5jFMdfyZwlDQRr2LbbLwpHPtBO70NFYwlykOrr/5dNO8ZjG7j/nw46K0jPTFNAoIR5iKW1paCh0Rc+zHDqU3kqIvF0V68i/ZxSyI4AKm/tmQqSsiD42S/0WdQ+50rDZ1MVdONozNOA4b3Pwbsa6Z13relps55RR3IkV/BnkX0lL2BnVxRKtQh2QWI2cyGr1pS9FY+cAKiAchdDrKZkWVwJl2t9kI2RsANAPrznf2xmFjZ9emMIYsQIdcE+m6NRxXYcSVJpC+WdD64z9mp59YHQkoM4n/M/55xC44iTOD0gSCxy0Pz9vLgapMD9C7FBF1++mnMpu86Hd43ELgxFuuV4roSNjXP3EWYiWPHWvaFlHU45zKVF9EMewwaT5dxP3EqzyoS3/aN8vguEeytrZm6/iZbpuCAvrYKE5dlJXb9SVixzmVeNy5VCAFzcUoS+J55icSU+mYRjrukcaobTVuR70wtpcU3dMhsjQupZ07RmQeC0fKeUfC7eLIdQiEBSnS8KdPnw5nz549cVlZWVHJEltaXatsvjwIScDFzMPWbi/c29wRKY/DkMc0sSCU3Jca2c08IiqFW8uIPCkf8tV/jMJ/RPLP6EDyZMFZuFxJYcUt6JJvXm+KqHXY8ZZiXu/tV4WqoDwNTpcpyDc5c0g5H1dIfup0EoQj00/gekmMH/8mmDhntBP9VDsTOkVp4VwiilHK/bNpPm3QC91AAr4n76sovH1ZU78KKS8ve/fNSsevCDndOCsnZttbdE70Wbgd8NQf+8dBwiZzA/wu0vtfjFOQyTSEfrGSebpvHMUe6+ZlRMPdMBpsKowbf2VkHNNPt1MsFCn7gGPrlrDrvBPgz1/246S8vr4ezp07F86fP3/iQqejx6WiWh+K80+4vVNhQYQgHg4b27vh9r3NsNvXcTR4ADVZyYiOyxbb29yx6gByTvlOOrXFTXHc2khxpkCxj740DJQqhar4Ed5OOdCU6kt0OWL40dMpAv/zQJ+cM5goy/MtT1UeN89rJkamrwIhBx7bBPEYo1jKqN4H0/h4ou4TQR0xjkfvkDghZCzlSCmUDWFKEYNpyUl5sn8vjMT6cEZaE79zgJy+L4PHs4CEuL9qpDQmyhtinZBrcic/fxM9eVq+kjw+v+ZUuZyQoVPTKX+zlplb7ilddmwp7SxmdQtFysAbM5cizJrMSJnpC4gZi/VBSKfTVcWnThr/48oINPwYEikPQ9jc2gl3nJTVBGOLGyPaMXN8k9UWiZytLgiPYuRtJycUlnSCiTfTR2dSsJFkwbOYjRZ/KyMriAKVoUq/D6qzOigv1U9yzUDpyvSuI3QSjiN5ZlLN6EtQiDrBxFNRNseR64n4VWlm9bHe9ot/dHhfnQKzgumLaClbnVLvEsbnqsbIUjeRdfYbgTuR1gzpSdg48uNw5wT71a+VxrZzCeWchiXYobkuF6CtlzG1mVnKiZSjpazaIUzj1ojZ3ndTJOWYdtY9xcKTchHFMM7O9uixGh+SGgwGJy5x/leNodqEhOmY8VIOy0EKRIA/IeWtnd1wjwdGegNrLqwLHqWORB6tZqzlAeuT2UdaoxzvCHPs8aRkOgjbcq9GDE+xDoo8ByWoSEMTeDvkQFOqt7JXZCbEsPJ0xwL7S845WFh5aLm+On5EIXzirE7FYZXXU5W+KqeIY9fToTB7fNbfY7eewG9IE42yUJzW5EbfZBjMwi3UIiEXEPedJE+Tp5vT52Q4j+qWKaKYV0xn1T3meFn5xcvHJGYtc+xc5WqwYzUX0kUU/VMsHCnniA0/35Ku806Yx4md4f6Kg/068TKVBryqsX7HNl9MY0ljxDoOfREt77vgwZGtvki6weeeaFjlTQbkI5kckZS2TwtMwcrbZCbicZAyjSVWVr6fzG+I/qJU7bq6SPsXtjRUu6rSf1LsX5oiZmPPjH8UuT/pyvQ51ITHAJnMS+yXZQKK/qODlINGP/Qau9qXru+G7dAadkNbwhviOLihveKyF1oKX201wxMrS+GJ1U44vTyWpSxaa+nKjkoQkTV4ObEMijDckfBWtW1lIRKDkhq80pMb4PRAjg096SpEyF/V6WJgi7NErD1KZE4ff7SBcHkzXEfCqw60nwaPVvPmPJ7mI62OTeQsE8vadzy8HQa776jybksf0ykWKWWkEQF+YMs+OM4FJGUnWCc8Jz0nxFwPppf2seKMrI4hjip9MX8sc+bL/F0XHpPzIlVrFy2UsdXRyTK+b5nHqLF+72xsh6t3tsKmOnavtRb6amy3eml/Oz7lyT5YJmd1kKxvtvH4Fd72VRn7I9Wo/eaRcVoHti7C8U3dM6KIZXrLI6ujHGV6yyfT42IATER/HM2sLuqLcQ8F7Wu6twKsHIXQ5K1K5Xr2z2d+XMyvMJNS/awuVZ3hMPXkQBeTF/6sb3LFVPgr6OOOkaODm3B7za2w07xn9zHag25Y6q2FpcFa6MiwYN60N9hU/94MS+r955c64bNnT4eXzi6FC6s7Ybm7I1K/q7EhS8SKpVrRVWDo3w2N3keh0ecTSrzelvXMpyS8lralvfJHmjg2ougnF5/CK+h5+Tz1bXXOwCyKnRys6DMyoyevGFkbziwrklV5eY+78m/2JDty+w09WlwnKtUJ/DDqfxj27v0fYbz9gY5V6XUSI/+RTkrDYWv6+gymOXg8W3W3cKScg05Y1TlzvRPmp4mqfQMPi+SoRkjxvBRsJyVSmFGYyjgYqGOLnHd6/bDbU/ekcZpqONpbnS4OHCVhIJN/2k/pn4XRfOVlzDEpywGYPYoI01XW72FznuLgpiqPcPBRHhFluznM4ZTEoWxl9TTV8xNx2OOoLAr7KIpi83uQ3tzHhQrOKgmE/ieTwP5wYfGx1FNmhdwD8UsvrC+1wyvPPxNefOpcWOs27cs5gDLEOhEJsZbXHrLYEAFCyASoT9sVJrGkmJzFLFAbbXNVUu+vd08BFfqJlT2B+1U2LGWfpjC9WJV3QbO1Ewfl5hi0ZXzqGIc66QTesUx0y4rKbMppNZF0KS9tybnGfUCqbkEuETdn/f5wFHb3ZDHDwka22lgHkKTN4eEJDptI8Y4SPeGgE15ZOKpyPbr98hNxlAVLWarfF6TZj4gIKw8t11fHB1X1VKUHBFXWU5X+AaIlC7DdWAptjJGWaqM1CsPmMPR0hcczUHxwgf7e622H5aVWePWVl8KLzz8fuq0l9XOmOVYjkdPxedKNF/bwcIWZi4wH0gPIDV2aEoCkcVUdf5ke1YzeFLNC5kUdxFrUGbIt+ZqXH9c75nXRLIO88ZG/X2emmKaHipF4ZVXjUwSVbB0piUGdaqwOy2qLzZ09I2e7uUcQDTbbhgZUuTr6p38TZQFRNQ0o+vfDpzfo5/M5OGsdVWmcydGeCGb2hjN59ytDVb0dXJ/z4VUpPrWmOSagCgi521y1q8OxrMNhoyeRZdwWabb56FO0cDudEE6fXgrPP3shPHn+CSPlpi7322FZuajXs3Z3DCFf0/aejo3pCelF3NHShJCls3cRQ2hxrMyDSilWjOtyfTEOkG6mUqMfzXxs1+ShZe5cF8H4btp+OEYeJGGaIl7p2kHNHBgnn0jNNT4hZpoktUlesXwWatzshJ3eMNzd2g09PtCHpawGadqkV4o4B4Wl/CYONi6lUEAKj1Gm/iKiGjKMchh43MPGBzHufvHJLzlz2H6SuwR5WfaLF5HHPTDyBIptf1WoyuugfZSFm65Kv08ZTgLYsZ3mSlhqrplBIfs49Me7oS9ibi51Q6u7LF2cyltdaYdzZ5fD00+dDufOtENHXNNUl5dhHRpD0dRIRDy8Hkajy5I7YZSTso0cEZd9vYPv83E5Hy3IWAe5gNyfWbnFaY8ZSDejLvqLIJA4Hi/5De7OdVNEUpYRxtvjuDrgWO1Y4vhPzigcp+qhJuVPCdYk/HCSV9+YdCMp7UazNFt7g3B3cyeSMnPRxLEGmzZmbNr4m/6TP6rK4MQxiSdE12wCfFGyuLNRZlAkjnl/cuyDyjgEWJhKUhonP5oy7B86F1wWHV0ujqLfMdFFR7E+HFV6QFhZcFWKfbI6YYgsZO02x0tyiWoawzBqDWxFBQs7hxRU/6srS+HF586H559+IqwvN0XkKbnCmhobTd4ZPrwtMubLz1dEyFjK0XqMljJx8ffk5IXx7JkPstpoKhGQu3Pk8fYX/ysLi8i3RXe1jrEdP5bMgyT3tOVkEwl5hpTtJ07T1KT8aULtMB7xlijmwuQZsZ6Y+9Y696vON0XKtzd55wUmA1VvCeK2iKKqJIoBfUHYTBzRkyHTl4z4SBpRcuxPNOXpons+ncVjy998MBFK9fk+5sPzMEnSTvTJVwZC/c9R9DtMKzV5lqFM7/GnYbNxTF+aDt28/kHBlnrxQVOKi+nbHtm8cn/UD32RLX35zNpKePWzz4XPPH8+LCt88iphujnCCgtIWZbycHxN4wOi4kPIkFKavshImbTcJkzMdWTE2ssLgOB38RvsRYlxbfRa+8g7CQPuznWObF9wgT1IsiPhZh8WczwaJ+Xx5GoZUo7XBTU+BVizWOPpIo6bFEbMscFpHnWzsLUrS3krWspcAnL/Nca1oW5/llP8n/E7XD/9m0X0z2pjGncVMdWVEQqo0k/TzodXJanOyzF/TBEHpKsKPqAcM3vDmcd3f67Pwws4uJ7mUZlin/08EKg8cAtr7eM3IzE7hiLjnbC7uxFG/Z1weqUTXnjyifDayy+Gzz77ZFgRl06uAtkYT21Ibou/JcM7Ok5ZkAqLlnCcU2Xs2CUn5GyYXHfOS/HGHP4ksW2RAiaqsr4W00xSTn4mmmyboxgHMB/ONbKOhRuao1uS2Y+psqexsUM6fiWvSflTQN4UcTqCjhLJlgDCeOcFlvIdWcpxTpnpCy5vUqcikkuOon8ubjFCFj6Deb17IZMqQinqPa7ry9JF3VRfTFMJi5PcQp4u1ztmwpNuiqI+iytJGtvmQJfr3e9/VfA8Aa7ivoqYhGXhs2mq9A8G7Nk+tIBBweqLNmuIB6EnMt7duSf+3A5PrHXDZ545H770ykvh5WefCisdzEDmUBPIxOaTIeW7Egh6z+goklK6etTYiVMaMmzk5YEMKVLY/pL/zYYVEWPMImpm9LFwQq7F7cJGWxNOBmxNaeJzymPWIPMqz3QS8hjGE0bKQkxSk/KnDZ7ss6kLI1t1YLlZw9mTd6s3DBu7/dBDwfSFNWAi7wRckw4V/83vf2WoCo9p3eX+LO40QimKJDDvTw7BsypEmUszgSeYwEqUoSLdBPuFK6yYd1l0dLk4iv45zAbOHWPVMQvELQuuSrJPVicKuKndloXcadoHfnd3eXpvbHPGnXEvnF9rh69/4TPhq597KZzrdkJ3NApLuj5v21Mz5KDL9uE1yVVdzt+R7CQDxklXUThYO+CM3CzMacoUkji24hhzHfU665/o2XreKX/TuZguylzcFJ+wqYDknuzT4XoEpyxlTjBMXwz5RBQPmeQgPcSc6kCoSflTAvXJneeWTRTRILGx8Bopq96390TKO8y/EZmqzyzlIiaq5GDjkiPXl4WjKOon/lw5i3kC3i9u+okO04H90jgiSSFJIRT9jmnc8vCIGDYN3i8uUHj25yj6i8jLkqPoB6hm45alKUtXrn8QoG+3u63QXmrZA1Db29y4EiG3GmGpOQhPne6Gb3/pFRHzi+F0S+S91wtdpbElxk2sZQjpYyNlyAlSZqlYU6TbtMeXGTeMBYmPCQ7d7pI7YZlCG8JwT6WKkF2YRJxKVXjRHyWPF8vIlk2uTzrB8+KP6Yv44vudMLI55ThPbotDDDgSKQN5a1L+FEC10lTUa1Od1GqcCTir/UbQVV/Y08lyR2yMMHthbE1HSi8t8Ua0NGxyZP4YI/8rR9RPf2NMSVSVwvt6kViK/imUqwXNh1eliflbSvubR3m6an0OyziDl28eXr5C9IIiwfUeVhZH2K+eqlBdvuQooLzO7j/Y77DRN2nyPcn2srp5M5xdWw/f+dpr4Xvf+lJ48fxKOC1GOd1qh2WFjdTpx32Rd1PSYD71A8kVyZZd0rfGSyIg3gfB5DN7YcyksSCS5u1rcWsFiD8lh19dJylhVTCwsCxC0T8BOtdrOzkJODy8oLN4kvGeSJklcay+iLGicLw8CxnBsdak/CmACuUhPUNTVUoHS9MS3MDAUubr1bv9UdjtjcLARxxk7NMXqFz2RTHufIKo0e8kTsJ81AkioRQTuH4/zIdXE7LnX5GnwsuSkq4iS4Ewlzzn/dJEKEZyTYFuP73tJ+lyxGObhZVnn0LEsLJ0++jn1ScEpuEg5V5oiZQ7XR4EaYWz6+vhu9/8SvjBd74Snj+7HNZDPyzxAWCFDXd7oS9SHgVdujedlK+KzLdkKWMlQ8pdjZd0gy+Rsh1jmrZwUrZaLzn2qjpBb0EWVhIBWNKsPYv+KlimuUS4hey+idgYh5S3lHQ6xx5DIWTE09Wk/KmANuJdQrFeaQQ6Fh1MbvUtCJtXdg7EzgOWyNHRsJSF+efsI9AeonvMIaY4fDrrhBVl2A9HTXKcfUTsl05hx8j20EUhnsU9xk4M1emqylCtP24ZPh3QT/rDPRkV22F3by+0mt3w6suvhq9/5XfDyy88E546uxLOLotimUOms48aRtys0tgVGe0NWJt8XccRL+EhHiNkXkBkb14DjJvcUmbwSMWxH+HwST8PdJ9EHLkbHBQnhY15xS/L4SDoGBKRwiEKoslVk3KCPfZ4AMoGhncY2xgZE8cFxOkL5pF5vDqSctTHKDGup3CxX/7jJtNHFP1TSFsdOINDRClFrAYGjnkPxGEJpRiLdJ6U1qGJbGsaBRxy/zOwDA+fkJY5KHYx3PZQccwWNnHNIqap0mfwSphWRtyU6A1WcXHRmQOf/aHP05joxyUpKcNw2A/9wW4YDgZhpbsUPv/KK+Hrr38pfPb5J8OFtaWwuiI6Yf0y83MUudOxd2T0Bhsi5VsaBzeUz4bC0hN8kLKtQVY6O8RkafrxGjFn/kMgxk+eCaJCuZmYP00rzOga0Z3LLFK8OeS9pLgFuCFlVl7ElRZes2Cmh8m5UKQcO0h8LSZCBfurOYG/ka2oB572OEK+7M9flj/z5re0r1wAcYCVQcJUcnynsvQNnf1bvHpwKQyUz7ZOkBsbe+rQXLrwtriBveB+yAtcOiuKz+Ubx5KJ/Rd0iP3nfraxgyWzYtYvsZuJpXrSy5nAsRSlTE8iNrHjss3E9EU/f7N69suQGDaaJrywsC/p6ZJ1T1ZWTwNyIP24qfZoqz9IuPtvr1nQwG83hrpAJtXAtlMZqh1G9vh6S02B2IySdho/Dy9h92wgBhP9exVNdPSzWb+Jyqyjt/cCu+hXQdrmon2WCfu3t63JopyRCt2ooCd9LEUmyVHs19xLpk+6GFlu9UNrZxi64gaezVtWQEd55nXXVmfu8kpaWcMKDYO+anmnEc4NV8NrK0+GH375i+F//cPXwvd+Zy28+tRmONW9qjq4pvLusBRDGauRWjwkciU0Bu+E5eEbko/sMevmqBXsXcrpkt5WZUBW2j+NwPNsjQZP8DVVFv2qPI1GX3767Dw4rFnhr0RvbRkFd4ynv+RPVTsnPEsQx4vKa9tcCIvwfdj7lM0f/ywKh2ons7thZO+O5pjpuzztx4uaTltaQF+lmywUIDsXkJOvd7ZZgoh63x5XIGPef5oTssPJ2PcHPE7URVJOpdBBiGxFyryWk/Mir+nc3NqydyoTZwAp9wcacIrXXlJnVieO2UyEjSHXmd5+pgIswEWdZcYvsTQV+pRJfmw5yvRRlfRschGsHgp+1fKcHnqJ3Zt3aCFQrMgYUedm2b19Kkvswtdc2iaqWvVgVsmyKB/x1Han2/RslbvimST3FNHt1WCXyRP3VKzkJXr9aw9GxVEULRfLbh+xbFWeWRIv+I2QizrtOaUvCt1xXlR3qrOJcIm2p3raG4WWiKKjwnQUpy3hJDapL/yMA06I9NGRjJZROzzdORVef+KZ8Kdf+nz4v3z78+Hbr66Fz67vhfXmHRXijtpNRgf2RVf7abEu97IuD98JS8M3Q3d0yYzoIFK2CjRSZiVCImYbKQSonDxWrTGhQ9A2tq0SSgogeg75LY39ZSjGcxT0ZdUb48ReGgWFb11Atse8sa1TSDfqiZTviZRZm80Nvx1VFWYIpLyifSsfHn9cRFJ2lJOBOmZBj99J87jCC+ZdXOf7ccKmkzpxs7UOn8ROIrSJ3GXwD6JOyp6ltWRRuy9iyvk6OQyKdVZEWTiqcj26/fMrB22XnAJE2dJlbGfUD222GpRLutRdaTfCarcVlju8lUxphjqB7e2EvV2eHNsJfZ3YKIMRuAhjqAE8lWQ7azBgFPaHzIPGeXzm83llKrwETVMCe1MfktzNJAfpGTZYcscR0tr+84FrEsNMin6TGC+edo4nY1mwjbOd0F9vhHuyPm+rv9/u6UputByGrSdEEafC7mA5bG4r7M6d0OvdC53uTnj2uW54/SsXwne/90r4oz/5QvjC7zwRzp/vqI1WVONn1XYvqR0/q3Y8r86uso6uS94Lg95bobf3Uejv3Q3DPgS8T7/ZL+xIIJ8D8jpElCPjwPJ7OFtYuhq09kKBAedkUEYKOSA14GmcUI8qntZJOd/vhHQrSNksChXDJKXJQU58UcS+LJLyJZ4TclnCdPT+P+NPngxzihnkx1IEQdXB8wH7ZHUAZgkZYBm0dAnXlrUUSVmX1LIOufJdljnc1aUHFnEYDTS4eyKIXuhLqEfyi3ayiFjEbB8KkGUFKZte5MWKF55AG5hM25U/OzQjPsuK0syINUeZPsWP4fo9liitxiT1UZQYFutq4p/oow7hxHIc4d3so7VG6C+Pw1ZzEDZVt5uqqB1ZwYOwqjoTOQ/VEqri0bAfVpZG4cITzfDKZ0+F3/3KU+Fb334hfPM7L4bPyH9mtR2W9IeV1xki3dDgBS9M0Y2u6ur8/dDr/1Yn0UsyErd0co1Td6Wwgy2iIi4gKA8u+IvBEUVNeax5HCJOafnL4PvMZR4LR8qOCYFBXklyuJ94TqYgj39YKcJ1bCPpzsYrppn40M8GWXvxReppGaXw/Ar5gHjUxcYq+qcg/yjxxHQYTOO6HIxp/IMQSWWKoj8C260pUsBahpwRvj4xHuyJfHdExHu63OOGkMi7Hef7O90luXVpq8tqPhowbjFNxPx9JzRaugy0sHiSJJ3deNU+WAvOAn7eM2L2tLYNSIL8ZcGN56RCr/iTcNIeU/gyx7i/F0XHmcvI8i/Ta+tC+mNIv7cddrbvhsFgO3Q7OgFKOi3Vz3Az9Davh9bwXjiz1A9feOFs+P7XPx/+7A++Ev7TH38z/NnvvRb+8HdfCi8+K+t4aVMn0D07/bFOWQa3iT0fMtgNofdRGO28Hfq7v9U+r4bWaMseImnbFQbwfuSSxkQm/M3o7GxYhlzv8StAJ3SZxM3E9PNlMcnTWrxDYBJXeXJfwPIu5g98O8VCW8pOfjkputuFuBCek95xhfSDQfxqdK4ruoGXr4hUwomLaMgIa015W3r5LYYfg8dNMvnVZuLHET0TZ6YSpq6DUFX2/VCVZF5fJOCiPwc3OSJRIg3uSg9VRyLLoUiP7xnaNwtVRy3WvTLfDwljEStPn4Ig3OowVmMsFA/kjPpGvEiTKRLZgt3mKCxjibfGYak5Dnyy1qzzguynn/qVxzEkz9f3k8tSQ1cMJXrTJX3nmBLzGYQ1VeO5tU64cLobnjrdDhfWG/IPwnNYxU8vh6+++mT43ldfDn/0tVfDD772hfD7r30mfOW5p8LTStgNu1aXqsYAnyO8ktNetDP4SCeN90J/732dVC/Jcr4rUu6pfS02jVMigrVd9EdCZpzkcZDcWdAld6adekyReybKhDIdkJ8yVHfghIp0E+CGNyBm3GUCfKvq0CCd+jKgvnXrVvi7v/u78LOf/SzcuXMn7Ozw5nzGQSIUCSAuAvHs7e2Fb37zm+GHP/xheOaZZ8La2prFgZA8TXGXnp4wt0wBRIjepw8AfidH4jHHyD493nGRlyGHl5eyYK2trq6GbldWWSqnpWOruHQ7u4GROpVoIOwo4M2L98KbH94IP3nrYvj1xethxMqMznJoswBf+fDUU7y8S1CaWEOpntIGzOiB9mM38TJQpjKU6V0XN9XhRaCnpvLamo1KfSbnDKKS9wG0NZB5rSGlH8rqGsmaYhqCr7TI5FX9xvlXUvC59hH9QW2P2/tEDLUIMQ6WqOqSV6jy1BgrCToi9OWlblhWuy11OzY/POINUfyn5FNERfFYHFE/l+jQwHofqY9YvZZUUMy+Wj9q6ohnu+ihwZTQSqcZVqiLleWwstINq8vq0ysSbZ84tSJZC+dOrYYn1tfC6dXlcGplyW4ExndYbKi+dZIbr+tEpz7MvLct82IO+WP14/d1Qv0oDPauiKA3Rcj90GFMtln6pvScLKugY5scdTp+99PGDZ1QppoMWV3NhGZ6rsroH/NQnNlEM36c1r/m9p27hYk3OfJg1QEylEGwKVk99Z9D59T/osZYUb0sKypPNLIiRftgjokbnOochT1EoH4QpIw4uTop+xwu8LgO5hq3t7eNnNlHHnYU5ESPuN9IU3niX1paCqdPnw7Ly8tG0JMyacteJ6RsHUDWsUh5e9QIv/rgdvjlB9fDz965FN76+GYYqzEg5VZnyfIf9dSxEylPSy9XdihVevajAiY3zpnACQ7Sl4VHVZk+6uzo54OFCkKW0tVYxy1IWVtbL+GEPEfKlsymMgYStqyTXe1AMJAFc/3NuBVhKRdJtMLbKmCn3RQRt8OK2syIma9kaB8KLi17aT0QsSTucUBeEHPcT8o0yzs69ZvpgNfciL52TNtjrdUNZ2UIrCx1wpIuGdbWO2H9VDecPrUUzpyRrK+E02srsqhbJnHpmnbGCQxCbW5q/7J8RxrT9tVp+OCm5F3V53thKAt52LtlUyzNoU6GfP2ZuuYuOMRmHxjNDmzOmRTazPgF2rN0GiPrUxOkNnQ9fSLqytPnmG//shNC5p6JLk/yu7oBKQ97YdgSKUtW1v8foTsh5RXFi6QsglFcpaLeVYiZbB2oHxQpe75OjE7KHg/4dnd3N2xuboaNjQ3bQuTHgVld2gf7Ajkpo8fPsZw/f962EPSkXMSXTEkZESk3lsKOOvYb798Mb7x3Lfzit1fCO5fUaVmbLFJuyoKw9LwfgJeEkzz7nbSsUKnnBFBqBUzhdQWiM8tAyMMdRV1ZHGulOTVtlJw5pMzVWLLMk6p6Q2dpRScoDeBmx1ZI9AZDuznHjTpVTzwx2tTGIPR7zDnvhafWmuHJtVY4tb4eTp1aD0+cOROeOHs6nJaFty4Lr8s8tN0sZF0z7coaZydu9THMzZJylh0nmNXH/nk8kI8LOFx9OazYVMoxoGuzcGqsk5LqvCGCaHfGZsR2l0SgXdYmN2VsqHbgP0l8ubx6tReEz+g3mKZQf7P3A1+VfKS+/47a5qLaUxbzoKeTrfZhljSf41c6pqaY42ChshOrNrPHV9TPhjYp0IxuErEQM+pz3WFJOTqLcZyUkRJMokdHMQ8jZZbD6UqjnJS5ingISLkIJz/yyNPipkx379618t2+ffvYpEz+DH7fF8cC8hPCqVOnwlNPPWXW8sqKiERhRhiKR5NFUlY6SFJlHTRFyhpFP3/3RviZCPlX718L7165IxZSY/BClxbrMXW8gz0jnYh0fLMbQa74P4sDSDmvL3CQH0TVVF/0O6ylZtQVBFOipy15Qowbc227gde1OWNIua+6Z033oM/ngGT1akcQbAdyNQnhxdOt8OKZVjgtMj4refL8uXBBcs6IOQQZg2aDUEYXkPtdl6Oi+OX6Y8D2WdhxeZ3Nw6Ip7XHL0tbQ6HJBRgZY25Qj3wqcCsY6GSItXalwxRIjKBFTFZDx4LbkuuyID9SOIuPxRellMQ+3xbvc1FtVXJHOWMSsfOxrIyxS5sGSdOxVfaqyr4kYbRrCoSiUdQ4levpQ6dsYs4q3NIXgCKVlv3NWevJP1GmvhWjcvI6kjKU8Fin/50TKqqMJKevkl5FyaorFASSREwWkZcRVAidLn+ZguZrdpT+ikA6QjwukzJRILuiKZcsxCZk4KHs8JuZDCbA0nk76sRoi5uky3UwhxYzO485FnEFeVoud+YsgzCXPt+jPEbPzcNLiL8DyTG5DjNvUCa27eio0ZTHYB2U3t8Kdu/fC9s62DSDmMDvqyM3hbhjv3A2rzX549uxy+NoXXgr/5+9/O/zw+98KP/zeN8OffOvL4Q++8mr4yivPhlee0klThHxazSlKCEuZ0PVzd6moaKVSCFtCpDuOlO2nLF6ZiOJK9YcVeJF3IcOTNvIl2r1RnTjBXgXQ6/OohswLjYsxL6nviFTam4orIh7eCmHvahjtvBV2t38mg+gXYW/nnTDkJfd7zdDsn1Z7nVZmnA4hMhlxvCGOJ1W0c/UE60/TPjUrVXrLi7BcFX9mYVEyvce1fDnKiWJGpmlmdVHvUoJMbc7SaCg5dvYPB6RyTKZEPNE08UKRcmyUiNxdJObcHy2uuDLC9ccRwNanK1wHKEvRSs/DJyB4Jo5E20l60ylvC016EZDla2mTzDj1G/9n/JmiFHlZDUX/IXBwEnVbxXGZR+zWEyjSJL68GAasKTa/PExPxCVnuxrHe2FFl7znV9vhxQvr4QvPnw9f/dxz4ZtffCF857XP2Ht7v/zK8+GLLz0VXnnmdHj+3FK4sNYIp8UHy6pgyK+tfFuq99ZoGNosv7Obf77aQwOkKBo006cDM9HVD88aukQd1tcxRINyLv9DSyw/S/qOJWEvjJo7EhElnRBJDEB7OGKQ4o7vaGxdE1lf0tWLrOH+RybDwXvqz++pAT/SMd1U3n3Vr4wbbgAGnRXtq9RAZnmjH8ZqR/umn+0llymqCBC9qs1d2V8BijTVapv8UVcts+GumdVZhczoJBYU3RY/889Jmv6Y5l1NyGBhLWWXg0AcJ+Xc0j2KkJapCLe0WV2B28WnKXIpR0klq0Hx2bHo39o3gSf9bDVBFn0WMc0URf8syuoNV+4vQ1l41JXrXfaFxUlugD85AVcdmxsbsrS2w/JSJ5xZX5Ush6XWKPS374RGbyOsyzp+9dmz4Qff+J3wZ7/3evjhH7wevvOF58LnzjVtTnlNrLuiwc5Ss47yb2kPLZ3kICC+mmw3T0XEzF/b8joXu5SNJDwnShunoDIxvfuJR/pjiu0bSfsrk3zfM0JYIe4RhHlkbme0lgZGzJAlHZIZCqaEWLO81NkO7cZV1d9FWb/vhsH2r8Ng880ou2+pGL9V/78cup07YXVpL6wtNWxFS1tXPI22Lsmb2kFDdrm9+U0nXOU/0lUP9wyrYH2ppDtN9fxUSaxPewR94ldfm/hdMshrfTh590eWh5Unb0PySPrkLxULdymL50796H/hSBnkg77MIi1aspAq8knh+SJFEs7DirC6NHFHCphgejzKgB9J1EHMeYKpT79TtVD0O1Jsz7+IKr1Amsp0JTh8XOuqGYp+gbwgGO7qizyb6am+9W4zPHl6JXz26XNmCX/18y+Gb3zxpfCVl58OX3xuJbx0VuFL43CqLauxES3IGeKi0ytvm0c0obZjm83dIPOmcAEM5qJ+RjiSTyDkMdmWgXhlkN7qvyr8ENBox55oNqmnbY0ZXqd5Tc3wsarufZ0p35G8FULvNyHs/jo0d34TWttvhfb2O6G981sZvr9V/IvK5m5o64TJMzw24W8LlXs6JoRjk6XcYLnXslqHB+hplZI+IJRrK/TeBgbCY5xpzIJ/Jn6OaYoJTDWvn6r5mQ+v1rvWw/N4vs0xPeKFJOUinAzLSAS/EzLkiVV7VCEdeWC9ueWMlO0vJ2UPJwbRClFLYalTFpbW5pSjfwoyS84DEPd7yMgZjprm0PEV7zBRWQmxurwUuu1G2N26F7bv3Q79nY1wZrUTvvy5l8IffOP18B++/53wB1/7nfDFFy6EZ0+1w4pItzvaCZ3RRmgM04oVBGI3C8YqI9YvJ1K17VRkufEUYANRt7cbWAUxvZhmTqRPTxGaPzLb8YT+Y/tmWyLS2xLLokjPcjhl8gmE9MKIh2o248263geygH+tq5OfhcHWj8Jo459D2Pw3yU9Dc/tNkfE7obP7YejsfRxag49kRFxRLrxASPXJNAVL5njJzvCm3CyPU75WZ+s6nDMi49UwGPHou+15BtanjqCfYhq4b7QiyFZ5z6VBb38FoEhh84H7I6ZJGSAzJ/P90VAhS2OhfhCrL9wPnGTZouNmG2CKAZAnKy6uXr1qa5XZfzHvw4A0kDFb8qYc7s/LxKoLjolVGL76IoJBA6JlZmUQSYxbndCX8ydvXw0/fedSePPjO+Hda1th2OxqgKlT67Kam1r2hi5LH2F5kUcBlm8R0tmyuAqUphGiWj+kN02GFDbRe9zJb4Lqn+O0l/aojeLJLNYZbyUTm1A1CdQx5YzrzpsauGMN1kFvN+xu3wnryyE8e34tvPrSU+FLn3sxvPzsk+Glpy+E07oS5jW9VtPsHAJGzEJWfr5cydbAMoeZtmY1S2xLXCWmTayuVCgRrLftYeF1qaPTz9HSzoKypG0RFlSu5+fAMpckjSCAeqL+RKqjXbXVlmRTlvKW/Juqyp3QHG1LWDFAHNWdSUrbHoahGqLVUqNwgiGMN73xeLXVq/QNjffGabk1RqUbjHclm2rvUVwN48XPyjlzvMkZN/GXJHMrIEr6teUzr45prXwgRSjEq0qLMu6bPJKqgOoxxnp51aPqwB8eWV77z2Fp/X9RVameOnAjt2B1crN+Tar2YpEyA5tw4oKckCFJ8sfPGmHi4YeUr1y5YmU7LikD3yf5Ay+Tlxs9ZMw6Zch5fX3dymflVjXwysOxiJbTBn2Y7FgjS0P+4r2r4RfvXws/+uBu+PfLm/Z2M7pKVwODR1bt1Z1mPU1hR5EdS9HviKpY1jLsWx8Ks+CSOArhZw55fjwSzRN0nQ5z8J3Q6w/UBkN7VwWrKzhG/vhuIenoG+xrZWVJdbaksayj39sJw71r4YUnO+Hrrz0TXv/8M+HLrzwbzq+vhrW28rXBnU5+eXlorjH9UYRgwsvT70n4sgWSXpFo62kVD/JgbtnmZJVfc0VtlvI9JHz3HBP/x0J+DBN3rhTMW6YT/K59ITiiSi/QbpMyKw9IyuenJ3PVSWcERl5klraWPh23W/q2M89LTtMRFvs3aTSCJENpyTPlm8O8BR2Y08udkzKw8mUo+ifwfQuTKMW0k59Z2HFzfB5WFmfyM4W8HH3DpnX2NMZFyjohdlf/V8n/NYidxcVrqlJZI0z3QBjsYySjUIOlZC+ELw4p489JmSfqADrKde3atbC1tWVP93na44Ay+DEB3y86LGiI+Ny5c0bKiFvKtlJZlT5uiJhIJ6GfWteUg0esf/nBjfDPv70d3vhoQ2fN2GlXRCqypc1qNmLOUKwjsJ+uLAxU6Q0Ks/CyKIQl5xTET04hPtDRVz107EVBg4HqS3WGm7rBasYyjVUqt8LYnw1pEW1j0A1rS61w/sw4vPrievjqF58Mn3v+bHjxwqmwRp6YZdww4hLZm4XESF+Xyv0bcuSk7MQskRUYRWHppeJmjRjhqMXsPRrTtj48jJKn5TkqipVq/pIGyCs6h5WfMElplH30+6Ii3Uw5OOiKAy8r74xO5Z6UvYDSY5XO1bZLpXVSnomeecw5Exhh+bNvh/wl0cr1njYFTMKziDNpCnqbZ5+S8tLq/z10VhIpL62qC6aFjtQN5RQp070XEgxelxz4IUvXQ9IQZiSBOBd8HIF8fesnAHcX4zoga/ZfHNz4ovUc3TzwwFczmOQYiRgoO/oYHv9yFI/5IBw1PiDNkVIRv5CABz944IM5T95ZrMoILdpCVjNzuEQfqL56vbjGm69ZLEtYcbG9cVukei88ebYTvv31L4Y/+M7vhi/9zqvh6SefUt0th0G/E4a9bhj3Vb8YccwdQ7aN65KLcv8m9HtvSN5U3N9Ifqt9XJRcVdQ74t9tnTSUkJeqj1YkrJ89J3lSac9qfKf50CMLbVWmP6TYkFMe5GN5Ce7OJY8zo095TPIqSKmetNpa+hLQsGWdobRfoSuKk9Z+IsztPgubgXRlao9v5Mw+D7NfyYyFLXfunaBKL6B3KWKfNJOg1HZiC3mi4Wlq+80hvf6JtVCALCA+I41Mcjg5ooeMWcLGlAbb4whpmSPmZUOIu9kiWOaeP0vk3KKfxdSPywgXUdW3VcYlkRH+SBQqu0VUPkbqeCKKx+qo0h8HB2dVJOyiP0EH1JDVz5c7eG+xbGL1KJGg3RDj+kFHn6xljpmrBubneDDk9Go7vPz8qfDaK+fCFz97Ibz07Llwdm0pLPEaTrOOedrRdhHrhymJwaUQeu9IfhkGe2+JgN8TAb8vQv5Q24/DSIQ8Ht6SbEh2tF+mKygoFrdImMcvGizZwjqRbkJaJyxGnH5guTuXKj2S8ilKTtozencTfkiUdpKiDr9kLmrSz8B1uSRYsQp6P9Q8jDK5FGGqCv1ELUdJlP31BJQJKNNHiSNGYpt0IEz7mMTxgc7Ms0knR2JLLQycgJGcmHPkYQBSLpLqcYT54jNnzti0hG9dCGMahn2wL4gZUkby8rkrr2Kk06aMvAiHqRld8qc0MY9EXtIVj9VxVD0gaKZscrvIF5WlIE5yAkuT3AVw5ufdxhjJTF2wpcOxusFWONjR+6/Cbd1wX9ZyKzx9fj185fNPh6998enwynNnwgWu5lJcbgCyhdttDojvvYXbspovhv7Ob8Luxk9tO5ZlPGJFQCLk0eCGdHeUflMiUuaGlV0WUhYy41YT5GyZStAfQ0qt0UNKkTir8tpP73mwzWUSp0Rv+eFGDkBVg5dhLqoU6Eqz8IDjyn4oCTdVlr4kih3rQXqrNnly8Txn/NFy52+qRxXbwD5xlRHyVGZB6MJiSiKzcEsZYLVClMz3chPuySefPLJcuHDB5orPnj0bnnjiiYmgQ3BD1Owjf0PcpHxWxFi5Xloq1kQN0xUJ8bpEpjHsIYbJMSkNxJx8ZSg7fuD6suAUYr+gIouImbAiAVv3qobKzlFyUsEGZtkT0xjMKyOk5uOXvD6TN7bxpF6nMQwvPHMhvPa5F2UlPxlefmY9nJHhClVSXy3lwXf4+ECq8eboVgi774Ww94EI9+PQ4MXpg5uhPVZeIhoTpWyr4+tUaUl0WrB6t5fY2BvY9yS7CtjRdlvCPB//kP/RxUpq5HgMsfRURhLcuT/XF3Wu9zAvy0T20U/EoYqmsYudo7SzoCuK9+MjyCTvI+hdimG5FMOr0kyI8gBdrrcqQ8dG25m8EzJ/po16C0ptMiHlKGkSMwpjyUT/Gtwz+ThQP4glcWzdEsYKtjnbFIf5XY+HHnE9brdgjwrycMmB308AuNlHPoUB4nGpyvXDQ7isvmA+Odpiyk+W8dWNQXj/5m74//7Tb8Lf/eKiLYfhtZ1rLT6BNExENt8MZeUpIqqm+nn/fJoJCFJ4aRz0yZkjj4uVTCfjI7B7fR4m4AZfmt5RJTR07HxdBCJmmdVwdys8cWo1fPUrX5aF/Hz46mdXw9Onk+WaSMve6mb1KSIN22G8/VHYufee6vKq9NdVw3fVaVldISZHIAdbkQABI7hVRroBYsChgTBDiml74lDZije8qtqoVI+OPNxdwH56q5+BHBCqaWexTzksOb/FKptJknnMmftxF44bFOM5inprV6SAYrzKOsu2kyiFuFV6L3dZ3pluJjTp7XF+OKTTCHsd8cfa/y20Vv9TGHeWw5BX9zaWJfT/lFoEHpllQQEBOAnkZFvUF8n7qAJyokcgXixiBCJ2N/sibl6evJ9adhLT2eAT8baaYbmr/GT+tcQ6eVpDLIKB9FEypVD0TxH1/E5dEVVJPK6O3v7mUa6NqabgKGL9y1rlRCU37/Kw93nY3LmETjns25cvzp1eDS8+cz58/qVnwsvPPRmeWFXdQqa93dDo9WT1DhWvp3w2zCrubb8Zdvd+rSHxnvZzTVca8WVFYcjdagiZ+WGJbfEjrJVlmgKb2YmXcuuEznsYuBtuz5gBO4ITlk8TVXlX6KkG61zRO4OZzkKcqZRFj3lFZ0TyTPTRP/Fmrgj3u07bbJ9TPSj6c2R6S1cB+s1M3klcN9FnBGzi6ZK+QqyWJmlynep/xlIWATcxHvP+CabttNCkXESRDCGqSAqRKLHUi292O4yQzvMCvh/ImbxzQefxgLlNYltYe6C3XxQjEVZDpCwCgpQh/Uny2HDWePhSY0aZooqQXW9bl4RpXrMoizsD6cuCSDen57DVgzimTrtjdWPxWGGShCsFXt0IKT91dj28/PzTIuVnw0tPtsKpjupTYePdXRHzXmirrhpGmnfDcHAxbGz8XKT8pnQfaB831VtZ+qadDleVr8QJ2cjYiTktxrf542nH1zWPRGXStcwYi9HqhoZ4ELJgKDasvGhcqlEVK/bo+bR5fInt97CSQJpcHLk7xyTeYUW/ip//TYi6KOqv0zgIfhfXsWGKL05ZRFHftC16RMi6xcKRspNhkfwAfpccrvN0xxFAYzAd4Uvicsl1Pp0xLYtkPC3T1BUbhpesQ8jdTtvE98c63riWN+67DEV9jDvVl6UqZlVMMwHeGVXsSvMo13KcNt3AnHFbJzAdJzcz0dlTikbI/dAWIZ9Z7YYvvvxCeP3Vl8KFU02jTtW88miJ0EXqfOwt3BM5Xw6DrXdDb+f90BxfDUvtjbC2NgytLhaLZKjMB+rQEH5gOg1hHTJP8UnHMdoXM4ijzs/XL0ba22hF5Ulkjt+6vlfAgxCH3FTkHPI4jjytu3MBZfpcEqadIilA9OeaWeRpSsT0JQQ2iQ9cF33zfkfSe0DVPg8tOZKuqC6N6/CwKqki7rRhuswsZfVLxr/f7KOryhURO0JkhwWDE2wkvCmcBF0ARIPgJ03Rsj2M+L7IB8J18nUrOhdft+zwsqS693pNm6iFrCAebvhByliWhDCNHEnZUs6hqI9+l3JM40QclMZCFCdK1OUo6qdxVefyt0S+dnytpp18IGQTchYp8+FSrGSWuxkpf/6pcGE92rF2ItPlnE3rtJmNvxtGe5fD1t23Q2/7/dAaXw8r3a0Q1pQXL0in3sW7w4EuASH8oDAjZVnQ9sReImXytfXJkPKSuFxW9ISQ1xSORc3A0OY4MqnPY4rlwzbXFaRMZ3rg7hIp1YOiuwRSV4QIHkLfd0GXS9FynOpta22TVDmK/gSLbvFToqophBm93PhdTFeCOTV9Wr+l0VFGYXnnRCb6aKTNH3fUxFfkQbVYx0lmO9QMFp6UEYfrcxJF3LplexwxgqnYJ8j9vk/EgRMf0cRLUWeX7lhzIyOoaC1jKcfLfBKwNG5IXjHJDPL89wXp2b9tD5fG48Y975emGFbwyzK1D5WKIF14JzKDAUsZwl7uNMPzT58Pr7z0XLhwZjWsqD92GCuKNhqoHoYS+yzyptLxspvLIvGbodvYDcvcSByIWLdEwrtKCA9r05LlzCc0xvakVE+lwq39N5ie8MECaAy159xfCrJ4x5AqQjy0UAFJJjewDiNKm8fHnct+enMrvXUWqWYQ9XPqpJ+mmY9hQF0WNKN3j0sqV4V+2jdzKUOVPoenT/vkeCY61xd1rvcw4NsCKtSAXY1kJGDCsPx1uvoCwwwOi8knWcAhybkwcHLMydeRh7m+SK7HlbK8Qe4GHt/dDh6gAESn79uXRtKZGqK299UyhdHtZJayT19M8wFF/8E4fPzD5k28PGrRD1jex9pj+5SVTkD2knqsYx03hNxWh17R1cELTz8ZPvfic+H86UjKbU5WfAi1z41BSFn+5oZyvKxMr4R241ZYau6ImEXGg24I25K9lk68isub642UddXS6EvYat8TUZm0b4rqMoVTMpLHOKqAMv1hxQe7D/jcn8SIv0SPGNGWhDsBV+p9/wVIVaK19vYUsUarQGhZjILejikT20FBJ7E+muvj0JqHF/BQSHmV7Y+/ffRTkXoGSZ98ExTSRG6IpGzTFjkpW3x+hHScirF4gAhdAAcHXJcTJ2FYyWydVI8q5AWpk08+PZHvz6c5PL7DKn7yF+uVreWRSBkln7XndZUQc9PMacUnbTo2R9EPUFXp90NZmsPhcOk48Qz7IsZ+byKDfvzeYEP75kS0utwNLzz7dPjsS8+H1a5ouj8SWQ+tLnThoIqRJcy33wa3Q3/3ktJfE6FvYRBLv6adnJE1/YTinQ2t1dMi8EHoDa7JNt6Te1l9e0l9vCuJj3bzhKS9oa410lblYE2yrVP2Ncpb0c08CCRxVLG6KeiOKp5HnldRVymJYCsJOItTKofBfL+cIi+LxOKVyJz+MIhjaB5JO1NPOpb96lPif9OwIjy8iCr98WA5JWJWh4xbFwVSVXl1LxwpOxHmxAe8kxTD0OdhTpxHEdKRRz4F4nmWxc33byBqVqkktaf2TBfjkoSbfSsiJm6M2TnS4sX4wPc5j3l9jMqxm3cO1XllKIuidIdJCuxEZqQcP/0/GvTidIbqkY9AMnVx9tSSSPlCeOmZjkhZ3U1xbMciTlWnNhpcY167ejvs7V0VKd9UpxRpMrDs/RTMB6+LZOMLXCDbvcHdMBxDuCLkpggZYuclT0x3WBtR3+wDC7wvT07MOgHgn1ibR5QyEigTKrFKDGxdQO4/jFSVv0Jv5T4kZqJ6HsDdSexY4v7iBfpBem0mKIwhwZLNxMlBeo9QjLS/3gi2LBgcUk9pczGIaP0v+pGYaBqPvasudNXX5IOydjdFHT9dWc8g7W/hSBkyscGeCBK/E6GHIQBdfrMuDz+KkM73Qz6sUc7zLEqeDkgrclWZ5PUK5c1vo+ayFKvYhdZAF9bb4eVz3XBhaRiWx3tGIKPWkton7gfk+3Ep09vOBOvw+AsSueMAvaUllwxW18l9AHiKrz/mpYzROu10GmF5SVcd3HPbbYZXXjgTvv3V8+G5s01buMZ7kTt8094+F6T6Gl4JofdmCLsfhWZvI7R538V4OQy0HXPjrnFL9XcthDbTGnL3ZOUOumE1PB26ozVxrkqgdmhmgh8rPR6jdmqv/ZTY+zSwyhHcOsjjCrC8k9Adi2Jh+pkT9OTDwEyD01aLuD/Tz+lcPIxtQSyvEinVp3IK8llfMlEnic9oIknHQU3Kn8QQU7qO/hU1+tM+zJ/CPMSk6JdU/ZWWeUbK9XH/Uco7tcIIMlcuuV7Hbqt6uFeiLVaUqqLBqwBGMgJG6rMuvPlQ7WL7JJ0ijls7Ybx0O7Q650On9YfK8XPKR/3PdiADwYwF6llI5VbLLh6KpOfAn4c5iUKgTtrHFUdO8vvlOUPK2phbYpUrQMp9WXDDBp/DoZHH4dxqJ7xwdimc7YxCF1JW/iPFie+JSHmUoEo/AcFF4aeoQ/iZ8ZfBj2J/0D///+29aZctyXWeFyfzDDXe+XbfHtATutENAmgQBCFKojiJWjLtZS1/kWR/8R+Q/5q9lvVB8rKlZZGilm3aIgWJkEgCBAGQaKDnO1fVmf0+O2JnRubJU1Pf27cadd6qfSJix5CRkRFv7oyMzJypA/KWOHahL8t4JGLuzSXTInzpzn74+tvXw/NXyzBSR1Z0nE+33VUnn/+NnB+KbN8Pxexx6KuTFzxOos49Vfy890A99K4y8UUL+WeydBeDUC5vhELkbQQs0cGoJR2HuH/aDxNtEHI2MpbY5AiVYD/PIVamvC6g2m5LbBBnYnrSezlnkdPkY1+79ElW9ifByq49kZjxq00TOXeiytfCik7bsjrIa3GZP9d16a3emX8lfo3+MyDVRARLiH5F/1LAj1+17DJKJOOMkJXOTmTlOCyGj3QhxxTcL6vAl2N+CrcX/U7kZeWRgF5iw2ODzwZxkt3MQ2hrCyuAH3g8y+F4B4Z4qXEjkAN9IvF2gDxny3bK9KcsNJ4U1SnlksPuLhf9MBoNwt7OSLIddra3A2/JixkkzoXWIVnKxvyurAVOXRABZfY4yXJ14QSa8ltbebshzwrs7Xklh8JtlaFL74rkrj1GHfp1SdeB9JYnz1gpa7SCFSp9Kz8Mx7G345/5PeyS602kq/bX3VMgFWc/PtYaIp2Ve4zetu0VaUPpmAar5vfVN+3BJHd1MrO+rCtm+25h1fltKyCyRM0VeDak/ARAg/KIsTctJEz74zqI56u/29tbgQcsbMWCOopdaleH6PRYOybX4vSEfNqiIVAsX7uiSAJJb20Nw5X97XBldyfsbe2IlCHXBNrGPCLi5YFcROQsa8Eul1UGHZn3AfTscWnyememZnR+1sadvc2eLNh+JlTPdizXCyu6pMd1bwPr9AJ6k64E5OvQm871uduRFpiaPpD3g3XpXZ/Fmbelq+D6M0q1X+52oTvO9qJqg1OK0rdbYBWe3glZUhFyFmalRbEjGcmvvqz+HfuEo+YNx4aUnwAikSAeVsOmlqU/cLLlgYrtrVHY3922B0lYOsYyMrvEWYNoCdcdw8NRV+tXQZrkNbTDbaTyKDsqMkT9KnhAlIdFsI61F9o/LnI5G+3tbIXb1/fCjSv74cr2rq20qD+ciUdWsn0lhBcLPZA8Vr4jZZ3bFUUJKTMPb4+jQsxYyoqwvHR8LvdwnxW62mMN2m1HEF1nEV16y5D0yX9qoW/lYZCHk1gdkUQmDaB3eDpJlecMYg4unhPg6aq0uB1i8dl+KlyNk0p/BlTby6G+17CWlaYiXkRj2SQRsrn0T4wMroyviRB2pZO1DDF4cVYe0qThDSk/IUDKfsy8mXHtVZ2EpWDqYl/W44hlcTqw9tJ3Lqs6O0IT65O0I9oE3A63oEjiTZIqR7c+5mGXsfrZ0UjKxPS0j6Pw3I39cG1vN+zYW7CKOB1nedlfWcfV9/RYn4y1LMtZHdlOaG4lm/gUhiLYqMh4IUs5DrhnCeqSiTdiBY8D7s91jkzfiHJ97VTgLF/FuwgrekHN1tQlvUH+Khjj/C8i6rJEgvy2n7kOHKNviOMkfY7jdK6P/lj3XA9y/zoojeq/krMK0JDWmAJK9T8jZsjXSbgm40p6LNlkPnlfkqYwvBh5dG1pvzk2pPyEYJZy8gPz27GLUxRYyjKUbZ51azSwx5J5wMKmMBrdgI6gzlH3huRvpmnC48lnioR22JHSs52o6ECMr5HymN4UKRjLgJSncx5RX4Z9Wcp3bu2F/eFQdKp20T5CopaNr4HYS+hFyAuI+ZGUkPJEbYhloYLskg8ydiu5OsWlPzq+V+IciBV5cmLtlAsDskv/BMT6jLxdWKcXYhS/5M/EdE4iOTwOxFa3sKsa6NJn6V0aAclKPZK0wyY5UrhSR49l60I9GJtSbYew+3NxPbBCEjw+kbATsVvPxHGcJL1iW135troxa+xFAG4pKxWEbIEWDW9I+WkCMjLS5bFjUYz4ZXtUhB1ZzNsiZl7mfpKlfExUBdK41NAw6swb9SZJ04V2fJUn1+ORCYwzVwecyg8x7+4Mw/M39sKe9tFsXDIpVfxLpDy/p/OVXFnNyyU3+piSoGPLsbkfcrrEzluVom3x95kQCzu/NNAV2Q47XJcN4BXdOr381pYgj+/QVwcr0+O1YOVJbmzPuk09Xhrlr4wCd9vSqcfp0ruADn2Wx/+quEpwmuHacOmQKg4nhTvyr24L4LYJObkVCUtyQq7SSF3syMZ4LoT+1UTKZZq68HIzCiaocjak/BRgbWvCxXwUpxmIeHd7FK7ubYchAeaWjbzVJZI46o7WRJ42S55hjX5teuDbkjQStcOOpBcR2+Pi2mG+0zediZS3++H29e2wN+iHQj2Qm5xYDfwtFhMRsizk+X3ttghZ4R5rQM36pXOnbZGHVqQHS3hUlRuJCwlujH9WSPvu0obpkx/kaS19PnhdunQSTtor+jVpW/r6L+mtbXNBj+TI45K/amqPO6eYg5ukjUxnvpQuqvlxae9nMxx1zb8Id9vo0ku3UsesHCNhwnKrdnXQZzW2kd5e6JmlLFLmZl8i5bpWXEnKqbJvSPmJw/svLoKFzPwxg4swPMy88vWr+za33FvwEp38gEas9IeEnLQjVsPdebu2kkGR5DNJKtAOR6Rt6Mc5FEqdyS9eDttb/XDjyjDsiJRha+tk2vn4AnxeYMSHTR8qsQia/eddGLHAJMBdAUJWAdaCNidn9neMe2bI69sWUIf9t3kE6ngTi2rpojK5Z5NIVC6u83iQp+3S6dePiXWC5F+Ruvw6LOk8mSBdaMbZ1m17jhSuJKktZR52oECfxFT4o7eGckvvSepw1NXJ84zyN05uOeiT9Ha/wlP/L/bkyFKGlEuWxvGwVZ6z3Y/nG1J+mmB+1G6E2SGIZ0DeB3Htyl64deNG2Brx5JoTUo1qMCTUHaWZrob0xFmapMrR1qe0ueTREe3tZWmT2m5TGGFq77SbrCXhmmB7VIaru/2wxc4qPq5fJg5LearEj03sJqjdIUQoO5bbsELIYzlB7PCshTZy/syg1Ccs1ji11MeyLRks2NKBTj3hJOl4xG3WJLh+m23xX+C6nDJcZ0euEV4vjhj2v2aaXFK5qc7rt9NGLNWjfDvxzxQZFKiIlPJdXN8K59IoqEsnmOlLXxcR+wNKPDnKu7yDSLm4FUlZ/daSkcUywg15P0a7sZSfOGhmQB8zurIWlisCQkfwyv5uuH3zetgecuCapJx5Tw3ykK07a+qkDiX2tLm00a5H1zaMlNPdZOaUeTKRlwKNBkXY4UYzjYEJrcxVu9D5eWAEsbFAB6ZVvCuyISJoF140lQaLlcC24soMe+PWZ4Lqy6bOKI0GWIEniIma5JjgDeFYV2hLH0N5Oo93iai32QHFxdj6L8LzRI2VYeVETVe6SnDauqjU76quGU66VOdqO9U+uMTYXFeFK5LMZCV/rWv/re5nEvRVOUBu17YMqW8iRswa1y493ttyU1FylQz7I+bkl3xJYYj9/rP27A06sGSeNT0ckjTmX3JtL++VPUhZlnJFyvWcsiU4AZ42SlJ2oR1POHnXI5Z7GjBXbE/ryeV1mT3e/Dbge4a9MOrH/bL5DC9P1rKtsAhH6t9jCb2UzuvETAdVWvKxSsOWvsV3JIP4dJQ/VMLl4QWA1dcl6Y5tQ/Qu7FceTmL9pq1P7biyrQiObNc2XV/H4ebpUritrup2DCy6Iw3bOylvhZiuTr0+XyzVy24LqMONP6tPBzqVQqb30tzXFACxAghZ/ZgpC7eUlzwwsquuyjrlnTSXTMt6iZ43gStEjaMNKT8F0Ans3Rg0vbe7BtrCCDiEne0Qrl7Zs8eu4wBcj66Bdjq0O+KajtlC9+a6c9r0TCHrGFJWmkIEzbf6BiUWdBrU2e7ZskHjXp7emyqajuykjIVBY7EtP1FhKcc591gDtgUxPwlL+XyI9eDXpY0uHUjpq+jcD1J8U6lQvfceOj2UtpGcQK6ow6vbaaZshyI6dFJ1pYwgpi2CjZFWOEnUelwubbR17bT5/jmirqE3b65PYlYycDcH/ZgK4+akLJfvR0LMivPS/JcdrHbdXAbLZvriKUGHE3bzxgYQtaxnZKRL+91dvmuHtUeiPGGN8xKyWQZnzprqvII1ZUmJpVzyuky5JCnKvlnKNo9ezZXHkUXnowsyt9yzz9wTL5JVx0UqUrZt0TkjIetUJhVCtOKZIrEHSp5h17X9SsJgzeUEvVn95CfYhidrY53+GLClzuPWhpWdNsBB6kSKPwkqh78uxLqkE/WZJBJV9K/C+vqauBp5eZnkx6uSdXUE7uaIPTsSchKu4qr5Za7qZDELeUkrsIiY4kKRsllSSXJEkql3x/2k4xWfh4eH4ejoqPEtvScllO+u+xG+3zeZTMJ4PA5zhZmGsDdDqWpQbbzBJ/GDZO/95ft8ZRhKvSf189u98MJeGbY5duoMcXUCPpFcagfOr4XIqdTlPC+H59NStsRMMTOVzadm2rDoM8Hb0/25rNFLhw07pRPPF2EwmYe+XOqnmiuN9pmlJgP5RaTWJhLuPXODz9ZvK7rHUzU0kW1DoHibeKMU9l+/8scnIHlPM2SerWluy2kRd+EEYV9WpUJqioYohf3K3xDXJ3clI46hS+9h8gMPZ2Jjoha2mYejxPzNemVS6WKbN0UHSXGt4lbC5G/oklTt1tK7rNTLhPaWa3FddVLXkdsW0pvbkLzcJOpChVyXNHtgkuviTWgUKlnNwNdtFJJO1tVCCt4RPo8v11oUh2E6PAiz7Vthsfd3xMdvKI96vrIyjujq9Gme6Y2jQrAdxEPswH4vBIyAdCnMazMdOUE7MedC3EyE+ODBg/Do0SMjSMjyswhE25auNGyLkwEyG+uAMIdsa47jo8LMtdr3uHTGXOpye1kOQjkY2Kst+TDz7nwSXt1bhrduDMIVbtIq31wy036xFhfGsvZQD+mLhAaSYZiJ0BfiOlGUyp4u+kbMq6DdkvdE0L1qsXzeM/O4Dj2EfMDc73QWtg7mIuZpKOesriBxX0aC9n1Eh1R4ruPL6QZC1v7Tz2meXl+BkoBc7TtkHK0MdVtZGqX2T7a0uq8IX9vqLcYaBNwkxNq2SjUFpw0rtyUxoild6brEQLu3tu3CPnToaYG4KcrBzcTR1jfS4u8StWtbR1srU66vH1RySaiIy0V9ryHqy3LjsanLW61TLM63m0tMSzusQcrbBHXRr223S9IxaOl76n/kqUiasm2FD24mpM/Cvi3LTzgT67BsTgbUQubI3MrbUl+UYnogNz6hOu/fC4fbd8Pkysthcf2fhMXurzgTG6fDbgPVWT1b0rcoj7ev8ITtqLuocEJ25CQN8DN3OxMxP378OHzyySfho48+eqLy8ccfr0ge/+GHH4b79+/XxNzoXdRVon+Ovx0UtTgG5KjfC7eu7obnru+HgfyQ/WwWX+zPy+8hZR7GQDgB0enp3HZCUho207Opgyd7CFV68rWxqictH36lwxYSvjYS60lkXFcsu1agASyDtYgNYEAgKviJSOmsweoESacfIxZKzfIci7hHuUTk+dspEEaiXNtmW1KSLhynb8S5IhP2raWLFqYLyMNJcNo6sKJ3ZLpc7ejS+XHIQVt0oaWug8mH0xawTm9QYOU4ICk6j2+HXeUg7JKjSweybmjxxkME6If0R41BHbtlOLA+H4qbGuS3NchvyWVOmbQRXpRKsL8mCOskGAMXA24B53Ai9pfOuwBPiwspv//+++FnP/vZ5y6ffPpJOJDFPJfFGA+sfqxukqzdqbYTMx9QvXb1arhx/Zrtm1vkc8iNdbjodLKZqMzIwSI5FbeAqKVnn3n7Gp/3byO2YwqcAd2EjHZV3532GcPaPfmPhRJFsyiKZcrDGTnm6ap4l7PC8+RlJPH+cqK0YKqOo7FOn6OKPDZVN7o6mLV/U28h1xNoRp+AlNjKlKw9Dul4tfVVWgXPC/LCkoyzua5ixcO877uwuQ0ZYj1dGfKiIY3XWTjUVke6sn1ddvAtqbhqpi5nw4Uh5Ugk2mkub5PfkZOxE3JOzJ7P530/b5nosp057emMuU6rlNUHl4Maa1qDMAsvrl27Em7dvBG2RyORaxFGQx3QwcAsZh5XhpxZ98uTcjMxss03U6aES1GbZ41FZljTCTrVKGNEY/jW6lzb0D97eGVOEtChNwcXzwnwdFX6NdKOW5unjTV65WtqPV1TYqpM0vZW9CbZCacSR5cOtPRW/smwVI208ldEmcRStetEuK1rwVStuCqY6QxZunXHYp0ewDX6ty/Pq1rYsvZx3h5vNoSU43TiXLpl77oI+W2N5+dtaq7Hl9rPiAtpKTsh4+Yk3CZk4IQMsDifhfAVEeaWJ7J07YCmOsVBIdTVrcDCi6uQ8u2bYXdnKwz7fXsB/lDEPBEpj6fzUAyGJpDyVGdpGclWZizXbGe59UksihWfIelTqEZMG0tajY3azlyd+s8fseYNaQ32qq4NAsjlPPB87bJc2mQSj9Gq3iF/HnR0HjNHKsPS5Kmi3v/aMJ0d9CSWpiVr9PYQj3n5aaEqr4aF2mk7j0HWLhbfbif0cnKgjj8dOEbfMT1ksk6PUCdYUnXg+QMk3gxBBylPLH5RlGFmd65vhH74aih7LyiZyrUJ6bPhQpEyyAnG4YScEzNop+0izM9DZiLgA1nKkZSpiOppZ1Ikqqpaq6rWvyW8kIj3YDx/60Z44bkbYWfEnVdOREqvcuPBl3D3lvljXA4Z+6sCsJbtJspx6Iwmf+2tgD+Fc3Wuv1jwimUVzLzmsbaK3gj1l+Q2xA8K0tbnYYO7GUyV6dvhBtBTLtvDvyqxli4pbaU3b/Ln4k5b77IOKb5K4umj1F2sqV8nq/VyaSHvu5akI40h5bdjmfxtaes9bSVSryDFrcDzIEkFRNA2ju0GI+NTe1rMwkLkPNcVba98IRT9L4Vy8JL81xjEpD4zzpfrKSEnWaSLiB3ttIB0XaT5tGW+kKV8NLb531SRRKp1vePBpN4aXkxFiMi54bcn6/jF52+FlySQMsu+mMrgs0rRFlaiom9rgHk4g320s7URshNGF1LbpFAVNlmfy9J1xEbt+lwXCe26ejj+OfCdICuE7NKCqTJ9O9yA9HYAkli6ptSPlnu4FvKY3+Ka6NRblpiHvGvRzpaSN7MQaEm7ru5vt51ZwRlW6tIOZ7AofijThXBbcn1X2hY6VIaGXoEUjqORsMZkWvmx6M3CtDgMc1ZO9F/WUH1V7gvB3p9say3ODkq+ULDOk1B1plPA00J2n7dMRcaHspSPJpN4E06kGR+SsJqlekXXRCQe34zGi+/74dUXboXXX7odtgt1oOlh2BqUZkXbkjxZ37a+mamMvs7GIux4KYmku79daDQbHSl5G0CZ4lK8OR7O9IaWXrvyjJFVxGWlgogj6UwIZuE22rpG2rNJ469rW4Y6bY2u9M3404kj19FvXNr6PHyCYC1mf3lc/le3n8pvE3Y7nOs9rqvdsqTpJ2IlaZ7Qpb1Nwi65XpLqzc29Hjf4qJMt+xyGZY+v1s/CvL8f+sOvSl4J9nQYS3tZx3wOYr5QpOwdsN0R13fkCOKRLsL8PCSS8jiMx5CoDpB0Zt1XpEw6nlDjgMcn1YyU1QG2dNxeubMT3njxdtgqpRcpbw+KMBQxT8ZHYSxi5mZf2R/oOPN4sSxllRPLkmRt4+1gknRx+/y2kfQWV//VyLW1vqnL03/eSNu2fW3+WVymj2lrUU9J/nVoxVlZnjuGG5LHVuGIKmcjbRPxmLWjo64TWJ2V5ckW4l/MXIftz9NWeZC0/77RasP5TfZcYn+jvKY+bqOt69LHsLf7KSRtry6nBVN5XBZf1b2NPK2Pm1bYJUtLWzDG41yyVJCywm1SXvT3Qjn8pdAbyVLmnTb2vAVPhX3BSdmnKdz1DtIlOUjvUwk8fPJ5C5jNZ+FIJPro8WNZzON4IPN6JoK246oflrKxBrUv/66O3e3dIrxx53p46eZ+WE4ehfHj+2YtjwYDdYiFkf14MrUSRlvbyl+G+XRuNxmtA7XaJAJ98jZAGyZvDnRJ34jO9BcLXYO8rSPskuvXidJZ49RhtVYWdnFkYXNIXf8Z8uRCfVIgRXe9Yt62pLpQv6qOyek6oK5PEpOYMkoXUTfCUWybqf/WoDyFc5Uh6VeArkPMuOjQnygd+Wy76wTkfofCLVVM5X/aEm1HBLzE+nkMKrvS1cDt8WWR67qKfV6kLCt5cF2DW3EF8WQ6Oy7c9IUTcg4n4rY4yJMT8+ctHCdu9h2NxyLl+GQh1rItX7MK8g+dRlEWkSrkvLSLm1393BIpv/7i9fDy7SuhNzkIk8cPdcKVxayzrlvjTGVQJEvnSlnPc96lYeTfdfxpo1yft11SdULxWS5H1B6b8fOF74vVqSltfb3frgd1fEOUJg+TJw9HAblfSOkqDWGXKm0tkHFFyE6OiRC79P4X4y22kvw3+hxtPb/dJJiXn4f5q9MBj3fk8dJXEU19jUzXImS/Auy2ypWW9C4r8SlNS2fHr5IsypB0K0h6E2oS/yq65GlSjCGsYCflwZ3QG74sUr6mwa16nGPVhePCWcouDrc43XVx5OlZM8yc7uctYCCLFhJ+fHAQDmUxTxNhAqpXZHPMvBejFCvbAo3lLBSzSdgvpuGtl26Hd157MVzfG4UtnYS3+qV9YJWOwfTHdDaPT9BZRrVNqy1qSNelXgfSpvSNbJm+gXX6Z4rPUinP28wfB2IX8vQujtVw+68TKdtKPDpT5Xr8SdYR1FriasFUHfpOxHRWR6tUns/3rak3bZW21jf9xyOWewJOTOLbd1ltn/jX0uuEaPPIjF2mLBju9iqBiaLnGop7upp9KwyMkDVo7cJZ7meg1gtHylie7s9JGHFizuGk7PHPQtj+AItWA+Hx4YHNLc90giBsdbR64tMBlo4XCkHSRNhqi9lB2Ctn4fUXboQ3v3Qn3L66G3aG/TC0V2DGzgEBm/UtoQm8FZqtAWirLv1JoEN2lrZWf9Fg+33WanljuSRYP8vCOeK+t8StWkMdXk27Ht3tXP9GeDm1+N/J+hak8hQnI6ay1NbITVmnd4ntmYvUJ4A8xx2HCqRpJarypu3HQYib6Uzfocv1iJPyXNzkpLycaizONK5zUla8/pdOyjbmz47IgBcMkFwOb+C2eDrcfr8fRqPRM5GtrS3Jtoi2DDMelZaV7O+nyMFlmZFq62zMgyTbA1nGOvg39rbD219+Lbzy0p0wGR+Gx48e2is+2Y5Z4wseKT+w6Qye/mMao4bKa20zgvZK3ga8Dq1stbqJSt8V+axwQmVXojw9ouPQNSCRdXo7dt2gT8Y0xyEvKwn9uW2hpT6+atGdAPJYvhNAsq7yuvQETYhsxQmWvqW25B369TgpoeKdJC1tJl1615lIZfpu2G5Fn/3mICt2IjaUvREOYuZGPd+aFEPb16oHLIO7rURj6SY6YgO5ylDV62y4kKQMuog5dx1Y1hDycDgMOzs7YXd39/OXHVydMUWcELMqb3XLOze+ePDjXwWScskjGYmUr+2OwluvvRxee+l5nW/nYT45Cn31iIGImfXLkDorMuZzWdzloFq7bLDyE9IGaa9ksB8D60KVRFgBa/QxbCm07dgBY4qYyyXFAYsnTB66XdJ/BlQlpA3GLbT0QkNvafWTixeQyxq99T+Ju1FSdLXlamv6TTpPY+kyKNzoDxW6Ekd46ankVti1TX2tFazY5rE17mjrFT4VpyxJ3YRpWnktWRL8JunPTj0tfZ3WW4hf9Mm1XPVJK6bjr30ik+TB+NNCrWsk1fa5srUxxgoMM6r0pzG5LIfxIRFbmyxSFoitMZecOPhW0FPnykupgPrTTz8Nv//7vx+++93vhnv37tmjxIAKugDSIrPZzG5yffvb3w6/93u/F+7cuWOkBfwyH2lv0vNDsB6PtMvPw16Wb5P5ZLbxTKBq8bY25n2pBycHhJUZ9rkkkiiN74fvp4G1xstx9Bdb4eGkDD97OA//+ccfhP/7P/5F+MkHd8PD8SIcTObhaKxrpyK+SJ6hQx9h9QZiN0ekYMqkcm17sejYXvHGZFxDLVEpi6XK7GTtOm8OaflJfiyCocoYm8wXw7C/vRv+2X/9jfCPf/31aFQo3Ug/jKOZ6jmb/3VYPv5XoRx/nwVFVVlNrNPnoMMj4KzloEwD94z5aFP7VJWOW2xD7ZQ9XusnGhfB0sY8ls8KZfpKbkpi8cmbI6ZvQ32HfT72LNuVL4EyXbpwkt5uXrXTUF7yNtDUL3oaG4X6WtU0zUzd++vQftPeeYHmPS5PjT4rJbgxZ/CGT66NQ44P/liiHxFcvkFZ8JJ6EswfyTaehBkDbvh8KLa/GgbbvxZ6O78dwuB5LESdGGIhVrr2OfrOZvteKFLOyzwPPkvez4p82/l+uL+tq8AAW07kkdsbhNlyEB6p7/7ko8fhu9//6/DnP/l5+MuffhQ+enAocuZ9GFthuL2ng8+ThE6Laj+1L22MBc3JwW4CKh7ytn8jZOayecOVnxRo94nEO2wL6Tg1jpYFKFc1Xg5FESPVhfrz6tEy7I52wv/034iU/14kZcB3F3guZqxNzuY/DeHgX4e+SHlk+85Az5DKr9AOV6DOeV6l6UrW6msR6MhLnq544Rj9ckGbMZ/IMeXKyCUnZoEyOHNqH+OqAvlFbGr+DLEtDY1NcmySNwFSii9DXXO8TgJtTX2aG0rBlg6stIHym5Xawko6oVUmpDwrueSvdc1sq/vr+WnNSMqtvnJKDIyUMT4IpeODOW5jAMmiqIf55SrM+7zDHFJWGcXdMOkvwnR0NfS23gqDnb8T+qNfCb3+N5V+GAupixQ4CSm/9YvT42ypN1iLrhNNDj/xdAK1cYQGuRwev75xZSd87a3Xwi99+ZVw5/peuLrVDzsY3dOj8PjBPfWRWbh6ZT/sbI3Ufxhs6jQSBi2Dl3XQTHlsDfthezQMW6OBfROQxRx0sPlMJDqdhIVOpEtZEZ0CuTd0rChBPKxBNpuIcGehFNn0C50kJH11aGa6qa59KYX9kwyUZqjBycv6mZqJO53BmmdNG61FKnwlW9KvwPWSrmiw9ji53kcekspiX+wEk/xVmP30fY3uEgsKq1FifpMYbuizsOkKtTnpzi1eJm4S9Cs612c60tj6W0+fxN6SloeTFE09Fv5Q3lEmWyquEl1Gbcs1Ia4lw7n68+J8YhjouHinFBlzzbFYqFayHObzUv1ckZLegvfPSESyJY9O2xn0QHIUFsWuLlRf0jh6O4wGspL7r4pvbypOebWZ9OR1BCTOlbv1gbNhQ8pPEE66pyHoJjgMuvQxa5dPPoVwZbsXXr2zbasxvvzyc+GlW1fCtZ1+GMnkXM6ONG6mtrTODiCErIOPJWHWlEgRUmbZHTcJIWd793KJZUcGThBYbhrk5q4TT5eFVUcTwhDzdKyOLFLWtiFgI2H5eUdAqYGI+AmjkHWpawET0ytNDfztdgFduhbWJVnRS4HOZTWBVB06y9fW++gDHp+RMIOyIlzpK1ftpnjmPW3us9K1pU7T0JH2nOLbqkRlrugknBA687Nf1T5JOsNiUJNWHO0jJ85hdYhIN/f3EPkRizNRbz+P0NvKUpZ6GaYi2Sk35HVlY71QTLpI77Kov67iQl6O6zhMtU+L8mooB6+GwfCX5L6jYl/VsL2h/SOdkLJZO9r4kGtXJmdDKm2DJ4XTEnKlhyUL7MYiHI75zNSRkdpIR2ZLUS/d2A1/+5tvh1/92pfDK7evhueuboeb+9s67pPw6Uc/Dw9lNfMxVjoBsM/+2/QEIQ1jEWf8qkn8sglb5W1zrNxgbtrePOeXWG2hl2XhOBWShSF1WcpYzBBzWMhyNsEfLzftcnuevmGmOOZj7Rt7PpddCTVrC/vUoc/T4zSAbp0+ec2zRuzyPJeOOljjuiRYPtLCPImIuHytwoozYuNEp5Ty5rKURdcIa3S3dQuFG012RmmXAV/wjUd0je2gM32mI5/voktq52obCpvKyiVPLcZWC/W1TlF/gjzbukZY1ui5Rddmix0djW1x+5aKHoYl75HRJamGnowVGRRm5celbtZfZ+MQJuqzk3GY6FhOhiOZ9y+G3uhtme3vyvL+ugbbl7Rj14xFjb8ZHnn/Se1xVlDUBk8JJxFydNXZITidua0ji0RZB1mK1JiLvbnbC195+Ur42usvhl9648Xw5ZeeCy/cvBJ2Br0wfvxA/eZAnR6yVWbrFBK7kafylT+ub17aZ6UQ/HGM6NCLvG3b6garokFp9cp0rbB+JCJfjUjthQamyof42RFBVTAxS5n9wnpECJvfarJerH2Okc54cJLekcfnce2wYDtS69TC9huBjn1BtF8miZDdUlRcL5GyPYTQFiOtVZ1Zb239eYVtSJYqEzEmMUEfdU19rqOMWP1avMx2mHrn+iT0GfUfE/wmSlf5W9JIS3lyzyNZmXztketL7gWYiJXtk2pUw84sGAvJiJgdaJ+5sTcSr98UIfMY9Zsh9L+iomQl9/YsX2wW/ryBfFtxHJ4V5P6FQTxTXxxp18nDDTcJ70vmnRaj4UAn6sOwOHoUBotx2NaA3lb0K7evhL/37W+E77z7jhHzc1d3w66ImTlciDc+3UcHgUwlcrkTHG3VXphpkPCy/Ml8GcbpJfrjmUhUesg3lzmizsskhEkVl3QpDKnbk4kSLG6u1ibcaNT2MEHiBAa9km6WeqftsBKa+XQMrFE60Km3QjNxHKM3i+bsiLm0L9r/eLMUkdaOJ/uEODGnsLblnwUiNV8y5gaSi32cVJbhiq5THz8oey6R1RjztyXGl/LnQlzuh9DiHmQCAWt/jIDyP+nRuhi58uVyF1YwqLil/CYKNwxj6WpROuM5teE5ZCkLeBAOwzAc2QeI+zpWpSzzcj4IxUymz1yWs/xLtXWcpmO98WPlexDm5VhkfCv0d94KxUiEPHhdZb6g/ZGJLWB/zHQFOMfCNqiinJCI5xkC9vuMOHuODU4NJ15HVxiV0RP91OZ/+c6t7FDu7ussXeiAj9SpbuyV4csvbod3ZDG/8/pL4a1X74TXRc43r+5ZPrOM1aGwmmcz3lSXlggqgrXM9pY5SY8leuoo4mYjUZv9Fdk2Bd06fR3mNaLMXbNsiB3gEXCzxjWC6JdMySxCX5eL6pyIBrbxl7Zr1nSrPSJc73Ep7JLrnfTM7+K6lp6N5nrUhiyN6T0iCyfhD512TcKveQT0lCsi9quBanvERcTVGmRwfcwXrzTsNFpJIZ2J9GrNJDFNzH8eSdvM9snE9a04qwtu8jfKaMg6fSYyLpblrCGLPFxk/rYoblGI+HqTcwlmSaF9KNQ3GU+FrOBiIdJdPNIYeaRxcCiDZaxrG/VdkSk39BbltbDo3wrLwYuh3Ho7DLZ+KfQGb2iQipALrmHjnjHVvdA2mO+PhJwigE8NnhEbUn5CWEfAkXij5GEHfvjJOEphlquNtkZhMBSJMTc7FzHrgPNmVj5A/vzVfvjm26+GX5PF/Ovf/ro9aLK7rfSyKLj0mk3HYXx0GKZjdcj5TOX1wnA0DNs722F3bzfsbG8rPBJBq8MwzcH8cyZ0onhZl+nW6Lnsi+QU94lzgIxvI2O7L6MY/KGv2ve35O/Lki7CRJfSWO0ReBjULgpX83JZ2CXXd4m17Wkk2946PcdKfpcqDbtcWckg5TMijnsdBb3ScIaiHaoBytQGa9MRXSprUFdCGH077GnzuDPLcXlPUy71bonf2OvSN8Iix96hmsDlQN3qMJMDneAPK2nGKb3yhvMKHXOq682Z+jzf0Zzd11D5ucbHX4fJ8odq1b8Jk95HitaYGeyE5fBl8e67oRz9euhv/04YbrH0jXlkbuxdVZk6pDqUrLteFo+lY/9QaldziR0Fz5ngvWSDz4CccLtcRzvcCQ6urGW79BFpKpf+saZEsPLu6ST94o0Q3nz5Wnj3zS+Fd99+LXzjnTfCV15/Obz24u3w3PX9sL/VD0OWMU0Pw2LyOMyOZA2MH8t/oJ7EaglZC7rcYikbpL9UR42igUe4oaMTd+ttBYisQltDiivS5IEZyJo9haKMyuhl2hemP4ywpcD+s33rEmunVtglJ8dOAS1du7x10krHXx6uRajGm+vi3larVKrkJBIZsGxqyWmV/SZtTt65QGJZ2MgtD+N6y55RbE47uW3J03SJ72djn12E6oSZibWRhylD+2I3eRH2i3DSOXknob/3pI+Swuqv5xF1PBWptp/rONB8KnMpsl6I7BflUVgMdFU5HITl6HoIWy+H3tZXJb8awvZvKPybIuNv6RC+qUPHo9RDK27OKijl5eZgvLpJVOq7+xnwC/XwSLvczxNef9DluuThFFAHweqUV0EuWa3n+CUw+6SBzXTB1KYCSonsJUUdqr/dU7/4VPLhxwfho48+Dj9972eSn4ePP70bPr13P0ym8zCVGW6PZNsUBt8SE0FAnLS7Oi036BxVC5qnbs9aX+tG0o4ID1S/QREOpyNZ4fvhn/2jXw3/5DdfN9uOkrckfXmm2p/Z5Edh+fBfhnLy/TBiLjo1QwOtbefbrEHJdb1X8jg69YRtdFqojq7TxU3W4Rx2Y8gGYSJIIxhutnqZ7BSiExRkbNc4ELNkObFL5pinRr255jajKtfJb0R3PsTTJUV2lZFOJp1I0ycQtKVpJqxV3XoWoEXyzeI70hvalSDIzWEuJ8+D5Y7ywkNcDcgwKR/JKpahosPBWFr2ZeWUtzQ23gj98g1Z6m+pod5QWj7rpLgRRlIsKt4zlXEiq7rH1YMd54F+d3RY1J/VPHYO8y6AJL4+LTak/ASQb9frn7v5frXD8uhfR01BI0fayaxOxfnBVPEskcLKxNq0903QmRQF8YmTw72HIdy9Nwnvf/hR+OCDj8LHd+8ZKT8+HNtSO6YVWObECYDCObdTgK3cyEgZVHvTPk7Jdf1A7lB5l+qzi34vjJd7utS7Gv7H3/5q+L3vvGxP8EFT20rel9ic3fRHYfHgX4ZCpDxk+sTbwbFyDBVuqwzU2eu9Ls2qXj1Ne44y5e/IR5ouvSMeLztgCmkPRbCRkNWWli8ePAi5Z4Tsk08a2SLUubVEawO2yY6Nrujxd6Q7BaiV3XBck71r/Pi24x7FtlvXPt16aaWzRZ9YrRVSwo70nbq19yBOA46VxBhTVjFkrA65LLdMgki5178lw+VlCR89fUk7e0dpZTlrvMWGi2KkXIjYi2gh2xWQjm+PY6wgzVuRMv2LfmKD+fTYkPITQF5/kLv5PnWF9aNjFg/vnBt08/gUnc0t65LK5nQTGBLxUWoRAPlkNfNZc1tzr+OPeixj5Ij3ZEymIuNpeHRwGB5KHj0+igQ9GdsXTFizzBvnvOT038J6PU1d8P1A1kAXIhpVc1pcDQNdAv7eN58Lf/utG+FQvROq2hEhsY/MvS2mPw5zkXJv/Behbx0+toWh8/h1VkCgZHr/uvhVfQyit5asNDnW9aFKz24YKXNcVAeuaESy/iCOlckNTREwhGyD1RY3ipS5I19sh3l/T4O7TzVaiIp1eqCWt7/zgJaOxBqxWoo0SRmdOgzIZ4cr00XE/tCG1TPpbcWDt08OC2a6djhDt/ZkLGwVxV1Vfqj939Whu24SyptyIWReTM+LhWRRl9sSHStuTNvO6tgx9cHGdchZybEsMINQxBMuq4y8Te2cp32NN261v9ZX6A+nx4aUnwC8/sDr7/tyXNhd8yo/KxdoJ7gSwuUBD+dkklgyLFse1rD2koLpDCM3pgIiudP1uZE2FV88PpqFg6OxCHkidyLSnoaJkb/qrA15PZqI+7LanE19T+UUkql64lTEPFVHLwZXwq+8UITXbxVhqppwwbrDXCp17MtSmv0kLO7/C509vq99Q592cHVjEZ16dOwlhChUSbK0jWxGDxHmiYOmlcjQ1Ycsd6bmhGkHxqaYmqQcs2uQ6vIBQu71IGQkWcuD27p0eF28LQJoFpuhWwuoS7Y3ZwK9I7V2N1r73m4L9VT7a0K1aSSLgXYzev9dgaXLErfDCfain+4STsSieCyjQZeSOgYFXwrpXZFc1THEvaLDJZ1OlssyHtf4tjmuZSDWMpQLHTu6iy2xg5C5MsJCFoFLZftaVQ8Lml6vlkon5w0pPwN4/YHXP98X93fFAXt3hY4uS9SMXNNNPitRyUjJYEKY2rD5SObYcImkLCsvS6nMrF2eiJ0nMqMhaYRhGeewlUZ5uMjuwrq2zPXYCbxSYKxOPJGMRUBc3r2kPrhV3CdxmEiGPFXF9gbawflfh3BPpDz5vvqrLh3psJ3bssp2IJKAPSloIyVHytDKxxBLnoTTk3JXO7DEMLa3yuAYMH1hpBzrVpPySMKMukjZyFmDe+vLIVz5NbUF70w4K1JdMMfOA6vcGfKu7Dt9q4UqSfKsFJ8UHH+WiLX7W2sb6/odZBnn8s8OjnY8HaXxoXIsjEuZOpYxPvYUrwEu42PoygL+YwqGtCJkXR5SXUuPilUYgSdymWtmdHDM2Wfk9NiQ8hOCbzuvv/vXuY5Iyoli1EkKvxFn4Xi8yWKuEQECKZNDqWyQepkxlUFqW4ssl3O+WRtuVSuZBWPKJmzDqzB1FscqvFLbjg+nxO4KKe9pm73lgZLOw1TtMsTSoF68Km72o7B89M/DQqRc9iCs1GFXtpkU6/TeDivIMjS8CnhYdV5HyjqQyZNiO/qUTSnReImQ1bljYrOMaFQL2FrwpS6ZscpKXlxTPidSfjOEfZZXyVI7F1SolX8OWDbqbaFTwhMrXyWcEKUnym5uYDX6fiuOx5Xt+LAtroY4KcnP8T9h4+vGcDWPfy7AOckLqFbytl3QSmo2sSlZNmj9RnWBcNPuWHoSsuJJhBwNBvoCxExa5PQ4W+oLDsjuWQmXtP5KTBeHn3RsakLi7342kZ9HnxHrOKTlXRaSnqzhQmIPF0gfS6Rz6oAXIjoWsRdb6hSIrYWQ8DJPnqaTWwxE8PGhkeFgEEb9vq14GCn7UIXRZehwK6K4Lhkg2rxLr8cNKywDdVF10F2JEbLSMTc3K1Wf/jDMByLfUvVdqr4awDNlmJbx8tB22nacHp6J6Vs6E2ukylkVbbySrnjVz/1ttHTsho5kavca9kpUne3sHR8cK5srUqPOtJ9zGSFcGegUtQj3dVK6r2E6UVvsqNFfU0N9SW0BSSnJeeW8gNggC+a2Ty2QKuJ+XFXC7mZpv229o3RGQnKxhvlwaDkL8948zJSeJ0w5HNESYPu5oKuFJ0O7RD8UcE7Rr5xKFKY0RCVXrgt740LYYMVgXGBI4AopY7UbUsQrIx1rc8lNorPh7Dk2eCJwonZ+cD6o9GYNI5GMEfQRSaOeEC/NViUyY3TzEwXqFPMEhPozOGugA1jmVSr3ZmHTGfK9PwWq5Cfkqdoqod7g6XHMJqoqsB3bIRS+DQK0y1w+5h8RhRltjF6dmJayIM8uIjhRxbmF7cqlnPNI2gH9s58ugu27I1KKTlU2syrTwvzJtu5AXtZx8vTQtbVcanRra3hcaqe16Y5HbMENLjScqN2fo0m4tbTjLhzYpzXD9GQo33FZW2302XBSLfO2JSVkzMmUqxtOTZGc49N4R9JPRVJlmMjCPLuUYSorfCqCPo/MlH+2SFNN5xH2RH2J6Sr2aCrdVCckm6aR0BTM0dqtLulNRDHkoxU2OB02pPwFwjpi7sKFJOJOsC8tsf1rhV1cV81BnCxGq430LVTqFJeFk6aJqj4EUjubI6qyx45xRUPaJqSMrdgzQn4oeWBfL+/PJueSwWwsOTqX9JH5+FwyMPcolPODUC4emwwWvDTrofy831v7bE/QSTdHHofh4kByKAm2Tv2L0iOfNTakfMHhVnKbkHNizi1ilwsPqyL7sE6wreTafuLPJaWhjK5yMn2k1VV9lByr4bbGYEqRreplRfFr7a0Im2d1UkbQkU66JaT8QNV/oKhHImYR2zmkQKbnFOXtzR6eS4LLPInI2GSufVqRhyLwR2EoYh6JmCFkVpN1N+gGbfxCrb74oiPfd28L17X9uQty/+eFpS5OF7ostwX54iCDEZHsQ1VnbvF8kWRkj1nbNe/sL8Pk6H8O8+mfhdF8pMFa3UqJsK6R+kfVTZr9xWB9qEMPUv+qs7fT0deokCOLN2+LkFvZLVZl2voYyo7LW2y/bf/LidyxLut58xh3ga6Gfv92KIcvip32lJZ3Z5/veMU5e+QcqKZTzgmeTLPjy1rdaTye3NRc8nJZuaXiClYoPNK+L7WPrAu+HsoirTrZeUfx3ADb4DhsSPkCId/3vC3WuSBPB3L/08YTJ+VWv1gJ57C4NfH0p+Q1tMI2peCrB3JYsJUXSNHQpnTcaze/+rYRs09blFjL2vcl79nlsfidUPaviR8mAIUAADOASURBVJRvKd2DMD36QVjIkjwXjFizupwF3Di2g3DO/CwzYL+LI9VhquK0/zrBFItttadIWebwUiejWXisrci/3FLaG6Ff3AnFlX8Yiuv/VG1zPZa1wVpspi8uKPxElQsnNndd2mnOIs8Utnl+klh91ofbf3mcCYSTpBHfDp8gp0sLuSH4OQlKOBmhc2LmZKnTkYllk2Vpl/zjMBBZjZZ755bhYvd8svwsou3OJbMroT+7Gsq5rP/ZvuRKKOT2kuAnzWh2TSfda2FrLlJe3hRf6wphQzenwqaVLjC6iLRNxHl4XZ51OC7u6UN1g9Sog9XDSa4jnOuTWN5M8r9afwZCtjJXt2mPTrf0WNlx/YGQX5mY9Y0eV0Fd0hdGzPqz7xPydjhd3tt6bZHUmUVXnYiuTM4lnv88IlIP8/0OUb1wZ3JN8EPOV0Tc15RPlvHipsqg/hu6OQ02rXSB0CZTJ822rm0p525b1umfhKg2Vr+ngZoCo6yCrUfCrF4E1JC47516/vA2sKLoVBlsez4NgJXsxOx6AQJaDmQlD0XI+KWfH8rl9ZGK5z0LZxUeouARb9zzij3lcB4ptbd8DswfqaCsVnlGJyyBK8O01w+zXv2AU/XQyQYnglbc4AIDYjlOjByTW5FlK75L3xV/ZlnLWmcBZaRyzJuH5eZSpU2yTi/hr1OfpW+0hTQNmK7Werqol6UMyRJvN+wgZkJqkWquGoVIeQExF3KVfnEk4XP1izApemeXsqe8vTArRHyfRUSgZxdtXzLWfo0Vxm9hc0MKh3CUdJZGJ4EZL53yt65tcCpsSPkLggaBtKSTMD8H0cZT7c4Oy2n5M4mTr1lYTvK3/6K+GxbfER3zObyMbqm3sSpx6iKRsgiIiloMPGw+dFiTIiMjZhGS3fmcapfHSjexG2LnkQUiajyvLJFWmacR227vSBcAByYBKQ9kLEc32GeRJD2EsK4KSl0VmEwU5hGSDU6DDSl/AQDx5miTclva5HmS/rPIZ4NRWVMix60PJ1m3acXEJC1YXdt6L9vKBySgBLlpm/5Xp4tp4lQFrgNi1p9VjIQiZXs0GUu5FDHLa58m4sm++ADy2cVfC3l+WfpLlM4q2n5PxGzC6osCv1zTxW/oRYm6QieeokC0XVaj8DIiO+lucBI2pHzB4cTnJNglJ5HtOgJu5zurUMaTBkWet1ztFT8rMP1xsO3FNCekTMRsDIunCS/HHBKKlGUp2/yycfjCyHk464fRbHguGc4GYTjtn1OUV2UMpqMzy3A6DFuq99aiCKN5EQZyo/RqmffCSO6W9p10W3OWy3FyQtQG1iYbnIQNKV9gODkdR1LE5dKle1qin8hRjiyA18WQBWwpM/kBTiZV+hW9YhrhplhdWnpDl97CSZ/iDB7O9I2wxLZflaSA7YeL612AZYiwZBC0yHqOiKzOJOQhv8q2bxqJ8CtJevuMOOLpFVdtS2nsm/ipDrxSdb6VZCRR2PS+DVwkbV+6aPETJzGyjfp40on6QnkKm8uRkn22B0yUboNTQS2+wUWFPxjSFn9NaJd0pX9qogHHl6xF0fb1duOL1KN682Xozxeh5J0IAlwQe9tSukUYzOT6QG6J3RjzPwsjbKsZNkJMQvGRaGspEOl58s78mUiVSSzPysDNxD420ZKeWb8iMiMmpgV4twUPyQxCaXqIiv1mnvWBLt+Zd9XO9njyjZUIbIjwGqnmrNvCNMCRymK+VhXpi0T7ItN+X5uc6RgcxA+CksYqq3r46zZhTT633+OzSI8UR1j5e/tJ9nS+4KO8M5V1KAP/YVj2H0n46vNEu8oUhvZ1OVFR8lPNJfklVhZx2qaRr3Q0bE/7HnjgDB11YMc3OAkbUv4CoJMQzyhPA2bt2nugeZ19GqfOdDgLERVPupFMwTgmRYrSFYqzNOsgomzEExb4rfbGSCCX4/RZ2PztdFFtP7muEU46myuGeKijCMpXYhj5SG8WJHsscrSbXuNEXCJIe4u18hn5WmFJCLus02s75KOs6iyxEJnOZcjORMbIQrIUibINRNlsPlp1UH24WTfvjVUyn9mfSfiOIp/t4t3HKocnEVXWohQRl/IXEnSQrhEz+7vQYdc2RLRzCW+OVs5UZVGKETMvLBWhs11rD3QbnAYbUt7gGcKJpyWQn5FQpsNszcMmbRynb0M6N4erfEnaeg839DjJbSCLb8PSHxN/HCwbhMd34WTZihiXiweST1XsPfso6UBW+LB3xaSwE4DacClrd3k/zJVmthyLTLckRZgsHkk+DOPlj0XIPxal/o028andoIuPvOxKRpIy9EXWffucPiefDZ42NqS8wQXDOtI6icjW5cn0WI1mObbh6dpltMMO6StCzvPl6XO/0CBkSTsM0HXobQ7f05glviUdN1sfi2AfiXsPkvE80jmDr16MLOUyTMK0dxgmso4nItZZ0ZfBui9u37ZpJqY5ZsU9ufdkFT9QAaysICfTMypnoRPAgukYwkR0Nt4GTxgbUt7gAkHE49xTIZFTl76yWrus6pauSyoSbMGiu/Se3sW3kcP1IMVVeRzy55a370c7bKKyki5+ZdlmzkXGTBdMQ28+i5+Gs5t5Imy7Iac8y8Mw7x2IdKdhVvYVfS0sB7dCsXU7FNs3Q7l1Tf49ybZkK5TDUSj6Eua9IeQZshvClMemr6rcK9IzZbPB08aGlDd4hsjJR9IgPBecNfoVXRJLD1r6zyxArnk9DDweWUfILhka6iwuhXP7OAJinku4uUhMIa6GiBFZszNZsnPFLY5UC+aOF2HZF8kORMSjN0TEX5V8PfS33g2D7V8OQ5NvhqH0/a0vh3LwYgjlNZ0AeDeHiofcualnJwApqnbd4GliQ8obPCP4ID+nGEnI20ala0USzKUdb5CuqhNIYZdcvwLIeB0hO7KwOR5OOrCSJyHVYcnNuuLAbt4y79tbyopdYMlCyiLQ+aOwXDwM8zAJywLr94UwEOmOtn9NBPzbIYz+qxC2/lHobf9jWcz/NPR3/odQbv93kt8NPZF1GN4RMfO+ClaO3JV8IPlQuo9F1rxHeYOnjQ0pb/CMkUjIyChHW++WY/yr4k1ydOgqossFnKDrzIeAlo605uXH3baALn0u/Lb2MZUZdVjJfMaeFQ07SbZSGm7GsXxNFnNxNZT9l8Ng+E4YjL4pC/lXRMgi3dHbkq9KviFy/pbc78iVjH5V8nWR8lthIYt5Lot5WapcGMIekVbZtmJkg6eNDSlvcIGQSMgkRzsM8rRJbBmah+Un3NDlkmBkmokj9+cwfS6UL7F7YEnXSpP/8b9aRhLTZ/UlXKVNeoV7C9Zhs7pCpMlNOVv6xtrkQxGp4vp7oRy8JkL+hoze74Te8NsiWxHu6BVlEYmPZAmPmNa4IrkpkX70FaX5WlgO35V8TYb322FWvhJmxXPastLZDcYNXXwe2LTyBs8QbeIB7q/1FaEhVXqQdK43eDiGaiT9iuRo6/NwS+/1MEFlPydKtR85+WZSx+NbZBJ19h4Ne/IOS1k6lqrx8p/+OPLz6FooRq9JsIplHfdlEfe/HEIpMi4L8epAWUvLbvcGJYuBMg6uioxfVJ43Q2/rLSV/K/S2X5QRfjVMR70w7kP6myVxnwc2pLzBM0RNQCvSIDmQh5PkwRztcFI4hzYDHXIqvWCrIvC09MnvFNuIb6ysyERlO/F6uA02VSxG4kYRLGvaeLqu91AEey8shhMRqCzgrZdC2P5aCDu/JuP2b4mIX1YaMa+S8wCiLdSQpMdAwlSEHydEpMdyHn0pFDtvhHJfxLx/J/T2t8NsZxwmo0/DvNzMKX8e2JDyBs8QGQlVkiMnqhoN8mpLJ6Gi7tK3BbTC5HNpp7NgrgMedl3mN28e1p64ZOma4Vos1hYYs+wNGn1sy97syTtWWQyfE6m+IXlb1rHc/p5IWclInkjZNm+Aih+Lkh+IpA8VSk9lFkrUf16W86uhN3w1lMPXQq98UfpbIndtY4Onjg0pb3DxYMyRSMhhqqiv4WGXdVMCXfouSL8uqgEl6rR4I+pQW19r2Zc6xiFNzZoZ0KU4JK1DXixlJfPYdNkLy/51kekrIuavyH1TI1thM60jIc/s0etD5Xsk9V2pPzE3SCIxH0RSts3zGPkLyvumCPmXQtGT5b1UuctrRG7wlLEh5Q2eEWz0ZyCcSCeFIpJe4r6I2hehcFslheVa0QNX4roIEFmuI5wklpbSJadGlgfJydVUMRzrU5XSBFHJm4OsMTs/TFkcmCxFyFi2y0IWccFSNpFy8ZLkZm0hM2csdylruBdmoS8ruz8bina3Fc2j1PsigR3F8TSg8vj+wgzFjpVV9l4M5fIVqbWdDZ46NqS8wTMELJCJMY8T36q+KSchEd+xSbst6xOlUZ8aVnNj0KRI8D2q8kB6p4GV1SrMXnL0UPJYpAxBD+TywMdLcl9VvMgZkoaQB5KC1w09tnz27r3ZdgjTXZnOV0O5uC5yviXCFTHP+3GKvCJlXqKEuyPntop7UWrl2+Cp44mSMh0yfwG6iy10L0t7tSTwt5aRbjabWRp/7eQGXxwsbX5Tg1kuhpkOY5gt5mHOfKesuKVZcXwOSRzBtfESQhmHaRiEyXJb6UQolMFb12yJ11CUxRIChW2ZlzLaE2zckpqLFNRP9FvYW8foS84gEnuLXFPsFZ8df4khheRvC+jQ13lbEVFJbCb6s6i4zeqPsPTNtJKkY6/qPeOvqQv2zbtRevEab3qjXQr97UluKFGctqA5OOXwljY+X9VX29pRGsVVGgaOi5q2r2MzUJoyrUNm7tme6itF7oMbYbZ9Ncx3dkXyirdXhzKWt0KP1Rg6MbBmumDJXImoptIvdXwWs2s6vqz6II+2aw0S4VyB6+H5fB6m02mYTCbmv6zgWD8xeEMjIPf3+/0G8eL6QQCQNjrK2MgXRESoi+nQ3ujIwObe0XQyC4ci34PiMEyx1grFK46vAvHiHN7pO9EAPlruhZmIeKnr66W98EYkEDTQIQOz/goJS8EY+Mosv/UcYyPWzOIm9rFx7f5MLEdL53ryrBO7I9ahl0SaFIxg6NuIJxAahkWkVUgzkrGdUpS0o3yQhWviJl8Kk48vQ5e7YS7y47WavCCzt1zoRCULmKf7sGYpns2obsulSFNVLEWObHtaPgqz/mFsBqqupi3nyzBc3g/93j2luacWX9hqjKks8Gl5I0x3roT5/igsRkrMk36lTpp9lVekT0SxTC9o+zwJ2Ndx4ZWg0i2mtzT+VR97/zPvVWbnIuAFxn/OFYQh5KOjow0pPylAqpAr4nBi9gPAYM7TufWMHhC3kS+GFIWOn51MOYAcO3UoO6bo6AMiVunt+Q0be0ogwu0PdiVcFgu8JL76FpwGohJDMvFF9doOeUwAfYSCGLByna0Myd/WtfWIVSpFnwVVHvJTD1dksk7fkDOglXypK5HFQqRnL9LfDsVCJ7KFrjDsO3p8tJSpDaWDGJlH1v72uPIQSy8XsrCDLFddmViL8sNh4qyp8hazga50lMZOHhy9nizsfhjMd8NgdlXb0snQK4SjPJyYeTczV0B2TNIu8oblZQmBc5zSySKjG8Z920hzf37iv4x4oqRMIw8Gg4qUaVQn5NlsVhEz6ZyUPS164AdrIxdfSi5VB5LUi6SSoaRhrEtsvsJBhPGfjy3Mt95QhLynfiJS5iXt2GSy5pZGzk7QXJIrKb8QBPlMAxjkWM8Z+UG07q8ki18RkPtPD1GFfjxvS44havJZ3tPCsnoZDsbTNMzmYzUR00a8+2JPApHyUdR7aosP1WSfaO8/VfoDtZry25dHlJtz2YQ5Za5MpGf6gS9Ni8AXItzZZCvMDrftMHBo+LhJT1cNo+lOGE6uKTlXMzoW6aByhcPJwV6QxBOFduyUxIhaJ4U+X13hWN2QEmJOHUWAgHOjDGyIOaJukacAGnw4HJpA1n4AnKjb4pb0Rr4YwjELU51sp7rc1dieTjmOWGgaYDbPyGWtxiXnXbPIIGoIZE+iwc/6K5EMpNzjQQgTwiI3lc81dvxTOfLbdkU3C3vswdMkOQkkqdIeI1U8SOEk/JnOzw+ngZWXox1OyNVrkkTArD6PzJeyOXHJKl08CguRMsvkmLJgltimFExEkmp/3pXcV9lInL9AKUdiU/uI/PCimUrLA21KRD/9KPQnH4igKRerWwXo2C0gX1vawTEnTsdOVvxcx88+H9U/0vlA8awMMWK2UlfAcYWM4YeZjDemL3DRX0Y8VVLmTDgajSpSzq3iNiEj6DfyxZGZCHgym4Tx5CgcTQ7CZDrWYJLFxrsZIFL98SyCvTidQw8py6pjnnExF1lAyhUZIxBytJQjmcEYZEbwS20znliFkNNZkA/wdYMdfVPyv2bcKaB9OFVq29c81bpc6Jhbn6tFIikXdiUBgYmUF/clvCWObwYOJbKkjZSxl+ML7KsB78VbE6uemMapqS2Nbeqx5G4Is/fFtz+TH2uYEyvx9IHCxKxi++wTxxBS1nhm+mSg9H2l74mUw01JHP9+Um/7IWbuMR0eHpqbx10mVMfoSYAzHTf0GLAHBweVjMdja2TOfsR5Q5MesnZrGtL2S5iNXHzRj0l/UIatrYFOwP0w1PFkumEuQ1b8bFJd1dPdetthMLwZhqNboSijFQewgBvzy+onqHITjjR8cSPOn3qhmZiFnaStz8MGd0HSV6oYPp4PUp610lE/xArN4iycSTvcEhtjZV9jhSkkETRL45Z3tYsfS+4Fvn1Y6IRXTHfl6jgpG2tWFkGE3btvhq5xYzXyB8E+ct2fhOVwFoqRMhDP5uwgiphnfyP/D1Rt+ZmWknphJwL2Q+CGra2g0fjujeMNSG4GFjdCr7ylbV5TmTrW8bMmse8I8ICf4J2AHz9+HD755BPjDPbV014m9NQQNP8KUH/66afh93//98N3v/vdcO/ePTuDgcbAFLxB3f+Vr3wlfOc73wnPP/98uH79ekW4xHEAfC7J8/jKDLeYN/higCHGoB9yNTQa2qUvMtNgnmHszuJ88FCDnKtYSywSCbLowtF/CeHe/x6WR38lXSSp2Jv0azcJNahtusO2IolvaWDqAuEGVFyIl5D60go69eicGBPMW4djtiw+Q8/q64TUncb7dhPS6d/mebviTyrLxpxc4zZurE1EjjJ2ZBUv+i+H3uhrYbjzO3L/ltLwdWrlVRMhi+KHlq0MIsmwL5LV+FNZfGV83juU7f1Q9dqW7Ih2y1Dq/GjW8UTH6dH/GRYHfySSlzJNT82VeTGHjDlRHKleU10VaXzLQp7Ivxzu6/z7Uhht//1Qbv336iTPxxMC9RfIhzgp+1X0X/zFX4Sf/vSn4e233w6vvsq668uHJ0rKM1nCLGl57rnnwuuvvx52d3fNEvZ0fgD8DOgk7GFPt8EXA4uZjqeO39vvvKUT8Vthd383bOuYsxyKO/jGWxJbusqhNVLmMldy9P0Q7v8fIuW/VEScvuiZS3eEPiBl7vZrsBpJa6BL5kbMfNwTUk6X0qCrG2e6ZixTAOtJOfMmNAIxL/uCvhmVsMbKNiUnH/J1ZlzRWyjpbHzYy4VoD7VVOJJ1/MhaZl7eCLzhbbjzm6Ec/V0121uxGSMTS3hJ/YFSYjXv6thdEaFzk07F91VfHkrhqT5aVZvrQ8pHP5H8xxAO/k2YH/1/ssI1TrXrfNna5o25ipGwbrwnMi76BwpO7JHu5eBLOjn8Shjs/O1Q7v49Faj60REE5wu4wOFG2h//8R+HH/zgB+Hb3/52eOedd0znuCz88ERJmUsOpiu2trbC1atXTce0hZMvYQ4E+fBD4sR7OW4xb/DFwHQytXXJ/+Af/Fb4nb//m+G2TsY3bt7S8WS9MZ0rig61BrvA1z0Z1fS48Y9DePCvxc8iZy6Ll1GYH7UMRrjc7YecMbGYsoCUx7LsxqHUJXNc4bEGVkaE+bIwGuZlU0wGyMmcFujfyStgKRuxrqCZbjVMO7DtmoxWEjikb8doxOlHbVJ4e4hI53fVKqwJl37wkkjw18Ng9OvyiwgLTmoCpNwXiZd3zSKeha0wn8YHOyBpnkdJMwsGe5gEzj+UlXz4Jzpx/tuwGH9X5KvjKgKe874NTgV2o1Zjdi6rmDYZfCIylvVeyoLuf03hfxjKnXdDuZ9ejqRj6bsLD7hB5kYZfPCHf/iH4Xvf+174jd/4jfCtb33L0sEVnuYy4ImSMo2MpQy5coOPBqWhvWHzfAjpifMDs6YqG1xQQMjT8TT81u/8eviN3/o74c6dO+HWrec0WIcS7qZDJOINDV5WBPT7Ou5YeVxPTz4I4dH/JXL+S6W9J7mrkfqp5FC8rRM1aYyUYQwEImPqAlKeiJRZ3QE5dUH9KHWl6NThCCfGXJlIsFK1SDELGAH5yaUB9jN5Da0yhLj+Gu1K5ohUQBXbKJDWHGrbtIe1rJHyfPkwTMpxWAz2Qrn9dii3fjkM+rKW+19VuudiNki3r3HYZ6qiHxbT+K4LE5pa8d4iy7GOw/iDUIz/NBST74Xe5E91sH+kQxCX3/FWOU6ONqe8GIiUr9nUBaQchjrtMIfc/47Opf9t6O28HnpXRP46mbDsDkscMNbzsQ9PsOriD/7gD8Kf/umfht/93d+1KVDniMtksD3RvaTRsJJpQBrTG9TjEOaOENIw10z67e1tE4ic6Y6NfHGkPxjqGM81oB6H2ZyrHgabhDllRrgIYSFCZhDbAwVSRZ6R5dS/I859Ue4t8bQupwsNXJlsC9YhK63d8MMlF5l0rc2grh8qsdJWxTYAITbDq+JI5FmpsrBLhVxJOhFdJW19M21T2qj19W/TZ6XatAFkKCZd6KS13NYJamjzvcv5JxpzPxDB/Qcdi/9X57Dvqvm4STflIkPC9AM3ADXOVKBNU0hYSswcMlMWxeR+WE7+Sifb76qc/6JydNIMn4h0ObbaLs0u4DRFZcuCL3q7Gt8vSF4NRfmG3eizeWtOqKq38wHIDTSumLnJx5U2xh8kDdzgu0wG2xMlZRrXyRdh0O7s7BjhQr6QMHrS5Y2cN3p+oDZysSV2nyJ8/Okn4Qd/+f3wyccfyXrW5asGVLXgQcn6A1k6vDehN5PVrOEpEpjzWDDv7R2+JHaQdd2/Kp7ZEjFDyiIfpTUmseVxPpC13aX6ll2Ps/0uxH6U9a7kNgHBrZCpm44rYU/nOyXBaaNLB1KWOj5XZMI4OC5MiPlcHtSw6QvS6GpB5FzKCrX3i8weygp+T8fhP4fZ5I91RSJyxp2xeuJ9ycNQLI50KJR/pvyWR+XNPgo9EfHy8N+Fxfj/0fmQPN8Xib8fevNHykdCTqpyjYU5Btwv0nguWY8sYbqkuK045rOZsuB1ojrR6ngx4ZOD/uNcAB48eBB+9rOfhUePtC0BPoDAiceI83SXAU+NlL0xIWbI2C8/vHGdiF04ALgbfHHQ0/Esy4FNbf34x38VPhU5z2fTaA2lQ8nhLmRh8bKbJaTMGlbF6cJV5pkurQcvaODeFLfsy1rWAC40gCFlY4sk9Asrj76jPiZiFj2jEIjLJakrfQo2gPI4Ad1h+1O5/tfGit68ro1/XlZDUpm5ristpMwrO+0zUNY+akdZyiXEPB+EgjWI07syjn8cJpPvyeL995GYp3Jnf6qG/6Gy/bXCP5Ve7hj5M/n/g9w/CvOjfxtJfPpnIu73QimSL+YicNbN0Z72NCV14RhAyiJMSJmXDtlqGVZ38D7nV3VsOfHGY82Ekf2n8e9cAWhPSPnnP/+5WcrEOSc4j3i+y4CnQsq4NCjTF1yGMM+M+FplGjwnb9Kid2LeyBdDBn1dCe3uhvHROLz/wfvh8UG0cgpZT4w3W3FhwMLS8RUhQ7eMrziPuSfhq8lX5O6EpSwtXkSki1xLZ1aZ3CgiArjAyNgLTnq3aHMBLd0SSX/rYPt2THwN0pwgKmtF1wXb5mmgVLzZie/llQfyS2xegiuI3dBfXAv9+Q2R867UOgFOPghH4++Fg6M/DJPDf6Hj9L+Gw+n/Eg7H8h/+QZg/+ncyUf8whIf/SvLPw/TgfxMp/xuR85+HcvIg9Cd9uTcUvimilsuDI/ZmOOoiorTVGmJdvhGIGCnLOl6+IlcnXNhFgqW8lNi7UtKYd5L1sQ8pf/DBBzZ1gQHncQ5PfxlwKlJuD0bgjZSHXTydN7iLzzETlzeyp/WyNvhioCgLEXPfTrYPHjwK9+89CHdlNfNkn63aEniBTrro1fGNOu70I9b7Si5xr2s8X9Ml8BXJrgg7rTCwPkKmjHwtjKM4W4iL633J00L8GaEv6Vty7Yaj0ri0IV3dK3M005Im4/pKSNcOe95aH8NVnMJRk8KVXmnlywXY6g2b25WlzPJCWc52E7SnK9GwFUrmmM1ilnU7vR8Wk/dkLf8gjEXO06M/DvPDPwoLyfzw34fZkUTuVDKRRc2Ux2IqS3r2kcrQMWQyeLajc6pInu8C2juXZVAhqYJLkeyyL9IdKL4vIu6/LHlJIhLn+CpNfLqztnbzsQ8ncIPv7t274f333zdL2S1jjpVzwmXiBpqtEzSKNx4NAqky+LxxPM7J1BvSidfjAX63jLsanPBlu0T5RcB8NglHE6zjIgz7++G99z4Of/In3wsffvyRWcJMVUxlsU2OeiKGoQb0ThgUo9BXr+NQ2w0gXu05uBPK0cthuPVKGMrtD54XJ19VsSJnY3DIFZLNiJY1srwghzeX2dNk9B2IQmkKCGuirLxLmMt8lm+pX85lg89kANgZQkkguIag69Jnoj5rxErXbQkv78lJuWAFion8hJNeA6QWnSzqt+Jl5XdsgO3zMvpiOgrLGQ2s/JAzlvNABN3X/tpywWkY6gS0tSjD9mIUtkWqW9P9sHO4FfbuzsPug3thZ/yTMJr/MJS9HyjPxyqZ8vfsKyOFrN3ekndba7t8Qor25G1vfBtwPNB5YK7ggQj5fpgNp2E6ejFMdn45zPf/bghXvhXC/p34yg0Oi4rwdzlb+ye+cLCMFiv5o48+quaUnQ+wmEkL9+R5ftGxQspOlu1G8LA3mF+GoPeGRiDlPG+ez4nZ8zkIu2zwxQHTEfO5yI/pit4wfPjBp+HP/uz74cMPPwjjyaGtxljQL/gm0VwDk7lPLLrEfuIr49JeeVWG3h37UGcxfE2k/EooZXX1yn31UJGuWYJYhBAsN7gIQ77y2+U0YWpEdxZx2PsZJLhG2Ohin2NaxPJDOPTBXNBJrHoNPerohxhTslqyIruFHc3CjUC3sJ0VIUpE25uJrHRGs0fOte9L2sDe+IYxxAzuIvRV14FOXEO1/VDt0NfJq5ioHgc8uPNQzfixytLJcymXV36qjryTuVxei9a2qDRaw2p3O6tQLW2D+WVOJqoRL7Vf6gpnOXwzLEfvhuU28mYIW7KaOVeSh2RysK7bvIBAwljIPFp9//59I2n0zhfgsl1Fr5AyDcCZKZ9qoHH8hh1iS6F0FoOcAWlpTOaNvbE38osvDBy/wqGvcMPvvfd+ajdsPv74Y+sTxNNnWO7o/QVw/q2mMeiG9oL2V+X9ivj0q5I3JM+LU3dE3uqHsniXS9bJQ85yBrLQtz7Q4L8rv0gFM5R1zfMrIpybSnbbZLlgLvSKtjey6ZayP5fLy9mPG+Tav+Q7N54Ch8QiqRs+r6OMGUzSSmhjo0FFKYW1ncjU2k0WdaF240X1tKeO2dyuOAah1Emz5Pt9SspSOWaBzUayA6XyOFCW91M7xy3Km7qaeSsMyl8Ow/JbYVh8XVdAryg5Vzjkk1ANm0Z6LP00lDobu/FF/4E3sJD//M//3EgZPSAOEM4NucsCmq8T+cDzhkG8MZ2wiUc8/QaXB943vE9Awg8fPrIbNu+9957ND3YNqNhXZNXJosMCjJBVvHxBhb4uboGYZXHJcl4OnhMB7IZZ0bdHR2wNs1nJsta4pLY5AWU3oTvziHcU2YvRDzvYGaAmBUvfBfpwXqQpm/4GrPr8uOTo0rfTnBXkZ+zhVY1gSGM/CFlXBnazTf6qzUlIm8VH1O1XbT/jmFk0FrJoXWZtXy7vUI5V1I/SsS0T2rychslARD7Yl3X8UigG7+iq5ps60b2rEx3L4Li5txWrpea2E2mIJ1I71olDAFOhWMn0lb/6q78yKzm/AgfOJ1196BcZK6RMA7j1Q6N4J8ZPQ3J3lEXeuIRJj+XsD34Q3sjlEEC/4ASNoOMKCqvnhz/8oc0VgpmuvLiK8hN5TM/rJXnfBdMRgPK25fAwCYT8tgzfd0Jv+HpYDF4Ii/71sNCAt683c0m93BLXyBpeXJNfl8sQcG8mMjgQTz2QhX1fJHJP5fElDul8O0yl2LRGa5AbGUUSaEAqm+eV1yUC0iI9pGWZa1mnN/lsYPolTsFQFrWh3RIhu9hj6Wam6h9C5SVC0LFoUhbxZDESKSseEma6w050ah9Lm+ppm5CedygvRKy6Spnp2M63roXF1kuht/VW6I2+oeP0TW3yHVVBJ1QIWdVZFLrSDrT5kYStxhNH3XbBTthYyVxV8QIiOIW+A4cggBM9oF9dJlJWf2v2RB9ggDMZjzxyJnv48KERsTcUxO0CvJjL1HiXHRzzmmRrUt7b2ws3b94M7777bnjttdfs5E08g43+EvsXbwbDhRwgSlNF0IUWIvQ57/H9SZiPfxQW05+G5fQ9ddgHsuy4uRhfF2mWtnU9iBM/gSiRXywyuvqPvROdsY6FuhHTV/ByDCl/Z/ZWPkNH3u7Mx4Iq2CszF3ONMwwnWZZMLdhSF7EhY892kLoxTkW0cnnVKeQ4WxQiZMhRlrHS9ZW+tDwQO8KxiOM5Vk8nvySop9s3Rch3Ql9Wcb+EiL8m0ZUNr+VMVZgX8zDnTYDaHtuRyabfUYxUtdzIY6qLFRe85+I//af/VE2N8hIz3pvz9a9/Pbz55pvWX9wAuCxokDJeBhDE63c+aTjOYg5P7uSLS3qsIRqPgbch5ssBJ2MfaPQNBD/958aNG0bQ9A/0bvGYWAl1P+GBEgQNhGExvFR99qHk5/bo72L8Q3HMz8Ni/oHkUOR0pA6sMu0PVxZ8FQL0VQSSggghKlyV7neh1iH1c6C9isUk1OTfQpcONPTyY5HmBZ4SFLNCyvY2IRhRYlM0lEv5EDJXFCJU+fkoQJwwUj4lMQ61NpCwggWxu3Mqz27sScrHYV4ehAXSlwG2+3fFv9/SZr6keEkPV1cqqSlnBU8bPtY2dFzsWGxLdlVUYc0/19UR/Erf8KsnJ2e/VwXoJ9euXQv7+/sWpr9cJqyQMo3lpMxZijADz8OkybJYg21I+XLCSZnjjnjYSZj+4n0GVITs/QM1woDWUJ4ZccbVGYlmNJLHkrtmMYcJFvN7YT79meT9sJh9oA4cy2KlAMVGfhAlaJsxRr91d01YUTSR9W+DwrnGVmZ0ldHO52jo5fcpgjOCYrB6ef+FkbJaqLD13Gm6ggawnV4lZbOciaP9aTOWvvCUnn3OCVdiZSmssY7MB2WYi4wXvHJzsG9voCtH31K660qHiJBpcf3PtU/zEAmZ7fG0X7HcDeVyS66KN+GtcKppxiP0FecbBD99iDT0qcuIzukLVDQIg8cbzweSh0E+wMiH/7I25GUE/YDjnvcV13scrvcLT1ch9TyetNNp3WY9VZo0QyPk+ntyIhWzmD8QMctKnnworv4vYTb5Cw1+xRnpMD/NDSUZB5CWtNzA6tnUCBaYCwQm0rJHleNUXKxHqkyOtXqrVPQ70r5XaIdznJOUyQIhM6eMJWrvnbA3xtFaareqbSnb2wU3XSFgoWMBs96Ydc4z5ZmRR8Td4y1zKhsZXpGIcAevqLkkxQti0hdDf+sroRi+rPRpm8oKv0PC8QMEY6sbEUxZFMsdI2S7MGAzJrE/0DcgYO8TLt6HQKOvXCKsnVNuN0g+8DxL3pC5boPLCT/23h8Q+hIgrtmH6GMaoOIFng8jFTOfkDJhBrMRs8RiF3zEUzJ9JGJ+HML4++LhHyj2QGVhod2Te0+FPVBaxYuk7dNIS1mUC8h4SzrmNrlMV+GFSNmIaw1Sf27AVPy04xSuVLk/ohmElFoJzgAfZwBSpnXinLAxXnQMpFO7WXpaV65ZyGpVrGasaJEoS+MWamxk2d8VKe+Lc3lJlMh38IaM8Ne1iefFwTzQc0vCDVVlEyIhQ/jczONkwbYgZB1nm+/HratkKTippH3A9ZN1vl+AfuJ9xcOXBWunL7wR0OH36YsukMYH3waXBznJcvzbJ27305+A9x/6GJ8xKvqybrlMFWEuRZaJOuxSNxLJJPQ1qqHUuDhWFG0flCPqE8n70n8q+VjyN6oD8rMwX8iithuFvJtZ9ZRlyAvai4WIGXKGJniHhJlwHVCdO8F+ydFerUmDPnkTYjDTa9OW/9wcQ0YkFbhSjsc7UbsrTLfCYsw7RnRiG3yk89PdKH21Py+hL97UMXtLTf1VHayvipAh5zvycyOPclRSKt4JGdFR1x/HVmnYNd89S0s9ZYmrvWayzN3oo6/QH+gjiOstm8I+fYGOvN63LgNWLGUGUJuUAaRMw3SBNHmDbnA5wLFGOP7eT3C9D/iAAp4W2ADUQOWxYKy8MrCkzajXBjU5zKIKR4GXp5fKBnGblUc3QyBmPuoZHirxfekg4g/CYuY3Aj8JvDwf67q3PBL/zuT6tIY2y5xqG7GqQuWJaOttn1ppDNJl6tqb6dNmU1OcEcrkUxVVIyD4/RhAkaTRCczWLCNcb0in6Anv/yjUDn0R40CkOJBFO2Cq4rqKflmH42XFv6jkkuKm5Gq0jCWRiGPdmXKK1jbXNayw0HaJRBx2PuApTNYql+IVXnSv2urHSTnvOw7vK07Kue4yYIWU2w3k4eMahTSnSbfBLyb82HMyZxC5lcPddXTcWUfnJE3/4NHgmb0XGArhLj0vuyFEp6RMlbc8sECPJ8HMwuUyV46kfsgBV8TE9AbTFlORsWQx/1Db+1DE/L7yfKhEvN9BJN17FMqZrO/xUBuAvNpQoV5ujrSPEfIbA0VvRDNTnbypV8b4e64hokz22Dn1Zr4YUsQKReLNVSNHkXFchqY26/ESijRtM3gUjoZqh+KaUn1Jx+jLMoDfFDk/r7jbSqJ0OlZ2p9W2oZMl773mI6vaDe4FIvFTWhIpOQUUNiUkRP6Mu8z+cfazN9khpNlTljhV4TzhRqD3GYdzSM4rlwWdpOyNliMPE5+fwRzuv0wNuIHGovqC94ccTsJ+leVdjf7BO5O5NYSGCYz4F8exKRGsOqU1C02RuGwFIS3kEPNpgLN9WcNhJqtsLnKei4D5xNTyIxHzx6qLXD7FL8u6mN4L5cGnSsucag5tlO2uoK1XwEkZmLcOp90UsjQNQEjJeyYoUyGiZRncEgtUoquA5XKspmLZG1cCzOXy2aVtbUOk2uPbeBCz8m2LFPdk+fIGt3BTJzuRsd3Ek6VcXpUoX4mFrWjqXq3MiJVlBol1yFxxSBmPgS2rUx43o32XycK7SextdtQVi516tPpB6jv0j5yUve+QxuWyoHP6AhUNtK4xaLDZjE5QT9R7usvUeJcdfqzpC27tIB7uug/heRjW2Hm4pCgUUk51SMUvZVVhkqVBbhSQppOZ+JiHI/vFz8dT+xIsbRaJmXFm+UQEPIlmc8v3JSJhuUus6fGPQu8xL3LnZTwJzWFQo1Mv3TpSlhN9WfwKPgMplyJarGWRsX0VXFcTC/n55FZNyltqj11tA0K+omy7EuXb/UYIN35L/MjaYtWvFEFq7C5kSet6RmkjaVZPr9PwthvMv4tglZ4nKgG/5rPjhWR+QGYTCkI4ykyjpHihRT1V30DvFvRx97J+UbFCyn6Gyom2DW80QBqXDS4X/Ji3rR36hvchpAt0OnoQLqUol1ysMEIahGYayyvguMHGXX7mo2VDy+XyGTs7SiyHTp1ysRwM4uIhFKY3IDIeG559JCPzR5GsLQ0EThyf7OehFKZCDio/luhygVVNWu636CRg87Wx7mwKOE9XfO3uCpTLMoIssWVkz/Sb+dFHV//FSMJrNbldKFIV0XGTNE5V7Ki99yVXlOaqBELelyRLeUtW8S5P4JE2Ma+AzcvpLVqz+YmNWJCmK3QsuXIBq9WvNAkpomoUjkyzL+TU0+aP0/ShX1SskPIGG3wRkGhK5NAmgza8e8s1Lz+QK5ZmJOIwfyi5FxayphezTyQfheVUMvs4hi0OAo9TBX0RX7+QJaqi2Pqqq182gwB3DaRIJGOElczRZFXyKk6b1JFrpx3pmOohG/s8L/qyVkWesn57Pd5+d0t8dzsU5QuS5yV3Qtm/HXr9WyJfpiSYwrCtxc0itt02PNEGzxobUt7gcsK6PeSsS3O3pBePosyZ8kB47zDrnolj7bPSyqrmHdKLhU++cMNrqoFEOMZ7OnvBPmHbjkTpOYlwa8wu5+2SHusUkh2KXEdysWIR/IisYLPKY/qlLuWXPHnnN/FEzAGLGMtYJGzvoC73IhmnL7jwiS32FtrdUO/Fx4aUN7h0oMPnnT5dxUvJZboIFcKFTEW+Nt1hxC2BhCHX8c/CfPyByogrH2x1gc3tPpIO8n4gPX4R/PKx3DgFYuUIBY9FQ8JhJEt3V+E9yTVdpiM3FIekx5iZF+Zbhr6Coi9y5tMtRuaUA6Engay51Lc1hNops7p5JCeuJ+YGYBF25HIy2OCiYkPKG1w6JPtWLjOzGgRysSXjlb2GA7KAgCU8yYJrogTmfiL9XSvBxOalIdzkrkiylMlrUxEIW06kCtm6hVxg/SKQMDrimDOGSCHdzHI261k69iLuiOKj+D03bojauy/kw0Ivta2Tp3w2eJbYkPIGlw5z/U1FVNiRMJn/FfYX10ubocnIaAswPpRFrDwmdpMLFzZ0ISw1m8jzW1KdEmwOWX6H+3EhVkeehgDv8lgD2wRJklhy10tK/XI7lKgNLi42pLzBpQOkzOuPIilHRFp2N9KWv4EO13wpHFd/MB2Q4uVYLkuHDlaV68xofjmVLsG9loQEELWElwZZ3ZCo9xubWMsse4t2vc4OOgFYTIrOizekMNF4U802uMDYkPIGlw5c0q+SMsPABUQ/KyDamC/6YSExLkX0Q34nZ3sgzv5EgslfY6gCsjBeCWQat+XTDXEeGDeSciToOmeavmBKI/AEn09pqDhV3dL5rjikbK082+ACYkPKG1w60ON5oX7V8xNRGWE15iwiEUYrtSbnxWI7LqaA5HDy/MmtxPIxn1uXZS9cQkDKU7kVYqKYrHZZURzLwuaNdq+t5rCJiWQHW9aY34S5bMBaYZbTkWaDC4sNKW9w6WD36uK9rxiGoyRGoonXKhHiAPFhIpvY86d4c5Lf3CS1nrxu8cpCXzL9wcbdniYxD4tj6bprGc3125GgkBUd3yEddVGbD2H5rYLanq0mwc+2pOfmISs5bCneBhcVG1Le4PIBjhKvuQGZ+C0KTuZfcQUGTGPuts2JyWtYM7ry7Pk2GnoghRdB3Eq8RfIjYSgbEUPIiZhzUmblhj1MsiHli4wNKW9w+cBytzms7F0fNsRETpIzn/txPXk51c9DCcpoWscbb4WKlLvklZSERX6eJxtl6fUREblfaARbcRWyaleotuOEnIjYXCflfgh9HkihbhtcTITw/wPTS5Tw8OSb+AAAAABJRU5ErkJggg==;fontStyle=1;labelPosition=center;align=center;" vertex="1" parent="1">
          <mxGeometry x="360" y="261.205" width="70" height="80.59" as="geometry" />
        </mxCell>
        <mxCell id="vKeBIrEPphhN4ZtW6vs6-45" style="edgeStyle=orthogonalEdgeStyle;rounded=0;orthogonalLoop=1;jettySize=auto;html=1;exitX=1;exitY=0.5;exitDx=0;exitDy=0;entryX=0;entryY=0.5;entryDx=0;entryDy=0;" edge="1" parent="1" source="vKeBIrEPphhN4ZtW6vs6-44" target="vKeBIrEPphhN4ZtW6vs6-7">
          <mxGeometry relative="1" as="geometry" />
        </mxCell>
        <mxCell id="vKeBIrEPphhN4ZtW6vs6-44" value="&lt;span style=&quot;color: rgb(0, 0, 255); font-weight: 400; text-wrap: nowrap;&quot;&gt;data/RawURLS&lt;/span&gt;" style="swimlane;whiteSpace=wrap;html=1;" vertex="1" parent="1">
          <mxGeometry x="20" y="10" width="300" height="200" as="geometry" />
        </mxCell>
        <mxCell id="vKeBIrEPphhN4ZtW6vs6-36" value="ALICIA - SL - {costa afuera}.txt" style="shape=image;verticalLabelPosition=bottom;labelBackgroundColor=default;verticalAlign=top;aspect=fixed;imageAspect=0;image=https://cdn-icons-png.flaticon.com/512/8243/8243060.png;fontSize=10;" vertex="1" parent="vKeBIrEPphhN4ZtW6vs6-44">
          <mxGeometry x="50" y="34" width="45" height="45" as="geometry" />
        </mxCell>
        <mxCell id="vKeBIrEPphhN4ZtW6vs6-38" value="RENATI - SL - {costa afuera}.txt" style="shape=image;verticalLabelPosition=bottom;labelBackgroundColor=default;verticalAlign=top;aspect=fixed;imageAspect=0;image=https://cdn-icons-png.flaticon.com/512/8243/8243060.png;fontSize=10;" vertex="1" parent="vKeBIrEPphhN4ZtW6vs6-44">
          <mxGeometry x="200" y="34" width="45" height="45" as="geometry" />
        </mxCell>
        <mxCell id="vKeBIrEPphhN4ZtW6vs6-37" value="ALICIA - SL - {offshore}.txt" style="shape=image;verticalLabelPosition=bottom;labelBackgroundColor=default;verticalAlign=top;aspect=fixed;imageAspect=0;image=https://cdn-icons-png.flaticon.com/512/8243/8243060.png;fontSize=10;" vertex="1" parent="vKeBIrEPphhN4ZtW6vs6-44">
          <mxGeometry x="50" y="109" width="45" height="45" as="geometry" />
        </mxCell>
        <mxCell id="vKeBIrEPphhN4ZtW6vs6-39" value="RENATI - SL - {offshore}.txt" style="shape=image;verticalLabelPosition=bottom;labelBackgroundColor=default;verticalAlign=top;aspect=fixed;imageAspect=0;image=https://cdn-icons-png.flaticon.com/512/8243/8243060.png;fontSize=10;" vertex="1" parent="vKeBIrEPphhN4ZtW6vs6-44">
          <mxGeometry x="200" y="109" width="45" height="45" as="geometry" />
        </mxCell>
        <mxCell id="vKeBIrEPphhN4ZtW6vs6-46" value="&lt;span style=&quot;color: rgb(0, 0, 255); font-style: italic; font-weight: 400; text-wrap: nowrap;&quot;&gt;data/ScrapedLists&lt;/span&gt;" style="swimlane;whiteSpace=wrap;html=1;" vertex="1" parent="1">
          <mxGeometry x="100" y="244" width="220" height="115" as="geometry" />
        </mxCell>
        <mxCell id="vKeBIrEPphhN4ZtW6vs6-34" value="ALICIA_Records.xlsx" style="shape=image;html=1;verticalAlign=top;verticalLabelPosition=bottom;labelBackgroundColor=#ffffff;imageAspect=0;aspect=fixed;image=https://cdn3.iconfinder.com/data/icons/document-icons-2/30/647702-excel-128.png;fontSize=10;" vertex="1" parent="vKeBIrEPphhN4ZtW6vs6-46">
          <mxGeometry x="30" y="35" width="45" height="45" as="geometry" />
        </mxCell>
        <mxCell id="vKeBIrEPphhN4ZtW6vs6-35" value="RENATI_Records.xlsx" style="shape=image;html=1;verticalAlign=top;verticalLabelPosition=bottom;labelBackgroundColor=#ffffff;imageAspect=0;aspect=fixed;image=https://cdn3.iconfinder.com/data/icons/document-icons-2/30/647702-excel-128.png;fontSize=10;" vertex="1" parent="vKeBIrEPphhN4ZtW6vs6-46">
          <mxGeometry x="140" y="35" width="45" height="45" as="geometry" />
        </mxCell>
      </root>
    </mxGraphModel>
  </diagram>
</mxfile>
